NotoSerifTamilSlanted-CondensedLight.ufo
<glyph name="exclam" format="2">
  <advance width="261.26363636363635"/>
  <unicode hex="0021"/>
  <outline>
    <contour>
      <point x="93.95454545454545" y="187.45454545454547" type="line"/>
      <point x="131.26363636363638" y="187.45454545454547" type="line"/>
      <point x="262.3090909090909" y="714.0" type="line"/>
      <point x="189.21818181818182" y="714.0" type="line"/>
    </contour>
    <contour>
      <point x="80.98181818181817" y="-7.5" type="curve" smooth="yes"/>
      <point x="105.65454545454546" y="-7.5"/>
      <point x="130.35454545454547" y="12.154545454545453"/>
      <point x="130.35454545454547" y="58.31818181818182" type="curve" smooth="yes"/>
      <point x="130.35454545454547" y="87.59999999999998"/>
      <point x="113.57272727272729" y="101.91818181818181"/>
      <point x="90.4909090909091" y="101.91818181818181" type="curve" smooth="yes"/>
      <point x="62.57272727272727" y="101.91818181818181"/>
      <point x="39.82727272727273" y="77.15454545454546"/>
      <point x="39.82727272727273" y="37.01818181818182" type="curve" smooth="yes"/>
      <point x="39.82727272727273" y="7.4363636363636365"/>
      <point x="56.154545454545456" y="-7.5"/>
    </contour>
  </outline>
</glyph>
<glyph name="quotedbl" format="2">
  <advance width="309.09090909090907"/>
  <unicode hex="0022"/>
  <outline>
    <contour>
      <point x="110.4090909090909" y="489.6181818181818" type="line"/>
      <point x="142.68181818181816" y="489.6181818181818" type="line"/>
      <point x="209.88181818181815" y="714.0" type="line"/>
      <point x="142.24545454545452" y="714.0" type="line"/>
    </contour>
    <contour>
      <point x="255.69090909090912" y="489.6181818181818" type="line"/>
      <point x="287.96363636363634" y="489.6181818181818" type="line"/>
      <point x="355.1636363636364" y="714.0" type="line"/>
      <point x="287.9090909090909" y="714.0" type="line"/>
    </contour>
  </outline>
</glyph>
<glyph name="numbersign" format="2">
  <advance width="478.3727272727273"/>
  <unicode hex="0023"/>
  <outline>
    <contour>
      <point x="49.154545454545456" y="0.0" type="line"/>
      <point x="91.17272727272729" y="0.0" type="line"/>
      <point x="150.02727272727276" y="210.27272727272728" type="line"/>
      <point x="283.3363636363636" y="210.27272727272728" type="line"/>
      <point x="224.86363636363635" y="0.0" type="line"/>
      <point x="266.5" y="0.0" type="line"/>
      <point x="324.97272727272724" y="210.27272727272728" type="line"/>
      <point x="424.6090909090909" y="210.27272727272728" type="line"/>
      <point x="431.0818181818182" y="253.8181818181818" type="line"/>
      <point x="338.5181818181818" y="253.8181818181818" type="line"/>
      <point x="398.6272727272727" y="469.74545454545455" type="line"/>
      <point x="489.5909090909091" y="469.74545454545455" type="line"/>
      <point x="495.5818181818181" y="512.9090909090909" type="line"/>
      <point x="411.2181818181818" y="512.9090909090909" type="line"/>
      <point x="467.6454545454545" y="714.0" type="line"/>
      <point x="425.6272727272728" y="714.0" type="line"/>
      <point x="369.2" y="512.9090909090909" type="line"/>
      <point x="235.8909090909091" y="512.9090909090909" type="line"/>
      <point x="292.3181818181818" y="714.0" type="line"/>
      <point x="250.13636363636365" y="714.0" type="line"/>
      <point x="194.25454545454548" y="512.9090909090909" type="line"/>
      <point x="94.18181818181817" y="512.9090909090909" type="line"/>
      <point x="88.57272727272726" y="469.74545454545455" type="line"/>
      <point x="181.66363636363639" y="469.74545454545455" type="line"/>
      <point x="121.0090909090909" y="253.8181818181818" type="line"/>
      <point x="29.51818181818182" y="253.8181818181818" type="line"/>
      <point x="23.045454545454543" y="210.27272727272728" type="line"/>
      <point x="108.39090909090909" y="210.27272727272728" type="line"/>
    </contour>
    <contour>
      <point x="162.8090909090909" y="253.8181818181818" type="line"/>
      <point x="223.3" y="469.74545454545455" type="line"/>
      <point x="356.6090909090909" y="469.74545454545455" type="line"/>
      <point x="296.5" y="253.8181818181818" type="line"/>
    </contour>
  </outline>
</glyph>
<glyph name="percent" format="2">
  <advance width="759.2454545454545"/>
  <unicode hex="0025"/>
  <outline>
    <contour>
      <point x="145.32727272727274" y="0.0" type="line"/>
      <point x="194.0909090909091" y="0.0" type="line"/>
      <point x="643.9545454545454" y="714.0" type="line"/>
      <point x="597.3727272727273" y="714.0" type="line"/>
    </contour>
    <contour>
      <point x="174.20000000000002" y="281.90909090909093" type="curve" smooth="yes"/>
      <point x="297.43636363636364" y="281.90909090909093"/>
      <point x="354.8818181818182" y="461.97272727272724"/>
      <point x="354.8818181818182" y="572.2363636363636" type="curve" smooth="yes"/>
      <point x="354.8818181818182" y="662.7909090909092"/>
      <point x="321.8636363636364" y="722.0909090909091"/>
      <point x="250.10909090909092" y="722.0909090909091" type="curve" smooth="yes"/>
      <point x="128.67272727272726" y="722.0909090909091"/>
      <point x="70.7909090909091" y="545.8454545454545"/>
      <point x="70.7909090909091" y="431.5363636363636" type="curve"/>
      <point x="70.7909090909091" y="331.74545454545455"/>
      <point x="109.84545454545454" y="281.90909090909093"/>
    </contour>
    <contour>
      <point x="178.16363636363639" y="315.1181818181818" type="curve" smooth="yes"/>
      <point x="139.6727272727273" y="315.1181818181818"/>
      <point x="122.65454545454547" y="351.2818181818182"/>
      <point x="122.65454545454547" y="421.44545454545454" type="curve" smooth="yes"/>
      <point x="122.65454545454547" y="515.7818181818182"/>
      <point x="165.95454545454547" y="689.4272727272728"/>
      <point x="246.90909090909093" y="689.4272727272728" type="curve" smooth="yes"/>
      <point x="284.3090909090909" y="689.4272727272728"/>
      <point x="301.6" y="651.5545454545454"/>
      <point x="301.6" y="582.8727272727273" type="curve" smooth="yes"/>
      <point x="301.6" y="488.76363636363635"/>
      <point x="258.0727272727273" y="315.1181818181818"/>
    </contour>
    <contour>
      <point x="543.6363636363636" y="-7.090909090909091" type="curve" smooth="yes"/>
      <point x="667.2363636363638" y="-7.090909090909091"/>
      <point x="723.6636363636364" y="173.35454545454544"/>
      <point x="723.6636363636364" y="283.23636363636365" type="curve" smooth="yes"/>
      <point x="723.6636363636364" y="373.79090909090905"/>
      <point x="690.6454545454545" y="433.09090909090907"/>
      <point x="618.8909090909091" y="433.09090909090907" type="curve" smooth="yes"/>
      <point x="497.45454545454544" y="433.09090909090907"/>
      <point x="439.9545454545455" y="256.8454545454546"/>
      <point x="439.9545454545455" y="142.53636363636366" type="curve"/>
      <point x="439.9545454545455" y="42.51818181818182"/>
      <point x="479.69090909090914" y="-7.090909090909091"/>
    </contour>
    <contour>
      <point x="547.6" y="26.118181818181817" type="curve" smooth="yes"/>
      <point x="508.45454545454544" y="26.118181818181817"/>
      <point x="491.43636363636364" y="62.28181818181818"/>
      <point x="491.43636363636364" y="133.20909090909092" type="curve" smooth="yes"/>
      <point x="491.43636363636364" y="226.78181818181815"/>
      <point x="534.4363636363636" y="400.42727272727274"/>
      <point x="615.690909090909" y="400.42727272727274" type="curve" smooth="yes"/>
      <point x="653.4727272727273" y="400.42727272727274"/>
      <point x="670.7636363636364" y="362.17272727272723"/>
      <point x="670.7636363636364" y="293.87272727272733" type="curve" smooth="yes"/>
      <point x="670.7636363636364" y="199.76363636363638"/>
      <point x="627.8727272727273" y="26.118181818181817"/>
    </contour>
  </outline>
</glyph>
<glyph name="quotesingle" format="2">
  <advance width="162.74545454545455"/>
  <unicode hex="0027"/>
  <outline>
    <contour>
      <point x="111.54545454545455" y="503.70909090909095" type="line"/>
      <point x="143.8181818181818" y="503.70909090909095" type="line"/>
      <point x="207.0727272727273" y="714.0" type="line"/>
      <point x="139.8181818181818" y="714.0" type="line"/>
    </contour>
  </outline>
</glyph>
<glyph name="parenleft" format="2">
  <advance width="274.67272727272723"/>
  <unicode hex="0028"/>
  <outline>
    <contour>
      <point x="161.83636363636367" y="-122.84545454545454" type="curve"/>
      <point x="170.08181818181816" y="-87.7909090909091" type="line"/>
      <point x="121.02727272727273" y="-43.154545454545456"/>
      <point x="97.47272727272727" y="56.40909090909091"/>
      <point x="97.47272727272727" y="150.5" type="curve" smooth="yes"/>
      <point x="97.47272727272727" y="297.08181818181816"/>
      <point x="151.27272727272728" y="583.209090909091"/>
      <point x="340.8545454545454" y="715.2909090909092" type="curve"/>
      <point x="348.3363636363636" y="750.0545454545455" type="line"/>
      <point x="130.90909090909093" y="649.0818181818181"/>
      <point x="36.14545454545455" y="388.22727272727275"/>
      <point x="36.14545454545455" y="167.85454545454544" type="curve" smooth="yes"/>
      <point x="36.14545454545455" y="38.46363636363636"/>
      <point x="76.14545454545454" y="-69.46363636363637"/>
    </contour>
  </outline>
</glyph>
<glyph name="parenright" format="2">
  <advance width="274.67272727272723"/>
  <unicode hex="0029"/>
  <outline>
    <contour>
      <point x="-54.36363636363637" y="-127.5909090909091" type="line"/>
      <point x="163.44545454545454" y="-26.23636363636364"/>
      <point x="257.4454545454545" y="234.6181818181818"/>
      <point x="257.4454545454545" y="454.99090909090904" type="curve" smooth="yes"/>
      <point x="257.4454545454545" y="584.3818181818182"/>
      <point x="218.20909090909092" y="691.9272727272728"/>
      <point x="132.13636363636363" y="745.3090909090909" type="curve"/>
      <point x="124.27272727272727" y="710.6363636363636" type="line"/>
      <point x="172.94545454545457" y="666.0"/>
      <point x="196.5" y="566.4363636363636"/>
      <point x="196.5" y="472.3454545454546" type="curve" smooth="yes"/>
      <point x="196.5" y="326.1454545454546"/>
      <point x="143.0818181818182" y="40.018181818181816"/>
      <point x="-46.5" y="-92.44545454545455" type="curve"/>
    </contour>
  </outline>
</glyph>
<glyph name="asterisk" format="2">
  <advance width="392.9454545454546"/>
  <unicode hex="002A"/>
  <outline>
    <contour>
      <point x="263.0363636363636" y="394.3545454545454" type="line"/>
      <point x="276.3181818181818" y="551.8818181818182" type="line"/>
      <point x="380.91818181818184" y="439.55454545454546" type="line"/>
      <point x="416.55454545454546" y="487.95454545454544" type="line"/>
      <point x="293.33636363636367" y="573.4727272727273" type="line"/>
      <point x="439.9636363636364" y="595.7181818181818" type="line"/>
      <point x="427.70909090909095" y="656.8181818181819" type="line"/>
      <point x="287.06363636363636" y="600.0181818181819" type="line"/>
      <point x="338.49090909090904" y="749.4545454545455" type="line"/>
      <point x="280.22727272727275" y="762.7272727272727" type="line"/>
      <point x="264.97272727272724" y="604.409090909091" type="line"/>
      <point x="161.6" y="720.5454545454545" type="line"/>
      <point x="125.0090909090909" y="669.9454545454546" type="line"/>
      <point x="248.3090909090909" y="583.3636363636364" type="line"/>
      <point x="101.98181818181817" y="560.4363636363636" type="line"/>
      <point x="114.50909090909092" y="499.99090909090904" type="line"/>
      <point x="254.33636363636364" y="557.2" type="line"/>
      <point x="204.11818181818182" y="407.3818181818182" type="line"/>
    </contour>
  </outline>
</glyph>
<glyph name="comma" format="2">
  <advance width="192.6090909090909"/>
  <unicode hex="002C"/>
  <outline>
    <contour>
      <point x="-35.872727272727275" y="-142.63636363636365" type="line"/>
      <point x="66.71818181818183" y="-117.77272727272728"/>
      <point x="104.67272727272727" y="-48.7"/>
      <point x="104.67272727272727" y="30.381818181818183" type="curve" smooth="yes"/>
      <point x="104.67272727272727" y="75.4909090909091"/>
      <point x="81.72727272727272" y="101.85454545454546"/>
      <point x="53.16363636363636" y="101.85454545454546" type="curve" smooth="yes"/>
      <point x="27.05454545454546" y="101.85454545454546"/>
      <point x="8.763636363636362" y="84.19999999999999"/>
      <point x="8.763636363636362" y="55.2" type="curve" smooth="yes"/>
      <point x="8.763636363636362" y="13.727272727272727"/>
      <point x="52.490909090909085" y="13.418181818181818"/>
      <point x="52.490909090909085" y="-20.527272727272727" type="curve" smooth="yes"/>
      <point x="52.490909090909085" y="-60.27272727272727"/>
      <point x="25.345454545454547" y="-93.63636363636364"/>
      <point x="-33.654545454545456" y="-110.7" type="curve"/>
    </contour>
  </outline>
</glyph>
<glyph name="hyphen" format="2">
  <advance width="265.32727272727277"/>
  <unicode hex="002D"/>
  <outline>
    <contour>
      <point x="18.854545454545452" y="246.35454545454547" type="line"/>
      <point x="241.18181818181816" y="246.35454545454547" type="line"/>
      <point x="252.88181818181815" y="297.55454545454546" type="line"/>
      <point x="30.55454545454545" y="297.55454545454546" type="line"/>
    </contour>
  </outline>
</glyph>
<glyph name="period" format="2">
  <advance width="192.6090909090909"/>
  <unicode hex="002E"/>
  <outline>
    <contour>
      <point x="56.39090909090908" y="-6.954545454545455" type="curve" smooth="yes"/>
      <point x="80.79090909090908" y="-6.954545454545455"/>
      <point x="106.14545454545456" y="12.154545454545453"/>
      <point x="106.14545454545456" y="59.51818181818182" type="curve" smooth="yes"/>
      <point x="106.14545454545456" y="88.14545454545454"/>
      <point x="88.98181818181818" y="102.46363636363635"/>
      <point x="65.9" y="102.46363636363635" type="curve" smooth="yes"/>
      <point x="38.11818181818182" y="102.46363636363635"/>
      <point x="15.236363636363636" y="77.97272727272727"/>
      <point x="15.236363636363636" y="36.90909090909091" type="curve" smooth="yes"/>
      <point x="15.236363636363636" y="7.9818181818181815"/>
      <point x="31.563636363636366" y="-6.954545454545455"/>
    </contour>
  </outline>
</glyph>
<glyph name="slash" format="2">
  <advance width="246.8272727272727"/>
  <unicode hex="002F"/>
  <outline>
    <contour>
      <point x="-81.48181818181818" y="-121.0" type="line"/>
      <point x="-37.89090909090909" y="-121.0" type="line"/>
      <point x="339.9272727272727" y="760.0" type="line"/>
      <point x="295.3" y="760.0" type="line"/>
    </contour>
  </outline>
</glyph>
<glyph name="zero" format="2">
  <advance width="472.0818181818181"/>
  <unicode hex="0030"/>
  <outline>
    <contour>
      <point x="190.45454545454547" y="-11.0" type="curve" smooth="yes"/>
      <point x="380.8" y="-11.0"/>
      <point x="460.8" y="311.90909090909093"/>
      <point x="460.8" y="505.93636363636364" type="curve" smooth="yes"/>
      <point x="460.8" y="655.0"/>
      <point x="399.8909090909091" y="724.0272727272727"/>
      <point x="312.99090909090904" y="724.0272727272727" type="curve" smooth="yes"/>
      <point x="129.3" y="724.0272727272727"/>
      <point x="42.74545454545455" y="422.3545454545455"/>
      <point x="42.74545454545455" y="214.66363636363636" type="curve" smooth="yes"/>
      <point x="42.74545454545455" y="68.16363636363636"/>
      <point x="99.51818181818183" y="-11.0"/>
    </contour>
    <contour>
      <point x="195.8181818181818" y="29.98181818181818" type="curve" smooth="yes"/>
      <point x="137.0909090909091" y="29.98181818181818"/>
      <point x="104.18181818181819" y="88.36363636363636"/>
      <point x="104.18181818181819" y="202.17272727272726" type="curve" smooth="yes"/>
      <point x="104.18181818181819" y="381.27272727272725"/>
      <point x="171.81818181818184" y="683.9090909090909"/>
      <point x="306.5727272727273" y="683.9090909090909" type="curve" smooth="yes"/>
      <point x="366.7545454545455" y="683.9090909090909"/>
      <point x="399.7454545454545" y="627.3"/>
      <point x="399.7454545454545" y="513.3272727272728" type="curve" smooth="yes"/>
      <point x="399.7454545454545" y="343.6272727272727"/>
      <point x="337.24545454545455" y="29.98181818181818"/>
    </contour>
  </outline>
</glyph>
<glyph name="one" format="2">
  <advance width="472.0818181818181"/>
  <unicode hex="0031"/>
  <outline>
    <contour>
      <point x="39.736363636363635" y="0.0" type="line"/>
      <point x="337.6818181818182" y="0.0" type="line"/>
      <point x="344.8636363636364" y="31.618181818181817" type="line"/>
      <point x="287.0363636363636" y="31.618181818181817" type="line" smooth="yes"/>
      <point x="252.5818181818182" y="31.618181818181817"/>
      <point x="236.28181818181815" y="36.39090909090909"/>
      <point x="236.28181818181815" y="64.12727272727273" type="curve" smooth="yes"/>
      <point x="236.28181818181815" y="71.96363636363635"/>
      <point x="238.59999999999997" y="88.17272727272729"/>
      <point x="242.83636363636364" y="107.62727272727271" type="curve" smooth="yes"/>
      <point x="372.1454545454545" y="718.0" type="line"/>
      <point x="335.1272727272727" y="718.0" type="line"/>
      <point x="273.94545454545454" y="671.5" type="line" smooth="yes"/>
      <point x="208.95454545454544" y="621.409090909091"/>
      <point x="168.42727272727274" y="601.2727272727273"/>
      <point x="129.04545454545453" y="590.5" type="curve"/>
      <point x="128.66363636363636" y="570.309090909091"/>
      <point x="135.87272727272727" y="552.9181818181818"/>
      <point x="158.53636363636366" y="552.9181818181818" type="curve" smooth="yes"/>
      <point x="192.46363636363637" y="552.9181818181818"/>
      <point x="230.44545454545457" y="587.5363636363636"/>
      <point x="296.4" y="654.190909090909" type="curve"/>
      <point x="298.59090909090907" y="654.190909090909" type="line"/>
      <point x="289.4636363636364" y="622.0727272727272"/>
      <point x="276.4090909090909" y="565.7909090909092"/>
      <point x="259.10909090909087" y="482.6363636363636" type="curve" smooth="yes"/>
      <point x="179.0" y="104.84545454545454" type="line" smooth="yes"/>
      <point x="164.8" y="38.46363636363637"/>
      <point x="145.27272727272728" y="31.618181818181817"/>
      <point x="102.75454545454545" y="31.618181818181817" type="curve" smooth="yes"/>
      <point x="46.372727272727275" y="31.618181818181817" type="line"/>
    </contour>
  </outline>
</glyph>
<glyph name="two" format="2">
  <advance width="472.0818181818181"/>
  <unicode hex="0032"/>
  <outline>
    <contour>
      <point x="-6.163636363636364" y="0.0" type="line"/>
      <point x="351.53636363636366" y="0.0" type="line"/>
      <point x="385.57272727272726" y="141.86363636363637" type="line"/>
      <point x="355.1" y="141.86363636363637" type="line"/>
      <point x="348.9363636363637" y="123.15454545454546" type="line" smooth="yes"/>
      <point x="333.0454545454545" y="74.7909090909091"/>
      <point x="321.28181818181815" y="53.472727272727276"/>
      <point x="266.5" y="53.472727272727276" type="curve" smooth="yes"/>
      <point x="56.58181818181818" y="53.472727272727276" type="line"/>
      <point x="259.1818181818182" y="263.7" type="line" smooth="yes"/>
      <point x="388.3454545454546" y="391.8727272727273"/>
      <point x="443.79090909090905" y="476.7"/>
      <point x="443.79090909090905" y="580.2181818181818" type="curve" smooth="yes"/>
      <point x="443.79090909090905" y="667.2636363636362"/>
      <point x="390.8" y="724.0"/>
      <point x="290.3181818181818" y="724.0" type="curve" smooth="yes"/>
      <point x="177.21818181818182" y="724.0"/>
      <point x="113.2090909090909" y="652.7636363636364"/>
      <point x="113.2090909090909" y="588.6454545454545" type="curve" smooth="yes"/>
      <point x="113.2090909090909" y="555.8090909090909"/>
      <point x="134.03636363636363" y="542.8909090909091"/>
      <point x="161.77272727272728" y="542.8909090909091" type="curve"/>
      <point x="168.1" y="623.4"/>
      <point x="212.2" y="686.1272727272727"/>
      <point x="286.19090909090914" y="686.1272727272727" type="curve" smooth="yes"/>
      <point x="345.54545454545456" y="686.1272727272727"/>
      <point x="378.8636363636363" y="642.6363636363636"/>
      <point x="378.8636363636363" y="577.6181818181817" type="curve" smooth="yes"/>
      <point x="378.8636363636363" y="489.6363636363636"/>
      <point x="348.0454545454545" y="413.52727272727276"/>
      <point x="223.4181818181818" y="283.0363636363636" type="curve" smooth="yes"/>
      <point x="8.236363636363636" y="58.30909090909091" type="line"/>
    </contour>
  </outline>
</glyph>
<glyph name="three" format="2">
  <advance width="472.0818181818181"/>
  <unicode hex="0033"/>
  <outline>
    <contour>
      <point x="158.5090909090909" y="-10.0" type="curve" smooth="yes"/>
      <point x="273.1181818181819" y="-10.0"/>
      <point x="389.70909090909095" y="57.554545454545455"/>
      <point x="389.70909090909095" y="228.6909090909091" type="curve" smooth="yes"/>
      <point x="389.70909090909095" y="310.1272727272727"/>
      <point x="339.2818181818182" y="364.43636363636364"/>
      <point x="274.1818181818182" y="374.7818181818182" type="curve"/>
      <point x="388.6" y="398.3"/>
      <point x="444.20909090909095" y="486.6181818181818"/>
      <point x="444.20909090909095" y="582.8818181818183" type="curve" smooth="yes"/>
      <point x="444.20909090909095" y="670.4454545454546"/>
      <point x="382.9909090909091" y="724.0"/>
      <point x="295.6636363636364" y="724.0" type="curve" smooth="yes"/>
      <point x="193.9181818181818" y="724.0"/>
      <point x="116.68181818181819" y="662.3181818181819"/>
      <point x="116.68181818181819" y="577.9090909090909" type="curve" smooth="yes"/>
      <point x="116.68181818181819" y="544.4818181818181"/>
      <point x="138.2" y="532.0636363636364"/>
      <point x="164.79090909090908" y="532.0636363636364" type="curve"/>
      <point x="174.06363636363636" y="614.7181818181818"/>
      <point x="204.79090909090908" y="686.1272727272727"/>
      <point x="291.1818181818182" y="686.1272727272727" type="curve" smooth="yes"/>
      <point x="346.6636363636364" y="686.1272727272727"/>
      <point x="379.5" y="644.4636363636363"/>
      <point x="379.5" y="582.6909090909091" type="curve" smooth="yes"/>
      <point x="379.5" y="464.42727272727274"/>
      <point x="301.7" y="392.27272727272725"/>
      <point x="202.8" y="392.27272727272725" type="curve" smooth="yes"/>
      <point x="175.0" y="392.27272727272725" type="line"/>
      <point x="166.29090909090908" y="353.47272727272724" type="line"/>
      <point x="201.76363636363635" y="353.47272727272724" type="line" smooth="yes"/>
      <point x="277.7818181818182" y="353.47272727272724"/>
      <point x="323.90909090909093" y="298.9909090909091"/>
      <point x="323.90909090909093" y="224.46363636363634" type="curve" smooth="yes"/>
      <point x="323.90909090909093" y="94.88181818181818"/>
      <point x="250.77272727272725" y="30.6"/>
      <point x="164.0" y="30.6" type="curve" smooth="yes"/>
      <point x="81.54545454545455" y="30.6"/>
      <point x="53.36363636363637" y="87.39090909090909"/>
      <point x="54.50909090909091" y="151.44545454545457" type="curve"/>
      <point x="26.481818181818184" y="151.44545454545457"/>
      <point x="3.281818181818182" y="133.54545454545453"/>
      <point x="3.281818181818182" y="99.0" type="curve" smooth="yes"/>
      <point x="3.281818181818182" y="45.03636363636363"/>
      <point x="43.990909090909085" y="-10.0"/>
    </contour>
  </outline>
</glyph>
<glyph name="four" format="2">
  <advance width="472.0818181818181"/>
  <unicode hex="0034"/>
  <outline>
    <contour>
      <point x="109.5909090909091" y="0.0" type="line"/>
      <point x="378.6181818181818" y="0.0" type="line"/>
      <point x="386.1818181818182" y="31.618181818181817" type="line"/>
      <point x="352.5909090909091" y="31.618181818181817" type="line" smooth="yes"/>
      <point x="317.7" y="31.618181818181817"/>
      <point x="301.2818181818182" y="37.52727272727273"/>
      <point x="301.2818181818182" y="64.65454545454546" type="curve" smooth="yes"/>
      <point x="301.2818181818182" y="73.58181818181819"/>
      <point x="303.6000000000001" y="87.96363636363635"/>
      <point x="306.0545454545455" y="99.32727272727273" type="curve" smooth="yes"/>
      <point x="436.0090909090909" y="714.0" type="line"/>
      <point x="374.1363636363636" y="714.0" type="line"/>
      <point x="10.236363636363635" y="233.5727272727273" type="line"/>
      <point x="3.509090909090906" y="205.70909090909092" type="line"/>
      <point x="438.3454545454546" y="205.70909090909092" type="line"/>
      <point x="448.43636363636364" y="245.3272727272727" type="line"/>
      <point x="43.72727272727273" y="245.3272727272727" type="line"/>
      <point x="51.90909090909091" y="230.28181818181818" type="line"/>
      <point x="297.3818181818182" y="551.7090909090908" type="line" smooth="yes"/>
      <point x="317.16363636363633" y="577.1545454545455"/>
      <point x="350.3" y="624.1636363636362"/>
      <point x="365.5454545454545" y="651.9909090909091" type="curve"/>
      <point x="350.3818181818182" y="599.8545454545455"/>
      <point x="335.6272727272727" y="537.1"/>
      <point x="322.58181818181816" y="474.67272727272723" type="curve" smooth="yes"/>
      <point x="244.56363636363636" y="101.89090909090909" type="line" smooth="yes"/>
      <point x="231.69999999999996" y="39.57272727272727"/>
      <point x="210.6" y="31.618181818181817"/>
      <point x="167.37272727272725" y="31.618181818181817" type="curve" smooth="yes"/>
      <point x="116.22727272727272" y="31.618181818181817" type="line"/>
    </contour>
  </outline>
</glyph>
<glyph name="five" format="2">
  <advance width="472.0818181818181"/>
  <unicode hex="0035"/>
  <outline>
    <contour>
      <point x="159.97272727272727" y="-10.0" type="curve" smooth="yes"/>
      <point x="305.90000000000003" y="-10.0"/>
      <point x="395.5" y="102.9909090909091"/>
      <point x="395.5" y="247.9090909090909" type="curve" smooth="yes"/>
      <point x="395.5" y="360.7818181818182"/>
      <point x="331.43636363636364" y="422.6636363636364"/>
      <point x="229.92727272727276" y="422.6636363636364" type="curve" smooth="yes"/>
      <point x="193.95454545454547" y="422.6636363636364"/>
      <point x="166.45454545454544" y="414.04545454545456"/>
      <point x="149.1818181818182" y="407.04545454545456" type="curve"/>
      <point x="220.9818181818182" y="660.1454545454545" type="line"/>
      <point x="378.5636363636363" y="660.1454545454545" type="line" smooth="yes"/>
      <point x="408.73636363636365" y="660.1454545454545"/>
      <point x="415.7454545454545" y="651.8"/>
      <point x="415.7454545454545" y="638.1363636363636" type="curve" smooth="yes"/>
      <point x="415.7454545454545" y="631.5363636363636"/>
      <point x="413.0454545454545" y="609.7454545454547"/>
      <point x="409.98181818181814" y="583.8" type="curve"/>
      <point x="440.45454545454544" y="583.8" type="line"/>
      <point x="467.30909090909086" y="714.0" type="line"/>
      <point x="199.3" y="714.0" type="line"/>
      <point x="99.28181818181818" y="368.6272727272727" type="line"/>
      <point x="121.60909090909092" y="360.06363636363636" type="line"/>
      <point x="147.86363636363637" y="372.0181818181818"/>
      <point x="171.13636363636363" y="382.06363636363636"/>
      <point x="216.25454545454545" y="382.06363636363636" type="curve" smooth="yes"/>
      <point x="283.3818181818182" y="382.06363636363636"/>
      <point x="330.24545454545455" y="335.91818181818184"/>
      <point x="330.24545454545455" y="243.70909090909095" type="curve" smooth="yes"/>
      <point x="330.24545454545455" y="107.98181818181818"/>
      <point x="259.3454545454546" y="30.6"/>
      <point x="166.65454545454548" y="30.6" type="curve" smooth="yes"/>
      <point x="89.36363636363637" y="30.6"/>
      <point x="65.53636363636363" y="88.9909090909091"/>
      <point x="65.93636363636362" y="149.6090909090909" type="curve"/>
      <point x="30.863636363636363" y="149.6090909090909"/>
      <point x="16.46363636363637" y="129.0090909090909"/>
      <point x="16.46363636363637" y="99.31818181818181" type="curve" smooth="yes"/>
      <point x="16.46363636363637" y="47.78181818181818"/>
      <point x="54.42727272727272" y="-10.0"/>
    </contour>
  </outline>
</glyph>
<glyph name="six" format="2">
  <advance width="472.0818181818181"/>
  <unicode hex="0036"/>
  <outline>
    <contour>
      <point x="210.11818181818182" y="-10.0" type="curve" smooth="yes"/>
      <point x="346.2454545454545" y="-10.0"/>
      <point x="417.2636363636364" y="123.22727272727273"/>
      <point x="417.2636363636364" y="265.79090909090905" type="curve" smooth="yes"/>
      <point x="417.2636363636364" y="356.0"/>
      <point x="373.4545454545455" y="430.8909090909091"/>
      <point x="278.9727272727273" y="430.8909090909091" type="curve" smooth="yes"/>
      <point x="218.75454545454548" y="430.8909090909091"/>
      <point x="171.54545454545456" y="399.75454545454545"/>
      <point x="143.90909090909093" y="375.9818181818182" type="curve"/>
      <point x="185.76363636363638" y="567.5"/>
      <point x="267.4818181818182" y="686.8363636363637"/>
      <point x="359.3363636363636" y="686.8363636363637" type="curve" smooth="yes"/>
      <point x="415.4454545454545" y="686.8363636363637"/>
      <point x="426.93636363636364" y="634.7363636363636"/>
      <point x="425.79090909090905" y="574.8272727272728" type="curve"/>
      <point x="462.6545454545454" y="574.8272727272728"/>
      <point x="482.9090909090909" y="596.4818181818181"/>
      <point x="482.9090909090909" y="628.3363636363637" type="curve" smooth="yes"/>
      <point x="482.9090909090909" y="676.7363636363636"/>
      <point x="443.7181818181818" y="724.0"/>
      <point x="365.0" y="724.0" type="curve" smooth="yes"/>
      <point x="189.71818181818185" y="724.0"/>
      <point x="62.0" y="470.9909090909091"/>
      <point x="62.0" y="211.24545454545455" type="curve" smooth="yes"/>
      <point x="62.0" y="52.60909090909092"/>
      <point x="126.74545454545456" y="-10.0"/>
    </contour>
    <contour>
      <point x="214.6090909090909" y="29.836363636363636" type="curve" smooth="yes"/>
      <point x="158.0" y="29.836363636363636"/>
      <point x="122.07272727272726" y="87.01818181818183"/>
      <point x="122.07272727272726" y="196.28181818181818" type="curve" smooth="yes"/>
      <point x="122.07272727272726" y="235.22727272727272"/>
      <point x="125.19090909090909" y="275.47272727272724"/>
      <point x="135.13636363636363" y="329.1363636363636" type="curve"/>
      <point x="168.08181818181816" y="362.54545454545456"/>
      <point x="216.24545454545452" y="392.47272727272724"/>
      <point x="265.3909090909091" y="392.47272727272724" type="curve" smooth="yes"/>
      <point x="322.29090909090905" y="392.47272727272724"/>
      <point x="354.73636363636365" y="342.9272727272727"/>
      <point x="354.73636363636365" y="263.83636363636367" type="curve" smooth="yes"/>
      <point x="354.73636363636365" y="136.12727272727273"/>
      <point x="297.3181818181818" y="29.836363636363636"/>
    </contour>
  </outline>
</glyph>
<glyph name="seven" format="2">
  <advance width="472.0818181818181"/>
  <unicode hex="0037"/>
  <outline>
    <contour>
      <point x="99.8" y="0.0" type="line"/>
      <point x="150.00909090909093" y="0.0" type="line"/>
      <point x="499.7454545454545" y="693.8454545454545" type="line"/>
      <point x="503.9545454545455" y="714.0" type="line"/>
      <point x="137.71818181818182" y="714.0" type="line"/>
      <point x="98.12727272727271" y="556.2363636363636" type="line"/>
      <point x="128.6" y="556.2363636363636" type="line"/>
      <point x="144.62727272727273" y="613.009090909091" type="line" smooth="yes"/>
      <point x="154.76363636363638" y="648.3272727272728"/>
      <point x="168.0181818181818" y="660.5272727272727"/>
      <point x="202.43636363636367" y="660.5272727272727" type="curve" smooth="yes"/>
      <point x="439.30909090909097" y="660.5272727272727" type="line"/>
    </contour>
  </outline>
</glyph>
<glyph name="eight" format="2">
  <advance width="472.0818181818181"/>
  <unicode hex="0038"/>
  <outline>
    <contour>
      <point x="201.24545454545458" y="-10.0" type="curve" smooth="yes"/>
      <point x="317.4" y="-10.0"/>
      <point x="412.4818181818182" y="60.39090909090909"/>
      <point x="412.4818181818182" y="202.52727272727276" type="curve" smooth="yes"/>
      <point x="412.4818181818182" y="280.55454545454546"/>
      <point x="371.6" y="333.8090909090909"/>
      <point x="298.3545454545454" y="377.9818181818182" type="curve"/>
      <point x="397.6090909090909" y="422.76363636363635"/>
      <point x="465.24545454545455" y="479.1"/>
      <point x="465.24545454545455" y="582.8363636363637" type="curve" smooth="yes"/>
      <point x="465.24545454545455" y="662.7363636363636"/>
      <point x="410.8" y="724.0"/>
      <point x="311.2181818181818" y="724.0" type="curve" smooth="yes"/>
      <point x="175.20909090909092" y="724.0"/>
      <point x="112.74545454545455" y="633.9636363636364"/>
      <point x="112.74545454545455" y="532.3818181818182" type="curve" smooth="yes"/>
      <point x="112.74545454545455" y="468.0909090909091"/>
      <point x="142.4909090909091" y="414.25454545454545"/>
      <point x="201.54545454545453" y="370.95454545454544" type="curve"/>
      <point x="96.75454545454545" y="326.93636363636364"/>
      <point x="17.563636363636363" y="267.73636363636365"/>
      <point x="17.563636363636363" y="152.93636363636367" type="curve" smooth="yes"/>
      <point x="17.563636363636363" y="58.72727272727273"/>
      <point x="83.39090909090909" y="-10.0"/>
    </contour>
    <contour>
      <point x="202.11818181818182" y="27.70909090909091" type="curve" smooth="yes"/>
      <point x="122.36363636363637" y="27.70909090909091"/>
      <point x="78.07272727272726" y="78.60909090909092"/>
      <point x="78.07272727272726" y="153.12727272727273" type="curve" smooth="yes"/>
      <point x="78.07272727272726" y="253.0818181818182"/>
      <point x="145.9818181818182" y="314.4090909090909"/>
      <point x="234.12727272727273" y="350.7181818181818" type="curve"/>
      <point x="315.06363636363636" y="304.3"/>
      <point x="351.75454545454545" y="263.1818181818182"/>
      <point x="351.75454545454545" y="188.52727272727276" type="curve" smooth="yes"/>
      <point x="351.75454545454545" y="84.23636363636363"/>
      <point x="284.7636363636364" y="27.70909090909091"/>
    </contour>
    <contour>
      <point x="265.06363636363636" y="397.89090909090913" type="curve"/>
      <point x="198.71818181818182" y="439.2818181818182"/>
      <point x="174.4" y="480.9090909090909"/>
      <point x="174.4" y="539.1454545454545" type="curve" smooth="yes"/>
      <point x="174.4" y="620.990909090909"/>
      <point x="225.24545454545455" y="685.7454545454545"/>
      <point x="307.8636363636364" y="685.7454545454545" type="curve" smooth="yes"/>
      <point x="375.1363636363637" y="685.7454545454545"/>
      <point x="407.7909090909091" y="638.7090909090908"/>
      <point x="407.7909090909091" y="579.4" type="curve" smooth="yes"/>
      <point x="407.7909090909091" y="500.5"/>
      <point x="366.6454545454546" y="444.4"/>
    </contour>
  </outline>
</glyph>
<glyph name="nine" format="2">
  <advance width="472.0818181818181"/>
  <unicode hex="0039"/>
  <outline>
    <contour>
      <point x="157.44545454545454" y="-10.0" type="curve" smooth="yes"/>
      <point x="352.1636363636364" y="-10.0"/>
      <point x="447.8545454545455" y="316.22727272727275"/>
      <point x="447.8545454545455" y="530.7454545454545" type="curve" smooth="yes"/>
      <point x="447.8545454545455" y="661.9636363636364"/>
      <point x="386.26363636363635" y="724.0"/>
      <point x="299.42727272727274" y="724.0" type="curve" smooth="yes"/>
      <point x="176.52727272727273" y="724.0"/>
      <point x="81.72727272727273" y="604.3"/>
      <point x="81.72727272727273" y="441.1181818181818" type="curve" smooth="yes"/>
      <point x="81.72727272727273" y="349.27272727272725"/>
      <point x="129.0" y="278.6363636363636"/>
      <point x="221.3" y="278.6363636363636" type="curve" smooth="yes"/>
      <point x="282.77272727272725" y="278.6363636363636"/>
      <point x="334.49090909090904" y="314.1363636363637"/>
      <point x="363.3818181818182" y="347.04545454545456" type="curve"/>
      <point x="323.0545454545455" y="160.45454545454547"/>
      <point x="254.25454545454548" y="27.70909090909091"/>
      <point x="163.27272727272728" y="27.70909090909091" type="curve" smooth="yes"/>
      <point x="101.77272727272727" y="27.70909090909091"/>
      <point x="84.48181818181817" y="77.76363636363637"/>
      <point x="85.08181818181818" y="132.8181818181818" type="curve"/>
      <point x="55.88181818181819" y="132.8181818181818"/>
      <point x="40.18181818181818" y="111.43636363636364"/>
      <point x="40.18181818181818" y="83.5909090909091" type="curve" smooth="yes"/>
      <point x="40.18181818181818" y="39.581818181818186"/>
      <point x="68.26363636363637" y="-10.0"/>
    </contour>
    <contour>
      <point x="235.69999999999996" y="318.8545454545454" type="curve" smooth="yes"/>
      <point x="177.73636363636362" y="318.8545454545454"/>
      <point x="144.8" y="367.77272727272725"/>
      <point x="144.8" y="439.8" type="curve" smooth="yes"/>
      <point x="144.8" y="565.1636363636363"/>
      <point x="206.20909090909092" y="684.1636363636363"/>
      <point x="296.3272727272727" y="684.1636363636363" type="curve" smooth="yes"/>
      <point x="348.46363636363634" y="684.1636363636363"/>
      <point x="388.2181818181818" y="639.5363636363636"/>
      <point x="388.2181818181818" y="532.1727272727273" type="curve" smooth="yes"/>
      <point x="388.2181818181818" y="498.73636363636365"/>
      <point x="382.9272727272727" y="447.17272727272723"/>
      <point x="374.59090909090907" y="403.1636363636364" type="curve"/>
      <point x="344.8363636363636" y="362.82727272727277"/>
      <point x="293.79090909090905" y="318.8545454545454"/>
    </contour>
  </outline>
</glyph>
<glyph name="colon" format="2">
  <advance width="217.20909090909092"/>
  <unicode hex="003A"/>
  <outline>
    <contour>
      <point x="152.78181818181818" y="431.73636363636365" type="curve" smooth="yes"/>
      <point x="177.18181818181816" y="431.73636363636365"/>
      <point x="202.15454545454543" y="450.8454545454545"/>
      <point x="202.15454545454543" y="497.55454545454546" type="curve" smooth="yes"/>
      <point x="202.15454545454543" y="526.8363636363637"/>
      <point x="185.37272727272727" y="541.1545454545455"/>
      <point x="162.29090909090908" y="541.1545454545455" type="curve" smooth="yes"/>
      <point x="134.5090909090909" y="541.1545454545455"/>
      <point x="112.0090909090909" y="516.2818181818182"/>
      <point x="112.0090909090909" y="475.8727272727273" type="curve" smooth="yes"/>
      <point x="112.0090909090909" y="446.67272727272723"/>
      <point x="127.95454545454545" y="431.73636363636365"/>
    </contour>
    <contour>
      <point x="57.82727272727273" y="-6.954545454545455" type="curve" smooth="yes"/>
      <point x="82.22727272727272" y="-6.954545454545455"/>
      <point x="107.58181818181818" y="12.154545454545453"/>
      <point x="107.58181818181818" y="58.86363636363636" type="curve" smooth="yes"/>
      <point x="107.58181818181818" y="88.14545454545454"/>
      <point x="90.41818181818182" y="102.46363636363635"/>
      <point x="67.71818181818183" y="102.46363636363635" type="curve" smooth="yes"/>
      <point x="39.55454545454546" y="102.46363636363635"/>
      <point x="17.054545454545455" y="77.97272727272727"/>
      <point x="17.054545454545455" y="37.56363636363637" type="curve" smooth="yes"/>
      <point x="17.054545454545455" y="7.9818181818181815"/>
      <point x="33.38181818181818" y="-6.954545454545455"/>
    </contour>
  </outline>
</glyph>
<glyph name="semicolon" format="2">
  <advance width="216.8272727272727"/>
  <unicode hex="003B"/>
  <outline>
    <contour>
      <point x="-27.318181818181817" y="-142.63636363636365" type="line"/>
      <point x="74.89090909090909" y="-117.77272727272728"/>
      <point x="113.22727272727273" y="-48.7"/>
      <point x="113.22727272727273" y="30.381818181818183" type="curve" smooth="yes"/>
      <point x="113.22727272727273" y="75.4909090909091"/>
      <point x="90.28181818181818" y="101.85454545454546"/>
      <point x="61.71818181818181" y="101.85454545454546" type="curve" smooth="yes"/>
      <point x="35.99090909090909" y="101.85454545454546"/>
      <point x="16.936363636363637" y="84.58181818181818"/>
      <point x="16.936363636363637" y="55.2" type="curve" smooth="yes"/>
      <point x="16.936363636363637" y="13.727272727272727"/>
      <point x="61.045454545454554" y="13.418181818181818"/>
      <point x="61.045454545454554" y="-20.527272727272727" type="curve" smooth="yes"/>
      <point x="61.045454545454554" y="-60.27272727272727"/>
      <point x="33.9" y="-93.63636363636364"/>
      <point x="-25.099999999999998" y="-110.7" type="curve"/>
    </contour>
    <contour>
      <point x="152.78181818181818" y="431.73636363636365" type="curve" smooth="yes"/>
      <point x="176.8" y="431.73636363636365"/>
      <point x="202.15454545454543" y="450.8454545454545"/>
      <point x="202.15454545454543" y="497.55454545454546" type="curve" smooth="yes"/>
      <point x="202.15454545454543" y="526.8363636363637"/>
      <point x="184.9909090909091" y="541.1545454545455"/>
      <point x="162.29090909090908" y="541.1545454545455" type="curve" smooth="yes"/>
      <point x="134.5090909090909" y="541.1545454545455"/>
      <point x="112.0090909090909" y="516.2818181818182"/>
      <point x="112.0090909090909" y="475.8727272727273" type="curve" smooth="yes"/>
      <point x="112.0090909090909" y="446.67272727272723"/>
      <point x="127.95454545454545" y="431.73636363636365"/>
    </contour>
  </outline>
</glyph>
<glyph name="equal" format="2">
  <advance width="465.2"/>
  <unicode hex="003D"/>
  <outline>
    <contour>
      <point x="63.236363636363635" y="433.6727272727273" type="line"/>
      <point x="423.39090909090913" y="433.6727272727273" type="line"/>
      <point x="423.39090909090913" y="478.2" type="line"/>
      <point x="63.236363636363635" y="478.2" type="line"/>
    </contour>
    <contour>
      <point x="63.236363636363635" y="236.11818181818182" type="line"/>
      <point x="423.39090909090913" y="236.11818181818182" type="line"/>
      <point x="423.39090909090913" y="280.6454545454546" type="line"/>
      <point x="63.236363636363635" y="280.6454545454546" type="line"/>
    </contour>
  </outline>
</glyph>
<glyph name="greater" format="2">
  <advance width="465.2"/>
  <unicode hex="003E"/>
  <outline>
    <contour>
      <point x="62.64545454545455" y="113.7" type="line"/>
      <point x="424.1909090909091" y="341.8181818181818" type="line"/>
      <point x="424.1909090909091" y="373.1818181818182" type="line"/>
      <point x="62.64545454545455" y="602.3" type="line"/>
      <point x="62.64545454545455" y="550.8363636363637" type="line"/>
      <point x="365.45454545454544" y="357.0" type="line"/>
      <point x="62.64545454545455" y="165.54545454545456" type="line"/>
    </contour>
  </outline>
</glyph>
<glyph name="question" format="2">
  <advance width="409.0"/>
  <unicode hex="003F"/>
  <outline>
    <contour>
      <point x="147.66363636363639" y="187.3181818181818" type="line"/>
      <point x="185.13636363636363" y="187.3181818181818" type="line"/>
      <point x="215.9727272727273" y="318.0" type="line"/>
      <point x="339.8727272727273" y="374.54545454545456"/>
      <point x="432.55454545454546" y="447.6272727272727"/>
      <point x="432.55454545454546" y="576.4272727272727" type="curve" smooth="yes"/>
      <point x="432.55454545454546" y="670.0636363636364"/>
      <point x="375.2363636363637" y="724.0"/>
      <point x="283.8363636363636" y="724.0" type="curve" smooth="yes"/>
      <point x="178.4090909090909" y="724.0"/>
      <point x="116.96363636363635" y="656.4909090909091"/>
      <point x="116.96363636363635" y="588.1909090909091" type="curve" smooth="yes"/>
      <point x="116.96363636363635" y="560.3818181818183"/>
      <point x="133.5181818181818" y="541.990909090909"/>
      <point x="163.28181818181818" y="541.990909090909" type="curve"/>
      <point x="171.61818181818182" y="618.5363636363636"/>
      <point x="200.77272727272728" y="685.7454545454545"/>
      <point x="279.1636363636364" y="685.7454545454545" type="curve" smooth="yes"/>
      <point x="332.1272727272727" y="685.7454545454545"/>
      <point x="368.6636363636364" y="644.1181818181817"/>
      <point x="368.6636363636364" y="575.9545454545454" type="curve" smooth="yes"/>
      <point x="368.6636363636364" y="461.8636363636363"/>
      <point x="289.9727272727273" y="392.44545454545454"/>
      <point x="174.1" y="343.5" type="curve"/>
    </contour>
    <contour>
      <point x="139.43636363636367" y="-6.954545454545455" type="curve" smooth="yes"/>
      <point x="164.21818181818182" y="-6.954545454545455"/>
      <point x="189.1909090909091" y="12.154545454545453"/>
      <point x="189.1909090909091" y="58.86363636363636" type="curve" smooth="yes"/>
      <point x="189.1909090909091" y="88.14545454545454"/>
      <point x="172.4090909090909" y="102.46363636363635"/>
      <point x="149.32727272727274" y="102.46363636363635" type="curve" smooth="yes"/>
      <point x="121.54545454545453" y="102.46363636363635"/>
      <point x="99.04545454545455" y="77.97272727272727"/>
      <point x="99.04545454545455" y="37.56363636363637" type="curve" smooth="yes"/>
      <point x="99.04545454545455" y="7.9818181818181815"/>
      <point x="114.9909090909091" y="-6.954545454545455"/>
    </contour>
  </outline>
</glyph>
<glyph name="bracketleft" format="2">
  <advance width="286.43636363636364"/>
  <unicode hex="005B"/>
  <outline>
    <contour>
      <point x="-6.645454545454545" y="-128.0" type="line"/>
      <point x="164.5727272727273" y="-128.0" type="line"/>
      <point x="171.43636363636364" y="-96.38181818181819" type="line"/>
      <point x="126.76363636363638" y="-96.38181818181819" type="line" smooth="yes"/>
      <point x="90.9" y="-96.38181818181819"/>
      <point x="72.9090909090909" y="-90.97272727272727"/>
      <point x="72.9090909090909" y="-63.25454545454545" type="curve" smooth="yes"/>
      <point x="72.9090909090909" y="-54.48181818181818"/>
      <point x="74.98181818181818" y="-38.172727272727265"/>
      <point x="78.52727272727272" y="-22.945454545454545" type="curve"/>
      <point x="221.64545454545453" y="652.1090909090909" type="line"/>
      <point x="235.59999999999997" y="719.5636363636364"/>
      <point x="257.6090909090909" y="728.3818181818182"/>
      <point x="302.4" y="728.3818181818182" type="curve" smooth="yes"/>
      <point x="345.87272727272733" y="728.3818181818182" type="line"/>
      <point x="353.1181818181819" y="760.0" type="line"/>
      <point x="181.9" y="760.0" type="line"/>
    </contour>
  </outline>
</glyph>
<glyph name="backslash" format="2">
  <advance width="246.8272727272727"/>
  <unicode hex="005C"/>
  <outline>
    <contour>
      <point x="148.71818181818182" y="-121.0" type="line"/>
      <point x="189.67272727272726" y="-121.0" type="line"/>
      <point x="145.45454545454547" y="760.0" type="line"/>
      <point x="104.66363636363636" y="760.0" type="line"/>
    </contour>
  </outline>
</glyph>
<glyph name="bracketright" format="2">
  <advance width="286.43636363636364"/>
  <unicode hex="005D"/>
  <outline>
    <contour>
      <point x="-50.690909090909095" y="-128.0" type="line"/>
      <point x="120.36363636363636" y="-128.0" type="line"/>
      <point x="308.5272727272727" y="760.0" type="line"/>
      <point x="137.6909090909091" y="760.0" type="line"/>
      <point x="130.44545454545457" y="728.3818181818182" type="line"/>
      <point x="175.11818181818182" y="728.3818181818182" type="line" smooth="yes"/>
      <point x="210.6" y="728.3818181818182"/>
      <point x="229.35454545454544" y="722.9727272727273"/>
      <point x="229.35454545454544" y="695.2545454545453" type="curve" smooth="yes"/>
      <point x="229.35454545454544" y="687.0545454545455"/>
      <point x="226.5818181818182" y="670.5545454545455"/>
      <point x="223.35454545454547" y="654.9454545454546" type="curve" smooth="yes"/>
      <point x="80.23636363636365" y="-20.10909090909091" type="line"/>
      <point x="66.28181818181818" y="-87.56363636363636"/>
      <point x="44.272727272727266" y="-96.38181818181819"/>
      <point x="0.027272727272727337" y="-96.38181818181819" type="curve" smooth="yes"/>
      <point x="-43.44545454545454" y="-96.38181818181819" type="line"/>
    </contour>
  </outline>
</glyph>
<glyph name="asciicircum" format="2">
  <advance width="465.2"/>
  <unicode hex="005E"/>
  <outline>
    <contour>
      <point x="51.5" y="268.7909090909091" type="line"/>
      <point x="97.87272727272727" y="268.7909090909091" type="line"/>
      <point x="242.3" y="644.2181818181817" type="line"/>
      <point x="388.3454545454546" y="268.7909090909091" type="line"/>
      <point x="434.7181818181818" y="268.7909090909091" type="line"/>
      <point x="256.4272727272727" y="714.0" type="line"/>
      <point x="228.2" y="714.0" type="line"/>
    </contour>
  </outline>
</glyph>
<glyph name="underscore" format="2">
  <advance width="393.00909090909096"/>
  <unicode hex="005F"/>
  <outline>
    <contour>
      <point x="-81.14545454545454" y="-132.5909090909091" type="line"/>
      <point x="320.55454545454546" y="-132.5909090909091" type="line"/>
      <point x="329.91818181818184" y="-89.04545454545455" type="line"/>
      <point x="-71.78181818181817" y="-89.04545454545455" type="line"/>
    </contour>
  </outline>
</glyph>
<glyph name="braceleft" format="2">
  <advance width="361.1454545454546"/>
  <unicode hex="007B"/>
  <outline>
    <contour>
      <point x="188.01818181818183" y="-129.8181818181818" type="curve" smooth="yes"/>
      <point x="229.82727272727274" y="-129.8181818181818" type="line"/>
      <point x="237.32727272727274" y="-96.01818181818182" type="line"/>
      <point x="211.26363636363635" y="-96.01818181818182" type="line" smooth="yes"/>
      <point x="172.16363636363639" y="-96.01818181818182"/>
      <point x="156.02727272727273" y="-76.23636363636362"/>
      <point x="156.02727272727273" y="-37.06363636363636" type="curve" smooth="yes"/>
      <point x="156.02727272727273" y="-20.045454545454547"/>
      <point x="158.80000000000004" y="-2.736363636363636"/>
      <point x="162.95454545454547" y="16.981818181818184" type="curve" smooth="yes"/>
      <point x="198.57272727272726" y="180.36363636363635" type="line" smooth="yes"/>
      <point x="201.6818181818182" y="195.73636363636365"/>
      <point x="204.51818181818183" y="213.20909090909092"/>
      <point x="204.51818181818183" y="228.79090909090908" type="curve" smooth="yes"/>
      <point x="204.51818181818183" y="272.2818181818182"/>
      <point x="183.1909090909091" y="302.06363636363636"/>
      <point x="139.12727272727273" y="312.77272727272725" type="curve"/>
      <point x="139.12727272727273" y="315.6181818181818" type="line"/>
      <point x="201.6909090909091" y="327.4181818181819"/>
      <point x="237.50000000000003" y="365.4818181818182"/>
      <point x="252.09090909090907" y="434.54545454545456" type="curve" smooth="yes"/>
      <point x="290.23636363636365" y="613.3727272727274" type="line" smooth="yes"/>
      <point x="307.59090909090907" y="695.4909090909091"/>
      <point x="332.72727272727275" y="725.5636363636363"/>
      <point x="386.2" y="725.5636363636363" type="curve" smooth="yes"/>
      <point x="409.5363636363636" y="725.5636363636363" type="line"/>
      <point x="417.41818181818184" y="760.0" type="line"/>
      <point x="375.4454545454545" y="760.0" type="line" smooth="yes"/>
      <point x="287.7181818181818" y="760.0"/>
      <point x="250.85454545454544" y="717.690909090909"/>
      <point x="229.39090909090913" y="619.409090909091" type="curve" smooth="yes"/>
      <point x="189.71818181818182" y="437.22727272727275" type="line" smooth="yes"/>
      <point x="172.7909090909091" y="360.75454545454545"/>
      <point x="129.9818181818182" y="335.5727272727273"/>
      <point x="65.94545454545455" y="332.6181818181818" type="curve"/>
      <point x="58.763636363636365" y="299.42727272727274" type="line"/>
      <point x="111.98181818181817" y="296.8363636363636"/>
      <point x="141.05454545454543" y="276.8818181818182"/>
      <point x="141.05454545454543" y="228.36363636363637" type="curve" smooth="yes"/>
      <point x="141.05454545454543" y="214.96363636363634"/>
      <point x="139.1909090909091" y="199.3181818181818"/>
      <point x="135.9181818181818" y="184.61818181818182" type="curve" smooth="yes"/>
      <point x="101.50909090909092" y="22.27272727272727" type="line" smooth="yes"/>
      <point x="96.65454545454546" y="-0.6000000000000014"/>
      <point x="93.75454545454545" y="-17.963636363636365"/>
      <point x="93.75454545454545" y="-38.64545454545454" type="curve" smooth="yes"/>
      <point x="93.75454545454545" y="-95.14545454545454"/>
      <point x="125.74545454545455" y="-129.8181818181818"/>
    </contour>
  </outline>
</glyph>
<glyph name="braceright" format="2">
  <advance width="360.7636363636364"/>
  <unicode hex="007D"/>
  <outline>
    <contour>
      <point x="-33.08181818181818" y="-130.2" type="line"/>
      <point x="8.89090909090909" y="-130.2" type="line" smooth="yes"/>
      <point x="99.60909090909091" y="-130.2"/>
      <point x="134.62727272727273" y="-87.19090909090909"/>
      <point x="155.32727272727274" y="10.39090909090909" type="curve" smooth="yes"/>
      <point x="194.23636363636365" y="193.11818181818182" type="line" smooth="yes"/>
      <point x="210.61818181818182" y="269.59090909090907"/>
      <point x="254.35454545454544" y="295.7"/>
      <point x="318.0090909090909" y="298.6545454545454" type="curve"/>
      <point x="325.57272727272726" y="331.8454545454546" type="line"/>
      <point x="272.3545454545454" y="334.43636363636364"/>
      <point x="242.89999999999998" y="353.46363636363634"/>
      <point x="242.89999999999998" y="402.3636363636364" type="curve" smooth="yes"/>
      <point x="242.89999999999998" y="416.5272727272727"/>
      <point x="245.14545454545453" y="431.02727272727276"/>
      <point x="248.4181818181818" y="445.7272727272727" type="curve" smooth="yes"/>
      <point x="284.3545454545455" y="615.9272727272728" type="line" smooth="yes"/>
      <point x="288.82727272727277" y="636.890909090909"/>
      <point x="290.58181818181816" y="651.9636363636364"/>
      <point x="290.58181818181816" y="669.590909090909" type="curve" smooth="yes"/>
      <point x="290.58181818181816" y="720.3636363636364"/>
      <point x="262.0272727272727" y="760.0"/>
      <point x="198.6090909090909" y="760.0" type="curve" smooth="yes"/>
      <point x="154.5090909090909" y="760.0" type="line"/>
      <point x="147.00909090909093" y="726.2" type="line"/>
      <point x="173.0727272727273" y="726.2" type="line" smooth="yes"/>
      <point x="212.1727272727273" y="726.2"/>
      <point x="228.3090909090909" y="707.1818181818181"/>
      <point x="228.3090909090909" y="669.9181818181819" type="curve" smooth="yes"/>
      <point x="228.3090909090909" y="649.0818181818182"/>
      <point x="225.53636363636363" y="632.5363636363636"/>
      <point x="221.38181818181818" y="612.8181818181818" type="curve" smooth="yes"/>
      <point x="185.76363636363638" y="449.2181818181818" type="line" smooth="yes"/>
      <point x="182.65454545454543" y="433.8454545454546"/>
      <point x="179.8181818181818" y="417.1363636363636"/>
      <point x="179.8181818181818" y="401.93636363636364" type="curve" smooth="yes"/>
      <point x="179.8181818181818" y="358.4454545454545"/>
      <point x="200.76363636363638" y="329.59090909090907"/>
      <point x="244.82727272727269" y="318.5" type="curve"/>
      <point x="244.82727272727269" y="315.27272727272725" type="line"/>
      <point x="182.64545454545453" y="303.4727272727273"/>
      <point x="146.45454545454544" y="264.8636363636364"/>
      <point x="131.86363636363635" y="196.1818181818182" type="curve" smooth="yes"/>
      <point x="92.95454545454545" y="13.754545454545454" type="line" smooth="yes"/>
      <point x="75.60000000000001" y="-66.51818181818183"/>
      <point x="52.690909090909095" y="-95.76363636363637"/>
      <point x="-1.2272727272727275" y="-95.76363636363637" type="curve" smooth="yes"/>
      <point x="-25.581818181818182" y="-95.76363636363637" type="line"/>
    </contour>
  </outline>
</glyph>
<glyph name="asciitilde" format="2">
  <advance width="465.2"/>
  <unicode hex="007E"/>
  <outline>
    <contour>
      <point x="54.790909090909096" y="273.0181818181818" type="curve"/>
      <point x="98.06363636363636" y="273.0181818181818" type="line"/>
      <point x="107.0" y="352.93636363636364"/>
      <point x="119.7" y="397.3"/>
      <point x="157.3909090909091" y="397.3" type="curve" smooth="yes"/>
      <point x="183.5727272727273" y="397.3"/>
      <point x="201.07272727272726" y="375.91818181818184"/>
      <point x="232.03636363636363" y="338.23636363636365" type="curve" smooth="yes"/>
      <point x="271.0363636363636" y="290.8545454545454"/>
      <point x="297.54545454545456" y="273.3363636363636"/>
      <point x="332.7818181818182" y="273.3363636363636" type="curve" smooth="yes"/>
      <point x="407.6363636363637" y="273.3363636363636"/>
      <point x="425.2454545454545" y="368.6272727272727"/>
      <point x="432.8909090909091" y="440.04545454545456" type="curve"/>
      <point x="389.3181818181818" y="440.04545454545456" type="line"/>
      <point x="380.1909090909091" y="363.50909090909096"/>
      <point x="368.6727272727273" y="316.4"/>
      <point x="331.41818181818184" y="316.4" type="curve" smooth="yes"/>
      <point x="307.6363636363636" y="316.4"/>
      <point x="288.97272727272724" y="335.91818181818184"/>
      <point x="258.0" y="373.0" type="curve" smooth="yes"/>
      <point x="221.42727272727276" y="415.3545454545454"/>
      <point x="195.6" y="440.3636363636364"/>
      <point x="155.86363636363635" y="440.3636363636364" type="curve" smooth="yes"/>
      <point x="79.2909090909091" y="440.3636363636364"/>
      <point x="62.81818181818182" y="347.7363636363637"/>
    </contour>
  </outline>
</glyph>
<glyph name="twosuperior" format="2">
  <advance width="339.6818181818182"/>
  <unicode hex="00B2"/>
  <outline>
    <contour>
      <point x="60.599999999999994" y="386.1363636363636" type="line"/>
      <point x="309.0181818181818" y="386.1363636363636" type="line"/>
      <point x="334.90909090909093" y="491.2181818181818" type="line"/>
      <point x="309.2909090909091" y="491.2181818181818" type="line"/>
      <point x="302.6727272727273" y="471.58181818181816" type="line" smooth="yes"/>
      <point x="292.32727272727277" y="439.44545454545454"/>
      <point x="284.0" y="427.1272727272727"/>
      <point x="251.88181818181818" y="427.1272727272727" type="curve" smooth="yes"/>
      <point x="127.75454545454544" y="427.1272727272727" type="line"/>
      <point x="228.4727272727273" y="520.5909090909091" type="line" smooth="yes"/>
      <point x="331.04545454545456" y="615.8545454545455"/>
      <point x="362.90909090909093" y="664.6909090909091"/>
      <point x="362.90909090909093" y="726.9818181818182" type="curve" smooth="yes"/>
      <point x="362.90909090909093" y="785.2181818181818"/>
      <point x="322.71818181818185" y="822.8636363636364"/>
      <point x="256.7545454545455" y="822.8636363636364" type="curve" smooth="yes"/>
      <point x="176.6" y="822.8636363636364"/>
      <point x="130.23636363636365" y="766.7454545454545"/>
      <point x="130.23636363636365" y="723.8363636363637" type="curve" smooth="yes"/>
      <point x="130.23636363636365" y="700.1727272727272"/>
      <point x="143.71818181818182" y="686.0727272727273"/>
      <point x="170.53636363636366" y="686.0727272727273" type="curve"/>
      <point x="174.35454545454547" y="741.6272727272727"/>
      <point x="203.24545454545452" y="790.0"/>
      <point x="252.23636363636368" y="790.0" type="curve" smooth="yes"/>
      <point x="288.95454545454544" y="790.0"/>
      <point x="309.75454545454545" y="765.3454545454545"/>
      <point x="309.75454545454545" y="724.1363636363636" type="curve" smooth="yes"/>
      <point x="309.75454545454545" y="663.1636363636363"/>
      <point x="278.54545454545456" y="614.2818181818183"/>
      <point x="190.5818181818182" y="529.5727272727272" type="curve" smooth="yes"/>
      <point x="66.67272727272729" y="410.8636363636364" type="line"/>
    </contour>
  </outline>
</glyph>
<glyph name="threesuperior" format="2">
  <advance width="339.6818181818182"/>
  <unicode hex="00B3"/>
  <outline>
    <contour>
      <point x="186.19090909090906" y="379.3636363636364" type="curve" smooth="yes"/>
      <point x="276.89090909090913" y="379.3636363636364"/>
      <point x="344.9" y="430.8545454545454"/>
      <point x="344.9" y="516.0" type="curve" smooth="yes"/>
      <point x="344.9" y="566.2272727272727"/>
      <point x="314.41818181818184" y="602.0181818181818"/>
      <point x="266.0363636363636" y="609.8363636363637" type="curve"/>
      <point x="265.8818181818182" y="612.5272727272727" type="line"/>
      <point x="331.09090909090907" y="627.1090909090909"/>
      <point x="375.6090909090909" y="665.3090909090909"/>
      <point x="375.6090909090909" y="731.709090909091" type="curve" smooth="yes"/>
      <point x="375.6090909090909" y="784.0818181818181"/>
      <point x="337.24545454545455" y="822.7272727272727"/>
      <point x="265.5" y="822.7272727272727" type="curve" smooth="yes"/>
      <point x="183.53636363636363" y="822.7272727272727"/>
      <point x="134.47272727272727" y="777.9181818181819"/>
      <point x="134.47272727272727" y="731.4636363636364" type="curve" smooth="yes"/>
      <point x="134.47272727272727" y="704.9818181818182"/>
      <point x="149.9090909090909" y="697.9090909090909"/>
      <point x="175.4272727272727" y="697.9090909090909" type="curve"/>
      <point x="182.21818181818182" y="753.0454545454546"/>
      <point x="209.20909090909095" y="789.4818181818182"/>
      <point x="261.56363636363636" y="789.4818181818182" type="curve" smooth="yes"/>
      <point x="298.2090909090909" y="789.4818181818182"/>
      <point x="320.5181818181818" y="767.2909090909092"/>
      <point x="320.5181818181818" y="730.0454545454545" type="curve" smooth="yes"/>
      <point x="320.5181818181818" y="669.4272727272728"/>
      <point x="274.58181818181816" y="626.590909090909"/>
      <point x="206.0909090909091" y="626.590909090909" type="curve" smooth="yes"/>
      <point x="176.79090909090908" y="626.590909090909" type="line"/>
      <point x="170.15454545454546" y="593.5636363636364" type="line"/>
      <point x="198.5727272727273" y="593.5636363636364" type="line" smooth="yes"/>
      <point x="262.57272727272726" y="593.5636363636364"/>
      <point x="290.3272727272727" y="561.7181818181817"/>
      <point x="290.3272727272727" y="514.4454545454545" type="curve" smooth="yes"/>
      <point x="290.3272727272727" y="448.2"/>
      <point x="247.17272727272726" y="414.9545454545455"/>
      <point x="190.87272727272727" y="414.9545454545455" type="curve" smooth="yes"/>
      <point x="133.79090909090908" y="414.9545454545455"/>
      <point x="111.9909090909091" y="452.3454545454546"/>
      <point x="115.43636363636364" y="507.09090909090907" type="curve"/>
      <point x="91.41818181818182" y="507.09090909090907"/>
      <point x="74.31818181818181" y="489.91818181818184"/>
      <point x="74.31818181818181" y="462.43636363636364" type="curve" smooth="yes"/>
      <point x="74.31818181818181" y="411.9909090909091"/>
      <point x="112.86363636363636" y="379.3636363636364"/>
    </contour>
  </outline>
</glyph>
<glyph name="multiply" format="2">
  <advance width="465.2"/>
  <unicode hex="00D7"/>
  <outline>
    <contour>
      <point x="98.86363636363636" y="149.4272727272727" type="line"/>
      <point x="246.6727272727273" y="325.73636363636365" type="line"/>
      <point x="394.1" y="149.4272727272727" type="line"/>
      <point x="427.43636363636364" y="177.9818181818182" type="line"/>
      <point x="275.3636363636364" y="359.4545454545455" type="line"/>
      <point x="427.43636363636364" y="541.3181818181818" type="line"/>
      <point x="394.55454545454546" y="569.8545454545455" type="line"/>
      <point x="246.6727272727273" y="393.87272727272733" type="line"/>
      <point x="98.54545454545455" y="569.9363636363636" type="line"/>
      <point x="65.66363636363636" y="541.5636363636364" type="line"/>
      <point x="218.11818181818185" y="359.6181818181818" type="line"/>
      <point x="65.8" y="177.9" type="line"/>
    </contour>
  </outline>
</glyph>
<glyph name="divide" format="2">
  <advance width="465.2"/>
  <unicode hex="00F7"/>
  <outline>
    <contour>
      <point x="62.64545454545455" y="335.5181818181818" type="line"/>
      <point x="424.1909090909091" y="335.5181818181818" type="line"/>
      <point x="424.1909090909091" y="379.6636363636364" type="line"/>
      <point x="62.64545454545455" y="379.6636363636364" type="line"/>
    </contour>
    <contour>
      <point x="244.3" y="123.65454545454546" type="curve" smooth="yes"/>
      <point x="266.07272727272726" y="123.65454545454546"/>
      <point x="283.8818181818182" y="135.33636363636361"/>
      <point x="283.8818181818182" y="170.45454545454547" type="curve" smooth="yes"/>
      <point x="283.8818181818182" y="207.02727272727273"/>
      <point x="266.07272727272726" y="218.02727272727273"/>
      <point x="244.3" y="218.02727272727273" type="curve" smooth="yes"/>
      <point x="220.76363636363635" y="218.02727272727273"/>
      <point x="204.65454545454546" y="207.02727272727273"/>
      <point x="204.65454545454546" y="170.45454545454547" type="curve" smooth="yes"/>
      <point x="204.65454545454546" y="135.33636363636361"/>
      <point x="220.76363636363635" y="123.65454545454546"/>
    </contour>
    <contour>
      <point x="244.3" y="498.2454545454545" type="curve" smooth="yes"/>
      <point x="266.07272727272726" y="498.2454545454545"/>
      <point x="283.8818181818182" y="509.92727272727274"/>
      <point x="283.8818181818182" y="545.1818181818182" type="curve" smooth="yes"/>
      <point x="283.8818181818182" y="581.6181818181817"/>
      <point x="266.07272727272726" y="592.6181818181817"/>
      <point x="244.3" y="592.6181818181817" type="curve" smooth="yes"/>
      <point x="220.76363636363635" y="592.6181818181817"/>
      <point x="204.65454545454546" y="581.6181818181817"/>
      <point x="204.65454545454546" y="545.1818181818182" type="curve" smooth="yes"/>
      <point x="204.65454545454546" y="509.92727272727274"/>
      <point x="220.76363636363635" y="498.2454545454545"/>
    </contour>
  </outline>
</glyph>
<glyph name="udatta-deva" format="2">
  <unicode hex="0951"/>
  <anchor x="57.63636363636363" y="548.5454545454545" name="_vedic"/>
  <outline>
    <contour>
      <point x="115.28181818181818" y="910.0454545454546" type="line"/>
      <point x="154.4818181818182" y="910.0454545454546" type="line"/>
      <point x="194.5727272727273" y="1100.0454545454545" type="line"/>
      <point x="155.37272727272725" y="1100.0454545454545" type="line"/>
    </contour>
  </outline>
</glyph>
<glyph name="anudatta-deva" format="2">
  <unicode hex="0952"/>
  <anchor x="-59.0" y="0.0" name="_bottom"/>
  <outline>
    <contour>
      <point x="-354.1454545454545" y="-493.60909090909087" type="line"/>
      <point x="26.554545454545455" y="-493.60909090909087" type="line"/>
      <point x="36.78181818181818" y="-446.1545454545455" type="line"/>
      <point x="-344.23636363636365" y="-446.1545454545455" type="line"/>
    </contour>
  </outline>
</glyph>
<glyph name="danda-deva" format="2">
  <advance width="255.94545454545454"/>
  <unicode hex="0964"/>
  <outline>
    <contour>
      <point x="39.07272727272726" y="0.0" type="line"/>
      <point x="100.61818181818181" y="0.0" type="line"/>
      <point x="217.5727272727273" y="548.5454545454545" type="line"/>
      <point x="155.3272727272727" y="548.5454545454545" type="line"/>
    </contour>
  </outline>
</glyph>
<glyph name="dbldanda-deva" format="2">
  <advance width="460.22727272727275"/>
  <unicode hex="0965"/>
  <outline>
    <contour>
      <point x="243.21818181818182" y="0.0" type="line"/>
      <point x="304.90000000000003" y="0.0" type="line"/>
      <point x="421.53636363636366" y="548.5454545454545" type="line"/>
      <point x="359.47272727272724" y="548.5454545454545" type="line"/>
    </contour>
    <contour>
      <point x="39.07272727272726" y="0.0" type="line"/>
      <point x="100.61818181818181" y="0.0" type="line"/>
      <point x="217.5727272727273" y="548.5454545454545" type="line"/>
      <point x="155.3272727272727" y="548.5454545454545" type="line"/>
    </contour>
  </outline>
</glyph>
<glyph name="anusvara-tamil" format="2">
  <unicode hex="0B82"/>
  <note>
uni0B82
</note>
  <anchor x="57.63636363636363" y="548.5454545454545" name="_top"/>
  <outline>
    <contour>
      <point x="99.15454545454546" y="640.7272727272727" type="curve" smooth="yes"/>
      <point x="157.7" y="640.7272727272727"/>
      <point x="199.3" y="681.6727272727272"/>
      <point x="199.3" y="739.6909090909091" type="curve" smooth="yes"/>
      <point x="199.3" y="797.3545454545454"/>
      <point x="157.7" y="839.0"/>
      <point x="99.15454545454546" y="839.0" type="curve" smooth="yes"/>
      <point x="40.60909090909091" y="839.0"/>
      <point x="-0.9909090909090912" y="797.3545454545454"/>
      <point x="-0.9909090909090912" y="739.6909090909091" type="curve" smooth="yes"/>
      <point x="-0.9909090909090912" y="681.6727272727272"/>
      <point x="40.60909090909091" y="640.7272727272727"/>
    </contour>
    <contour>
      <point x="99.15454545454546" y="681.409090909091" type="curve" smooth="yes"/>
      <point x="65.74545454545454" y="681.409090909091"/>
      <point x="42.98181818181818" y="705.7363636363636"/>
      <point x="42.98181818181818" y="739.6909090909091" type="curve" smooth="yes"/>
      <point x="42.98181818181818" y="773.6727272727272"/>
      <point x="65.74545454545454" y="798.3181818181819"/>
      <point x="99.15454545454546" y="798.3181818181819" type="curve" smooth="yes"/>
      <point x="132.56363636363633" y="798.3181818181819"/>
      <point x="155.32727272727274" y="773.6727272727272"/>
      <point x="155.32727272727274" y="739.6909090909091" type="curve" smooth="yes"/>
      <point x="155.32727272727274" y="705.7363636363636"/>
      <point x="132.56363636363633" y="681.409090909091"/>
    </contour>
  </outline>
</glyph>
<glyph name="visarga-tamil" format="2">
  <advance width="715.7818181818183"/>
  <unicode hex="0B83"/>
  <note>
uni0B83
</note>
  <outline>
    <contour>
      <point x="131.9818181818182" y="0.0" type="curve" smooth="yes"/>
      <point x="232.09999999999997" y="0.0"/>
      <point x="300.54545454545456" y="112.23636363636363"/>
      <point x="300.92727272727274" y="231.1909090909091" type="curve" smooth="yes"/>
      <point x="301.30909090909097" y="316.72727272727275"/>
      <point x="258.72727272727275" y="365.8181818181818"/>
      <point x="192.4" y="365.8181818181818" type="curve" smooth="yes"/>
      <point x="90.2" y="365.8181818181818"/>
      <point x="28.99090909090909" y="239.50000000000003"/>
      <point x="28.99090909090909" y="129.6" type="curve" smooth="yes"/>
      <point x="28.99090909090909" y="53.33636363636364"/>
      <point x="65.63636363636364" y="0.0"/>
    </contour>
    <contour>
      <point x="131.12727272727275" y="40.45454545454545" type="curve" smooth="yes"/>
      <point x="85.91818181818182" y="40.45454545454545"/>
      <point x="65.7909090909091" y="78.03636363636365"/>
      <point x="65.7909090909091" y="132.4909090909091" type="curve" smooth="yes"/>
      <point x="65.7909090909091" y="214.83636363636361"/>
      <point x="109.2" y="325.9818181818182"/>
      <point x="183.32727272727274" y="325.9818181818182" type="curve" smooth="yes"/>
      <point x="228.20909090909092" y="325.9818181818182"/>
      <point x="251.66363636363636" y="292.5272727272727"/>
      <point x="251.66363636363636" y="235.06363636363636" type="curve" smooth="yes"/>
      <point x="251.66363636363636" y="144.20909090909092"/>
      <point x="207.26363636363635" y="40.45454545454545"/>
    </contour>
    <contour>
      <point x="477.48181818181826" y="0.0" type="curve" smooth="yes"/>
      <point x="577.6" y="0.0"/>
      <point x="646.0454545454545" y="112.23636363636363"/>
      <point x="646.4272727272727" y="231.1909090909091" type="curve" smooth="yes"/>
      <point x="646.8090909090909" y="316.72727272727275"/>
      <point x="604.2272727272726" y="365.8181818181818"/>
      <point x="537.9" y="365.8181818181818" type="curve" smooth="yes"/>
      <point x="435.69999999999993" y="365.8181818181818"/>
      <point x="374.4909090909091" y="239.50000000000003"/>
      <point x="374.4909090909091" y="129.6" type="curve" smooth="yes"/>
      <point x="374.4909090909091" y="53.33636363636364"/>
      <point x="411.1363636363636" y="0.0"/>
    </contour>
    <contour>
      <point x="476.62727272727267" y="40.45454545454545" type="curve" smooth="yes"/>
      <point x="431.41818181818184" y="40.45454545454545"/>
      <point x="411.29090909090905" y="78.03636363636365"/>
      <point x="411.29090909090905" y="132.4909090909091" type="curve" smooth="yes"/>
      <point x="411.29090909090905" y="214.83636363636361"/>
      <point x="454.7" y="325.9818181818182"/>
      <point x="528.8272727272728" y="325.9818181818182" type="curve" smooth="yes"/>
      <point x="573.709090909091" y="325.9818181818182"/>
      <point x="597.1636363636364" y="292.5272727272727"/>
      <point x="597.1636363636364" y="235.06363636363636" type="curve" smooth="yes"/>
      <point x="597.1636363636364" y="144.20909090909092"/>
      <point x="552.7636363636364" y="40.45454545454545"/>
    </contour>
    <contour>
      <point x="388.20909090909095" y="408.3636363636364" type="curve" smooth="yes"/>
      <point x="488.3272727272727" y="408.3636363636364"/>
      <point x="556.7727272727273" y="520.6"/>
      <point x="557.1545454545455" y="639.5545454545455" type="curve" smooth="yes"/>
      <point x="557.5363636363636" y="725.090909090909"/>
      <point x="514.9545454545455" y="774.1818181818181"/>
      <point x="448.6272727272727" y="774.1818181818181" type="curve" smooth="yes"/>
      <point x="346.42727272727274" y="774.1818181818181"/>
      <point x="285.2181818181818" y="647.8636363636364"/>
      <point x="285.2181818181818" y="537.9636363636364" type="curve" smooth="yes"/>
      <point x="285.2181818181818" y="461.7"/>
      <point x="321.8636363636363" y="408.3636363636364"/>
    </contour>
    <contour>
      <point x="387.3545454545455" y="448.81818181818187" type="curve" smooth="yes"/>
      <point x="342.1454545454546" y="448.81818181818187"/>
      <point x="322.0181818181818" y="486.4"/>
      <point x="322.0181818181818" y="540.8545454545455" type="curve" smooth="yes"/>
      <point x="322.0181818181818" y="623.2"/>
      <point x="365.4272727272727" y="734.3454545454545"/>
      <point x="439.55454545454546" y="734.3454545454545" type="curve" smooth="yes"/>
      <point x="484.43636363636364" y="734.3454545454545"/>
      <point x="507.89090909090913" y="700.8909090909091"/>
      <point x="507.89090909090913" y="643.4272727272728" type="curve" smooth="yes"/>
      <point x="507.89090909090913" y="552.5727272727272"/>
      <point x="463.4909090909091" y="448.81818181818187"/>
    </contour>
  </outline>
</glyph>
<glyph name="a-tamil" format="2">
  <advance width="1041.8272727272729"/>
  <unicode hex="0B85"/>
  <note>
uni0B85
</note>
  <anchor x="445.8545454545454" y="0.0" name="bottom"/>
  <anchor x="284.07272727272726" y="-103.36363636363637" name="nukta"/>
  <anchor x="561.3000000000001" y="548.5454545454545" name="top"/>
  <anchor x="562.3818181818182" y="548.5454545454545" name="vedic"/>
  <outline>
    <contour>
      <point x="794.9545454545455" y="-168.3181818181818" type="line"/>
      <point x="856.6363636363636" y="-168.3181818181818" type="line"/>
      <point x="1009.3545454545455" y="548.8181818181819" type="line"/>
      <point x="947.3545454545454" y="548.8181818181819" type="line"/>
      <point x="866.290909090909" y="167.40909090909093" type="line"/>
      <point x="70.69090909090909" y="167.40909090909093" type="line" smooth="yes"/>
      <point x="20.78181818181818" y="167.40909090909093"/>
      <point x="-3.3636363636363638" y="135.21818181818182"/>
      <point x="-3.3636363636363638" y="89.05454545454545" type="curve" smooth="yes"/>
      <point x="-3.3636363636363638" y="5.8181818181818175"/>
      <point x="107.28181818181817" y="-103.09090909090908"/>
      <point x="291.16363636363633" y="-103.09090909090908" type="curve" smooth="yes"/>
      <point x="557.3636363636364" y="-103.09090909090908"/>
      <point x="753.8636363636364" y="59.63636363636364"/>
      <point x="753.8636363636364" y="319.5636363636363" type="curve" smooth="yes"/>
      <point x="753.8636363636364" y="470.91818181818184"/>
      <point x="660.4272727272728" y="555.6363636363636"/>
      <point x="533.2272727272726" y="555.6363636363636" type="curve" smooth="yes"/>
      <point x="413.12727272727267" y="555.6363636363636"/>
      <point x="322.7636363636364" y="474.09090909090907"/>
      <point x="322.7636363636364" y="364.92727272727274" type="curve" smooth="yes"/>
      <point x="322.7636363636364" y="306.9636363636364"/>
      <point x="358.92727272727274" y="255.90909090909093"/>
      <point x="425.25454545454545" y="255.90909090909093" type="curve" smooth="yes"/>
      <point x="506.8181818181818" y="255.90909090909093"/>
      <point x="559.3909090909092" y="315.6545454545454"/>
      <point x="559.3909090909092" y="401.1818181818182" type="curve" smooth="yes"/>
      <point x="559.3909090909092" y="455.09090909090907"/>
      <point x="529.5363636363636" y="508.4636363636364"/>
      <point x="489.7" y="525.7818181818182" type="curve"/>
      <point x="452.9272727272727" y="523.7181818181817" type="line"/>
      <point x="486.55454545454546" y="500.2636363636363"/>
      <point x="504.9363636363637" y="455.04545454545456"/>
      <point x="504.9363636363637" y="410.3181818181818" type="curve" smooth="yes"/>
      <point x="504.9363636363637" y="348.5"/>
      <point x="475.0090909090909" y="296.72727272727275"/>
      <point x="419.62727272727267" y="296.72727272727275" type="curve" smooth="yes"/>
      <point x="383.2090909090909" y="296.72727272727275"/>
      <point x="362.3818181818182" y="328.42727272727274"/>
      <point x="362.3818181818182" y="368.08181818181816" type="curve" smooth="yes"/>
      <point x="362.3818181818182" y="449.2727272727273"/>
      <point x="428.41818181818184" y="515.2727272727273"/>
      <point x="524.1818181818182" y="515.2727272727273" type="curve" smooth="yes"/>
      <point x="623.6363636363636" y="515.2727272727273"/>
      <point x="690.8818181818183" y="442.30909090909086"/>
      <point x="690.8818181818183" y="317.3636363636363" type="curve" smooth="yes"/>
      <point x="690.8818181818183" y="95.80909090909091"/>
      <point x="525.6636363636364" y="-61.81818181818182"/>
      <point x="294.5" y="-61.81818181818182" type="curve" smooth="yes"/>
      <point x="137.3090909090909" y="-61.81818181818182"/>
      <point x="38.95454545454545" y="26.118181818181817"/>
      <point x="38.95454545454545" y="91.52727272727272" type="curve" smooth="yes"/>
      <point x="38.95454545454545" y="114.2090909090909"/>
      <point x="50.690909090909095" y="127.5"/>
      <point x="72.60909090909091" y="127.5" type="curve" smooth="yes"/>
      <point x="858.0181818181818" y="127.5" type="line"/>
    </contour>
  </outline>
</glyph>
<glyph name="aa-tamil" format="2">
  <advance width="1151.209090909091"/>
  <unicode hex="0B86"/>
  <note>
uni0B86
</note>
  <anchor x="502.9363636363636" y="0.0" name="bottom"/>
  <anchor x="278.6090909090909" y="-103.36363636363637" name="nukta"/>
  <anchor x="626.8090909090909" y="548.5454545454545" name="top"/>
  <anchor x="627.1636363636364" y="548.5454545454545" name="vedic"/>
  <outline>
    <contour>
      <point x="660.4727272727273" y="-404.97272727272724" type="curve" smooth="yes"/>
      <point x="842.1727272727272" y="-404.97272727272724"/>
      <point x="1053.218181818182" y="-261.92727272727274"/>
      <point x="1053.218181818182" y="-75.89090909090909" type="curve" smooth="yes"/>
      <point x="1053.218181818182" y="-7.909090909090907"/>
      <point x="1018.3272727272725" y="25.0"/>
      <point x="968.9636363636365" y="25.0" type="curve" smooth="yes"/>
      <point x="918.0090909090909" y="25.0"/>
      <point x="874.1545454545454" y="-20.790909090909093"/>
      <point x="852.1090909090909" y="-98.47272727272728" type="curve"/>
      <point x="867.0454545454546" y="-108.03636363636365" type="line"/>
      <point x="879.7818181818183" y="-53.93636363636363"/>
      <point x="909.2454545454545" y="-29.545454545454543"/>
      <point x="941.8181818181818" y="-29.545454545454543" type="curve" smooth="yes"/>
      <point x="970.290909090909" y="-29.545454545454543"/>
      <point x="990.209090909091" y="-47.64545454545454"/>
      <point x="990.209090909091" y="-87.17272727272729" type="curve" smooth="yes"/>
      <point x="990.209090909091" y="-241.01818181818183"/>
      <point x="810.7272727272727" y="-362.92727272727274"/>
      <point x="661.5727272727272" y="-362.92727272727274" type="curve" smooth="yes"/>
      <point x="585.7090909090908" y="-362.92727272727274"/>
      <point x="542.1454545454546" y="-333.25454545454545"/>
      <point x="542.1454545454546" y="-278.77272727272725" type="curve" smooth="yes"/>
      <point x="542.1454545454546" y="-227.77272727272728"/>
      <point x="582.4" y="-196.79090909090908"/>
      <point x="643.7636363636362" y="-176.2" type="curve"/>
      <point x="633.8181818181818" y="-137.5090909090909" type="line"/>
      <point x="553.9181818181819" y="-164.4090909090909"/>
      <point x="499.03636363636366" y="-207.3181818181818"/>
      <point x="499.03636363636366" y="-283.26363636363635" type="curve" smooth="yes"/>
      <point x="499.03636363636366" y="-356.6272727272727"/>
      <point x="559.9363636363636" y="-404.97272727272724"/>
    </contour>
    <component base="a-tamil"/>
  </outline>
</glyph>
<glyph name="i-tamil" format="2">
  <advance width="803.5727272727273"/>
  <unicode hex="0B87"/>
  <note>
uni0B87
</note>
  <anchor x="327.7818181818182" y="0.0" name="bottom"/>
  <anchor x="274.80909090909086" y="-257.2090909090909" name="nukta"/>
  <anchor x="474.8636363636364" y="800.1545454545454" name="top"/>
  <anchor x="428.7818181818182" y="548.5454545454545" name="vedic"/>
  <outline>
    <contour>
      <point x="89.78181818181817" y="-288.3636363636364" type="curve" smooth="yes"/>
      <point x="344.1454545454546" y="-288.3636363636364"/>
      <point x="611.5545454545454" y="63.54545454545455"/>
      <point x="611.5545454545454" y="346.74545454545455" type="curve" smooth="yes"/>
      <point x="611.5545454545454" y="481.58181818181816"/>
      <point x="538.9" y="555.3636363636364"/>
      <point x="426.40909090909093" y="555.3636363636364" type="curve" smooth="yes"/>
      <point x="317.0727272727273" y="555.3636363636364"/>
      <point x="232.3272727272727" y="466.00909090909096"/>
      <point x="232.3272727272727" y="361.31818181818187" type="curve" smooth="yes"/>
      <point x="232.3272727272727" y="301.1363636363636"/>
      <point x="269.6818181818182" y="256.1818181818182"/>
      <point x="330.99090909090916" y="256.1818181818182" type="curve" smooth="yes"/>
      <point x="407.6272727272727" y="256.1818181818182"/>
      <point x="462.04545454545456" y="317.7181818181818"/>
      <point x="462.04545454545456" y="399.55454545454546" type="curve" smooth="yes"/>
      <point x="462.04545454545456" y="455.7181818181818"/>
      <point x="437.92727272727274" y="503.3"/>
      <point x="395.57272727272726" y="525.1818181818181" type="curve"/>
      <point x="358.55454545454546" y="520.5090909090909" type="line"/>
      <point x="391.6636363636364" y="496.08181818181816"/>
      <point x="409.3545454545454" y="457.7818181818182"/>
      <point x="409.3545454545454" y="410.8545454545455" type="curve" smooth="yes"/>
      <point x="409.3545454545454" y="351.75454545454545"/>
      <point x="378.0181818181818" y="296.23636363636365"/>
      <point x="324.3818181818182" y="296.23636363636365" type="curve" smooth="yes"/>
      <point x="293.1" y="296.23636363636365"/>
      <point x="271.60909090909087" y="323.8909090909091"/>
      <point x="271.60909090909087" y="363.5727272727273" type="curve" smooth="yes"/>
      <point x="271.60909090909087" y="441.2"/>
      <point x="330.02727272727276" y="515.0"/>
      <point x="416.95454545454544" y="515.0" type="curve" smooth="yes"/>
      <point x="503.8090909090909" y="515.0"/>
      <point x="551.9272727272727" y="453.3454545454546"/>
      <point x="551.9272727272727" y="349.0363636363636" type="curve" smooth="yes"/>
      <point x="551.9272727272727" y="93.11818181818181"/>
      <point x="320.73636363636365" y="-247.0909090909091"/>
      <point x="95.44545454545455" y="-247.0909090909091" type="curve" smooth="yes"/>
      <point x="33.74545454545455" y="-247.0909090909091"/>
      <point x="1.0727272727272732" y="-211.78181818181818"/>
      <point x="1.0727272727272732" y="-156.94545454545457" type="curve" smooth="yes"/>
      <point x="1.0727272727272732" y="-25.79090909090909"/>
      <point x="156.7818181818182" y="67.45454545454545"/>
      <point x="318.7545454545455" y="67.45454545454545" type="curve" smooth="yes"/>
      <point x="461.4545454545455" y="67.45454545454545"/>
      <point x="595.7545454545456" y="-7.790909090909093"/>
      <point x="595.7545454545456" y="-124.2909090909091" type="curve" smooth="yes"/>
      <point x="595.7545454545456" y="-205.11818181818182"/>
      <point x="544.7272727272727" y="-247.0909090909091"/>
      <point x="463.1090909090909" y="-247.0909090909091" type="curve" smooth="yes"/>
      <point x="294.8090909090909" y="-247.0909090909091"/>
      <point x="118.74545454545455" y="12.20909090909091"/>
      <point x="118.74545454545455" y="295.56363636363636" type="curve" smooth="yes"/>
      <point x="118.74545454545455" y="533.3545454545455"/>
      <point x="231.3636363636364" y="737.3545454545455"/>
      <point x="464.72727272727275" y="737.3545454545455" type="curve" smooth="yes"/>
      <point x="658.8454545454546" y="737.3545454545455"/>
      <point x="769.2090909090908" y="595.9636363636364"/>
      <point x="718.6272727272727" y="357.75454545454545" type="curve" smooth="yes"/>
      <point x="663.0545454545455" y="96.0" type="line"/>
      <point x="704.2272727272727" y="96.0" type="line"/>
      <point x="760.5" y="360.0454545454545" type="line" smooth="yes"/>
      <point x="818.6090909090909" y="631.609090909091"/>
      <point x="699.7181818181818" y="800.1545454545454"/>
      <point x="474.8636363636364" y="800.1545454545454" type="curve" smooth="yes"/>
      <point x="214.74545454545455" y="800.1545454545454"/>
      <point x="74.8" y="571.4818181818181"/>
      <point x="74.8" y="297.6545454545454" type="curve" smooth="yes"/>
      <point x="74.8" y="-5.518181818181817"/>
      <point x="261.6818181818182" y="-288.3636363636364"/>
      <point x="470.7272727272727" y="-288.3636363636364" type="curve" smooth="yes"/>
      <point x="569.4" y="-288.3636363636364"/>
      <point x="641.2454545454545" y="-231.87272727272727"/>
      <point x="641.2454545454545" y="-123.56363636363636" type="curve" smooth="yes"/>
      <point x="641.2454545454545" y="20.40909090909091"/>
      <point x="491.0" y="107.72727272727273"/>
      <point x="320.57272727272726" y="107.72727272727273" type="curve" smooth="yes"/>
      <point x="132.92727272727274" y="107.72727272727273"/>
      <point x="-45.58181818181818" y="-4.4454545454545435"/>
      <point x="-45.58181818181818" y="-164.5" type="curve" smooth="yes"/>
      <point x="-45.58181818181818" y="-238.26363636363638"/>
      <point x="6.363636363636365" y="-288.3636363636364"/>
    </contour>
  </outline>
</glyph>
<glyph name="ii-tamil" format="2">
  <advance width="622.2272727272727"/>
  <unicode hex="0B88"/>
  <note>
uni0B88
</note>
  <anchor x="270.1181818181818" y="0.0" name="bottom"/>
  <anchor x="270.6363636363636" y="0.0" name="nukta"/>
  <anchor x="389.1454545454546" y="548.5454545454545" name="top"/>
  <anchor x="389.5272727272727" y="548.5454545454545" name="vedic"/>
  <outline>
    <contour>
      <point x="32.9909090909091" y="0.0" type="line"/>
      <point x="75.10909090909091" y="0.0" type="line"/>
      <point x="182.92727272727276" y="508.6363636363636" type="line"/>
      <point x="408.80909090909097" y="508.6363636363636" type="line"/>
      <point x="300.37272727272733" y="0.0" type="line"/>
      <point x="362.6909090909091" y="0.0" type="line"/>
      <point x="470.50909090909096" y="508.6363636363636" type="line"/>
      <point x="628.6272727272727" y="508.6363636363636" type="line"/>
      <point x="637.4454545454545" y="548.5454545454545" type="line"/>
      <point x="149.56363636363636" y="548.5454545454545" type="line"/>
    </contour>
    <contour>
      <point x="241.6090909090909" y="220.6909090909091" type="curve" smooth="yes"/>
      <point x="265.9090909090909" y="220.6909090909091"/>
      <point x="284.9090909090909" y="239.88181818181818"/>
      <point x="284.9090909090909" y="262.6363636363636" type="curve" smooth="yes"/>
      <point x="284.9090909090909" y="285.07272727272726"/>
      <point x="265.9090909090909" y="305.1181818181818"/>
      <point x="241.6090909090909" y="305.1181818181818" type="curve" smooth="yes"/>
      <point x="217.3090909090909" y="305.1181818181818"/>
      <point x="198.44545454545454" y="285.07272727272726"/>
      <point x="198.44545454545454" y="262.6363636363636" type="curve" smooth="yes"/>
      <point x="198.44545454545454" y="239.88181818181818"/>
      <point x="217.3090909090909" y="220.6909090909091"/>
    </contour>
    <contour>
      <point x="531.0454545454545" y="220.6909090909091" type="curve" smooth="yes"/>
      <point x="555.3454545454546" y="220.6909090909091"/>
      <point x="574.3454545454546" y="239.88181818181818"/>
      <point x="574.3454545454546" y="262.6363636363636" type="curve" smooth="yes"/>
      <point x="574.3454545454546" y="285.07272727272726"/>
      <point x="555.3454545454546" y="305.1181818181818"/>
      <point x="531.0454545454545" y="305.1181818181818" type="curve" smooth="yes"/>
      <point x="506.74545454545455" y="305.1181818181818"/>
      <point x="487.8818181818182" y="285.07272727272726"/>
      <point x="487.8818181818182" y="262.6363636363636" type="curve" smooth="yes"/>
      <point x="487.8818181818182" y="239.88181818181818"/>
      <point x="506.74545454545455" y="220.6909090909091"/>
    </contour>
  </outline>
</glyph>
<glyph name="u-tamil" format="2">
  <advance width="822.7272727272727"/>
  <unicode hex="0B89"/>
  <note>
uni0B89
</note>
  <anchor x="376.2636363636363" y="0.0" name="bottom"/>
  <anchor x="376.6454545454545" y="0.0" name="nukta"/>
  <anchor x="495.66363636363633" y="548.5454545454545" name="top"/>
  <anchor x="495.5818181818181" y="548.5454545454545" name="vedic"/>
  <outline>
    <contour>
      <point x="86.07272727272726" y="0.0" type="curve" smooth="yes"/>
      <point x="738.4272727272728" y="0.0" type="line"/>
      <point x="746.7272727272727" y="39.90909090909091" type="line"/>
      <point x="90.46363636363637" y="39.90909090909091" type="line" smooth="yes"/>
      <point x="61.42727272727272" y="39.90909090909091"/>
      <point x="43.154545454545456" y="59.83636363636363"/>
      <point x="43.154545454545456" y="86.63636363636364" type="curve" smooth="yes"/>
      <point x="43.154545454545456" y="121.19090909090909"/>
      <point x="69.83636363636364" y="140.0"/>
      <point x="101.42727272727274" y="140.0" type="curve" smooth="yes"/>
      <point x="285.97272727272724" y="140.0" type="line" smooth="yes"/>
      <point x="431.2272727272727" y="140.0"/>
      <point x="542.8909090909092" y="226.87272727272727"/>
      <point x="542.8909090909092" y="372.3818181818182" type="curve" smooth="yes"/>
      <point x="542.8909090909092" y="494.6727272727273"/>
      <point x="455.3818181818182" y="555.3636363636364"/>
      <point x="347.8363636363636" y="555.3636363636364" type="curve" smooth="yes"/>
      <point x="232.6909090909091" y="555.3636363636364"/>
      <point x="139.05454545454543" y="469.74545454545455"/>
      <point x="139.05454545454543" y="363.80909090909086" type="curve" smooth="yes"/>
      <point x="139.05454545454543" y="305.94545454545454"/>
      <point x="174.0" y="255.63636363636363"/>
      <point x="239.5181818181818" y="255.63636363636363" type="curve" smooth="yes"/>
      <point x="316.9" y="255.63636363636363"/>
      <point x="373.29090909090905" y="312.79090909090905"/>
      <point x="373.29090909090905" y="398.8636363636364" type="curve" smooth="yes"/>
      <point x="373.29090909090905" y="456.1"/>
      <point x="345.9454545454545" y="502.43636363636364"/>
      <point x="308.06363636363636" y="526.2727272727273" type="curve"/>
      <point x="271.69090909090914" y="522.3636363636364" type="line"/>
      <point x="303.4636363636364" y="491.98181818181814"/>
      <point x="319.67272727272734" y="450.1909090909091"/>
      <point x="319.67272727272734" y="404.22727272727275" type="curve" smooth="yes"/>
      <point x="319.67272727272734" y="344.8090909090909"/>
      <point x="287.71818181818185" y="296.45454545454544"/>
      <point x="234.14545454545453" y="296.45454545454544" type="curve" smooth="yes"/>
      <point x="196.54545454545456" y="296.45454545454544"/>
      <point x="178.41818181818184" y="328.77272727272725"/>
      <point x="178.41818181818184" y="366.70909090909095" type="curve" smooth="yes"/>
      <point x="178.41818181818184" y="447.9090909090909"/>
      <point x="247.78181818181815" y="515.0"/>
      <point x="338.77272727272725" y="515.0" type="curve" smooth="yes"/>
      <point x="421.0272727272727" y="515.0"/>
      <point x="480.9545454545455" y="468.6181818181818"/>
      <point x="480.9545454545455" y="373.24545454545455" type="curve" smooth="yes"/>
      <point x="480.9545454545455" y="257.6727272727273"/>
      <point x="401.45454545454544" y="179.8181818181818"/>
      <point x="284.6727272727273" y="179.8181818181818" type="curve" smooth="yes"/>
      <point x="105.96363636363638" y="179.8181818181818" type="line" smooth="yes"/>
      <point x="43.92727272727273" y="179.8181818181818"/>
      <point x="1.7909090909090923" y="140.3909090909091"/>
      <point x="1.7909090909090923" y="81.99090909090908" type="curve" smooth="yes"/>
      <point x="1.7909090909090923" y="37.85454545454545"/>
      <point x="31.92727272727273" y="0.0"/>
    </contour>
  </outline>
</glyph>
<glyph name="uu-tamil" format="2">
  <advance width="1346.9454545454546"/>
  <unicode hex="0B8A"/>
  <note>
uni0B8A
</note>
  <anchor x="649.0545454545455" y="0.0" name="bottom"/>
  <anchor x="649.6727272727272" y="0.0" name="nukta"/>
  <anchor x="768.8545454545455" y="548.5454545454545" name="top"/>
  <anchor x="768.6909090909091" y="548.5454545454545" name="vedic"/>
  <outline>
    <contour>
      <point x="86.07272727272726" y="0.0" type="curve" smooth="yes"/>
      <point x="1267.8636363636365" y="0.0" type="line"/>
      <point x="1276.1636363636362" y="39.90909090909091" type="line"/>
      <point x="90.46363636363637" y="39.90909090909091" type="line" smooth="yes"/>
      <point x="61.42727272727272" y="39.90909090909091"/>
      <point x="43.154545454545456" y="59.83636363636363"/>
      <point x="43.154545454545456" y="86.63636363636364" type="curve" smooth="yes"/>
      <point x="43.154545454545456" y="121.19090909090909"/>
      <point x="69.83636363636364" y="140.0"/>
      <point x="101.42727272727274" y="140.0" type="curve" smooth="yes"/>
      <point x="285.97272727272724" y="140.0" type="line" smooth="yes"/>
      <point x="431.2272727272727" y="140.0"/>
      <point x="542.8909090909092" y="226.87272727272727"/>
      <point x="542.8909090909092" y="372.3818181818182" type="curve" smooth="yes"/>
      <point x="542.8909090909092" y="494.6727272727273"/>
      <point x="455.3818181818182" y="555.3636363636364"/>
      <point x="347.8363636363636" y="555.3636363636364" type="curve" smooth="yes"/>
      <point x="232.6909090909091" y="555.3636363636364"/>
      <point x="139.05454545454543" y="469.74545454545455"/>
      <point x="139.05454545454543" y="363.80909090909086" type="curve" smooth="yes"/>
      <point x="139.05454545454543" y="305.94545454545454"/>
      <point x="174.0" y="255.63636363636363"/>
      <point x="239.5181818181818" y="255.63636363636363" type="curve" smooth="yes"/>
      <point x="316.9" y="255.63636363636363"/>
      <point x="373.29090909090905" y="312.79090909090905"/>
      <point x="373.29090909090905" y="398.8636363636364" type="curve" smooth="yes"/>
      <point x="373.29090909090905" y="456.1"/>
      <point x="345.9454545454545" y="502.43636363636364"/>
      <point x="308.06363636363636" y="526.2727272727273" type="curve"/>
      <point x="271.69090909090914" y="522.3636363636364" type="line"/>
      <point x="303.4636363636364" y="491.98181818181814"/>
      <point x="319.67272727272734" y="450.1909090909091"/>
      <point x="319.67272727272734" y="404.22727272727275" type="curve" smooth="yes"/>
      <point x="319.67272727272734" y="344.8090909090909"/>
      <point x="287.71818181818185" y="296.45454545454544"/>
      <point x="234.14545454545453" y="296.45454545454544" type="curve" smooth="yes"/>
      <point x="196.54545454545456" y="296.45454545454544"/>
      <point x="178.41818181818184" y="328.77272727272725"/>
      <point x="178.41818181818184" y="366.70909090909095" type="curve" smooth="yes"/>
      <point x="178.41818181818184" y="447.9090909090909"/>
      <point x="247.78181818181815" y="515.0"/>
      <point x="338.77272727272725" y="515.0" type="curve" smooth="yes"/>
      <point x="421.0272727272727" y="515.0"/>
      <point x="480.9545454545455" y="468.6181818181818"/>
      <point x="480.9545454545455" y="373.24545454545455" type="curve" smooth="yes"/>
      <point x="480.9545454545455" y="257.6727272727273"/>
      <point x="401.45454545454544" y="179.8181818181818"/>
      <point x="284.6727272727273" y="179.8181818181818" type="curve" smooth="yes"/>
      <point x="105.96363636363638" y="179.8181818181818" type="line" smooth="yes"/>
      <point x="43.92727272727273" y="179.8181818181818"/>
      <point x="1.7909090909090923" y="140.3909090909091"/>
      <point x="1.7909090909090923" y="81.99090909090908" type="curve" smooth="yes"/>
      <point x="1.7909090909090923" y="37.85454545454545"/>
      <point x="31.92727272727273" y="0.0"/>
    </contour>
    <contour>
      <point x="718.2272727272727" y="103.45454545454545" type="curve" smooth="yes"/>
      <point x="799.8363636363637" y="103.45454545454545"/>
      <point x="864.2636363636364" y="171.76363636363635"/>
      <point x="864.2636363636364" y="267.95454545454544" type="curve" smooth="yes"/>
      <point x="864.2636363636364" y="339.7727272727273"/>
      <point x="821.5909090909091" y="381.5"/>
      <point x="762.5272727272727" y="381.5" type="curve" smooth="yes"/>
      <point x="700.7636363636364" y="381.5"/>
      <point x="647.5090909090909" y="327.4818181818182"/>
      <point x="620.7545454545453" y="252.61818181818185" type="curve"/>
      <point x="628.7636363636364" y="221.44545454545454" type="line"/>
      <point x="652.3818181818182" y="288.07272727272726"/>
      <point x="695.3454545454546" y="336.09090909090907"/>
      <point x="742.8727272727273" y="336.09090909090907" type="curve" smooth="yes"/>
      <point x="783.5090909090909" y="336.09090909090907"/>
      <point x="807.1818181818182" y="308.54545454545456"/>
      <point x="807.1818181818182" y="258.8454545454546" type="curve" smooth="yes"/>
      <point x="807.1818181818182" y="196.54545454545453"/>
      <point x="769.4272727272728" y="143.72727272727272"/>
      <point x="713.6727272727272" y="143.72727272727272" type="curve" smooth="yes"/>
      <point x="663.4454545454545" y="143.72727272727272"/>
      <point x="636.4" y="191.9090909090909"/>
      <point x="636.5363636363636" y="259.1454545454545" type="curve" smooth="yes"/>
      <point x="636.6727272727273" y="385.03636363636366"/>
      <point x="713.7727272727273" y="515.0"/>
      <point x="838.5181818181819" y="515.0" type="curve" smooth="yes"/>
      <point x="937.7909090909093" y="515.0"/>
      <point x="990.9818181818181" y="436.4636363636364"/>
      <point x="966.6363636363636" y="318.8636363636363" type="curve"/>
      <point x="1000.5272727272728" y="319.3181818181818" type="line"/>
      <point x="1029.8818181818183" y="462.5"/>
      <point x="963.5727272727271" y="555.5"/>
      <point x="840.490909090909" y="555.3636363636364" type="curve" smooth="yes"/>
      <point x="694.8909090909091" y="555.2272727272727"/>
      <point x="595.9636363636363" y="408.20909090909095"/>
      <point x="595.9636363636363" y="257.40909090909093" type="curve" smooth="yes"/>
      <point x="595.9636363636363" y="173.54545454545456"/>
      <point x="638.3000000000001" y="103.45454545454545"/>
    </contour>
    <contour>
      <point x="921.4090909090909" y="107.0" type="line"/>
      <point x="982.0545454545454" y="107.0" type="line"/>
      <point x="1067.490909090909" y="509.72727272727275" type="line"/>
      <point x="1220.2909090909093" y="509.72727272727275" type="line"/>
      <point x="1134.9272727272728" y="107.0" type="line"/>
      <point x="1195.0090909090911" y="107.0" type="line"/>
      <point x="1280.690909090909" y="509.72727272727275" type="line"/>
      <point x="1376.481818181818" y="509.72727272727275" type="line"/>
      <point x="1384.7545454545452" y="548.5454545454545" type="line"/>
      <point x="1020.9818181818181" y="548.5454545454545" type="line"/>
      <point x="988.3909090909091" y="395.4090909090909" type="line"/>
      <point x="980.0909090909091" y="383.6818181818182" type="line"/>
    </contour>
  </outline>
</glyph>
<glyph name="e-tamil" format="2">
  <advance width="720.7545454545456"/>
  <unicode hex="0B8E"/>
  <note>
uni0B8E
</note>
  <anchor x="317.8818181818182" y="0.0" name="bottom"/>
  <anchor x="318.8818181818182" y="0.0" name="nukta"/>
  <anchor x="436.8727272727273" y="548.5454545454545" name="top"/>
  <anchor x="437.5181818181818" y="548.5454545454545" name="vedic"/>
  <outline>
    <contour>
      <point x="180.96363636363634" y="-4.545454545454546" type="curve" smooth="yes"/>
      <point x="262.56363636363636" y="-4.545454545454546"/>
      <point x="333.91818181818184" y="62.972727272727276"/>
      <point x="333.91818181818184" y="167.23636363636362" type="curve" smooth="yes"/>
      <point x="333.91818181818184" y="246.1"/>
      <point x="287.0818181818182" y="293.90909090909093"/>
      <point x="220.4272727272727" y="293.90909090909093" type="curve" smooth="yes"/>
      <point x="143.70000000000002" y="293.90909090909093"/>
      <point x="87.42727272727274" y="230.78181818181818"/>
      <point x="59.42727272727273" y="149.56363636363636" type="curve"/>
      <point x="75.87272727272727" y="121.81818181818181" type="line"/>
      <point x="103.59090909090911" y="197.52727272727273"/>
      <point x="143.85454545454544" y="246.0"/>
      <point x="200.6909090909091" y="246.0" type="curve" smooth="yes"/>
      <point x="246.3727272727273" y="246.0"/>
      <point x="272.8363636363636" y="214.5909090909091"/>
      <point x="272.8363636363636" y="157.55454545454543" type="curve" smooth="yes"/>
      <point x="272.8363636363636" y="88.06363636363636"/>
      <point x="232.1090909090909" y="36.27272727272727"/>
      <point x="175.49090909090907" y="36.27272727272727" type="curve" smooth="yes"/>
      <point x="115.27272727272727" y="36.27272727272727"/>
      <point x="77.07272727272728" y="90.41818181818181"/>
      <point x="77.07272727272728" y="188.92727272727274" type="curve" smooth="yes"/>
      <point x="77.07272727272728" y="344.66363636363633"/>
      <point x="173.34545454545454" y="508.6363636363636"/>
      <point x="356.9636363636364" y="508.6363636363636" type="curve" smooth="yes"/>
      <point x="553.1818181818181" y="508.6363636363636" type="line"/>
      <point x="445.3636363636364" y="0.0" type="line"/>
      <point x="506.9090909090909" y="0.0" type="line"/>
      <point x="615.0454545454545" y="508.6363636363636" type="line"/>
      <point x="747.3181818181819" y="508.6363636363636" type="line"/>
      <point x="755.5909090909091" y="548.5454545454545" type="line"/>
      <point x="359.3363636363636" y="548.5454545454545" type="line" smooth="yes"/>
      <point x="149.74545454545458" y="548.5454545454545"/>
      <point x="36.15454545454546" y="364.76363636363635"/>
      <point x="36.15454545454546" y="187.13636363636363" type="curve" smooth="yes"/>
      <point x="36.15454545454546" y="65.97272727272727"/>
      <point x="92.19999999999999" y="-4.545454545454546"/>
    </contour>
  </outline>
</glyph>
<glyph name="ee-tamil" format="2">
  <advance width="727.5909090909091"/>
  <unicode hex="0B8F"/>
  <note>
uni0B8F
</note>
  <anchor x="319.24545454545455" y="0.0" name="bottom"/>
  <anchor x="282.42727272727274" y="-178.2" name="nukta"/>
  <anchor x="439.44545454545454" y="548.5454545454545" name="top"/>
  <anchor x="438.8818181818181" y="548.5454545454545" name="vedic"/>
  <outline>
    <contour>
      <point x="288.5818181818182" y="-207.5727272727273" type="line"/>
      <point x="509.1454545454545" y="11.10909090909091" type="line"/>
      <point x="615.1818181818182" y="508.6363636363636" type="line"/>
      <point x="754.1545454545454" y="508.6363636363636" type="line"/>
      <point x="762.5909090909091" y="548.5454545454545" type="line"/>
      <point x="359.3363636363636" y="548.5454545454545" type="line" smooth="yes"/>
      <point x="149.74545454545458" y="548.5454545454545"/>
      <point x="36.15454545454546" y="364.76363636363635"/>
      <point x="36.15454545454546" y="187.13636363636363" type="curve" smooth="yes"/>
      <point x="36.15454545454546" y="65.97272727272727"/>
      <point x="92.06363636363636" y="-4.545454545454546"/>
      <point x="180.8272727272727" y="-4.545454545454546" type="curve" smooth="yes"/>
      <point x="262.4272727272727" y="-4.545454545454546"/>
      <point x="333.91818181818184" y="62.972727272727276"/>
      <point x="333.91818181818184" y="167.23636363636362" type="curve" smooth="yes"/>
      <point x="333.91818181818184" y="245.96363636363637"/>
      <point x="287.0818181818182" y="293.90909090909093"/>
      <point x="220.4272727272727" y="293.90909090909093" type="curve" smooth="yes"/>
      <point x="143.70000000000002" y="293.90909090909093"/>
      <point x="87.42727272727274" y="230.78181818181818"/>
      <point x="59.42727272727273" y="149.56363636363636" type="curve"/>
      <point x="75.87272727272727" y="121.81818181818181" type="line"/>
      <point x="103.59090909090911" y="197.52727272727273"/>
      <point x="143.85454545454544" y="246.0"/>
      <point x="200.6909090909091" y="246.0" type="curve" smooth="yes"/>
      <point x="246.3727272727273" y="246.0"/>
      <point x="272.8363636363636" y="214.5909090909091"/>
      <point x="272.8363636363636" y="157.55454545454543" type="curve" smooth="yes"/>
      <point x="272.8363636363636" y="88.06363636363636"/>
      <point x="231.97272727272727" y="36.27272727272727"/>
      <point x="175.35454545454547" y="36.27272727272727" type="curve" smooth="yes"/>
      <point x="115.13636363636364" y="36.27272727272727"/>
      <point x="77.07272727272728" y="90.41818181818181"/>
      <point x="77.07272727272728" y="188.92727272727274" type="curve" smooth="yes"/>
      <point x="77.07272727272728" y="344.66363636363633"/>
      <point x="173.34545454545454" y="508.6363636363636"/>
      <point x="356.9636363636364" y="508.6363636363636" type="curve" smooth="yes"/>
      <point x="553.5" y="508.6363636363636" type="line"/>
      <point x="446.9818181818182" y="5.9818181818181815" type="line"/>
      <point x="261.1818181818182" y="-178.87272727272727" type="line"/>
    </contour>
  </outline>
</glyph>
<glyph name="ai-tamil" format="2">
  <advance width="787.2727272727273"/>
  <unicode hex="0B90"/>
  <note>
uni0B90
</note>
  <anchor x="339.5" y="0.0" name="bottom"/>
  <anchor x="275.0" y="-287.8181818181818" name="nukta"/>
  <anchor x="462.96363636363645" y="548.5454545454545" name="top"/>
  <anchor x="460.9636363636364" y="548.5454545454545" name="vedic"/>
  <outline>
    <contour>
      <point x="124.80000000000001" y="-287.8181818181818" type="curve" smooth="yes"/>
      <point x="215.2181818181818" y="-287.8181818181818"/>
      <point x="279.2272727272727" y="-236.76363636363638"/>
      <point x="315.2636363636364" y="-167.53636363636363" type="curve"/>
      <point x="322.2363636363637" y="-233.85454545454544"/>
      <point x="368.6545454545454" y="-287.8181818181818"/>
      <point x="456.10909090909087" y="-287.8181818181818" type="curve" smooth="yes"/>
      <point x="580.1545454545454" y="-287.8181818181818"/>
      <point x="662.7363636363638" y="-191.4909090909091"/>
      <point x="662.7363636363638" y="-59.49090909090909" type="curve" smooth="yes"/>
      <point x="662.7363636363638" y="-8.52727272727273"/>
      <point x="650.109090909091" y="36.690909090909095"/>
      <point x="633.6636363636363" y="73.80909090909091" type="curve"/>
      <point x="594.0636363636364" y="55.24545454545455" type="line"/>
      <point x="608.8545454545454" y="23.254545454545454"/>
      <point x="619.8545454545455" y="-17.7"/>
      <point x="619.8545454545455" y="-59.236363636363635" type="curve" smooth="yes"/>
      <point x="619.8545454545455" y="-163.96363636363637"/>
      <point x="556.090909090909" y="-243.63636363636363"/>
      <point x="459.40909090909093" y="-243.63636363636363" type="curve" smooth="yes"/>
      <point x="373.8363636363636" y="-243.63636363636363"/>
      <point x="346.3545454545454" y="-179.66363636363639"/>
      <point x="366.4636363636364" y="-83.21818181818182" type="curve" smooth="yes"/>
      <point x="378.43636363636364" y="-26.0" type="line"/>
      <point x="317.2181818181819" y="-26.0" type="line"/>
      <point x="305.1" y="-81.96363636363635" type="line" smooth="yes"/>
      <point x="285.8454545454545" y="-169.55454545454543"/>
      <point x="224.8272727272727" y="-246.9090909090909"/>
      <point x="135.54545454545456" y="-246.9090909090909" type="curve" smooth="yes"/>
      <point x="71.42727272727274" y="-246.9090909090909"/>
      <point x="33.41818181818182" y="-203.9"/>
      <point x="33.41818181818182" y="-129.8818181818182" type="curve" smooth="yes"/>
      <point x="33.41818181818182" y="36.59090909090909"/>
      <point x="167.5909090909091" y="66.72727272727272"/>
      <point x="372.9818181818182" y="90.46363636363635" type="curve" smooth="yes"/>
      <point x="596.6181818181818" y="116.96363636363635"/>
      <point x="750.9818181818182" y="195.1818181818182"/>
      <point x="750.9818181818182" y="392.9909090909091" type="curve" smooth="yes"/>
      <point x="750.9818181818182" y="500.1181818181818"/>
      <point x="685.9363636363636" y="555.3636363636364"/>
      <point x="603.6090909090909" y="555.3636363636364" type="curve" smooth="yes"/>
      <point x="526.5454545454545" y="555.3636363636364"/>
      <point x="472.83636363636367" y="507.56363636363636"/>
      <point x="438.32727272727277" y="436.2181818181818" type="curve"/>
      <point x="424.55454545454546" y="508.6363636363636"/>
      <point x="366.3818181818182" y="555.3636363636364"/>
      <point x="282.05454545454546" y="555.3636363636364" type="curve" smooth="yes"/>
      <point x="149.4090909090909" y="555.3636363636364"/>
      <point x="57.98181818181818" y="439.8454545454546"/>
      <point x="57.98181818181818" y="304.02727272727276" type="curve" smooth="yes"/>
      <point x="57.98181818181818" y="224.87272727272727"/>
      <point x="93.76363636363637" y="159.63636363636363"/>
      <point x="165.63636363636363" y="159.63636363636363" type="curve" smooth="yes"/>
      <point x="237.0090909090909" y="159.63636363636363"/>
      <point x="296.8909090909091" y="218.63636363636365"/>
      <point x="296.8909090909091" y="303.8363636363636" type="curve" smooth="yes"/>
      <point x="296.8909090909091" y="368.9636363636364"/>
      <point x="260.6909090909091" y="405.6363636363636"/>
      <point x="207.54545454545453" y="405.6363636363636" type="curve" smooth="yes"/>
      <point x="153.05454545454543" y="405.6363636363636"/>
      <point x="106.30909090909093" y="360.6272727272727"/>
      <point x="79.01818181818182" y="281.7909090909091" type="curve"/>
      <point x="89.4" y="254.3818181818182" type="line"/>
      <point x="119.34545454545453" y="330.24545454545455"/>
      <point x="150.96363636363637" y="360.47272727272724"/>
      <point x="187.60909090909092" y="360.47272727272724" type="curve" smooth="yes"/>
      <point x="220.42727272727274" y="360.47272727272724"/>
      <point x="241.1727272727273" y="338.5454545454545"/>
      <point x="241.1727272727273" y="295.41818181818184" type="curve" smooth="yes"/>
      <point x="241.1727272727273" y="245.35454545454544"/>
      <point x="211.04545454545453" y="200.9090909090909"/>
      <point x="163.85454545454547" y="200.9090909090909" type="curve" smooth="yes"/>
      <point x="119.85454545454547" y="200.9090909090909"/>
      <point x="98.25454545454545" y="242.06363636363633"/>
      <point x="98.25454545454545" y="302.08181818181816" type="curve" smooth="yes"/>
      <point x="98.25454545454545" y="408.0909090909091"/>
      <point x="163.9272727272727" y="514.5454545454545"/>
      <point x="274.09090909090907" y="514.5454545454545" type="curve" smooth="yes"/>
      <point x="367.8636363636363" y="514.5454545454545"/>
      <point x="413.8636363636364" y="451.3"/>
      <point x="392.1272727272727" y="351.0181818181818" type="curve" smooth="yes"/>
      <point x="362.16363636363633" y="211.8181818181818" type="line"/>
      <point x="423.3818181818182" y="211.8181818181818" type="line"/>
      <point x="454.33636363636356" y="361.5363636363636" type="line" smooth="yes"/>
      <point x="470.23636363636365" y="437.78181818181815"/>
      <point x="513.5727272727273" y="515.0"/>
      <point x="592.0727272727273" y="515.0" type="curve" smooth="yes"/>
      <point x="653.2909090909092" y="515.0"/>
      <point x="688.490909090909" y="472.9909090909091"/>
      <point x="688.490909090909" y="394.26363636363635" type="curve" smooth="yes"/>
      <point x="688.490909090909" y="204.62727272727273"/>
      <point x="558.4090909090909" y="145.38181818181818"/>
      <point x="343.27272727272725" y="120.38181818181818" type="curve" smooth="yes"/>
      <point x="121.66363636363637" y="94.8"/>
      <point x="-28.636363636363637" y="50.418181818181814"/>
      <point x="-28.636363636363637" y="-128.88181818181818" type="curve" smooth="yes"/>
      <point x="-28.636363636363637" y="-228.24545454545455"/>
      <point x="34.03636363636363" y="-287.8181818181818"/>
    </contour>
  </outline>
</glyph>
<glyph name="o-tamil" format="2">
  <advance width="797.4"/>
  <unicode hex="0B92"/>
  <note>
uni0B92
</note>
  <anchor x="345.50909090909096" y="0.0" name="bottom"/>
  <anchor x="272.50909090909096" y="-335.0" name="nukta"/>
  <anchor x="450.2363636363637" y="548.5454545454545" name="top"/>
  <anchor x="451.08181818181816" y="548.5454545454545" name="vedic"/>
  <outline>
    <contour>
      <point x="189.52727272727276" y="-288.56363636363636" type="curve" smooth="yes"/>
      <point x="333.3818181818182" y="-288.56363636363636"/>
      <point x="390.7272727272727" y="-128.75454545454545"/>
      <point x="531.6363636363636" y="-128.75454545454545" type="curve" smooth="yes"/>
      <point x="556.0454545454545" y="-128.75454545454545" type="line"/>
      <point x="564.7" y="-88.55454545454545" type="line"/>
      <point x="532.109090909091" y="-88.55454545454545" type="line" smooth="yes"/>
      <point x="375.2" y="-88.55454545454545"/>
      <point x="362.0545454545455" y="71.25454545454545"/>
      <point x="471.7909090909091" y="206.66363636363636" type="curve"/>
      <point x="475.99090909090904" y="203.6818181818182" type="line"/>
      <point x="422.3727272727273" y="96.55454545454545"/>
      <point x="438.0545454545455" y="-5.0"/>
      <point x="540.8818181818183" y="-5.0" type="curve" smooth="yes"/>
      <point x="655.0" y="-5.0"/>
      <point x="737.9636363636364" y="108.73636363636363"/>
      <point x="737.9636363636364" y="255.4181818181818" type="curve" smooth="yes"/>
      <point x="737.9636363636364" y="448.2"/>
      <point x="598.109090909091" y="555.3636363636364"/>
      <point x="417.0818181818182" y="555.3636363636364" type="curve" smooth="yes"/>
      <point x="204.94545454545457" y="555.3636363636364"/>
      <point x="35.28181818181818" y="384.3636363636364"/>
      <point x="35.28181818181818" y="192.77272727272728" type="curve" smooth="yes"/>
      <point x="35.28181818181818" y="67.15454545454546"/>
      <point x="90.10000000000001" y="-4.545454545454546"/>
      <point x="178.1" y="-4.545454545454546" type="curve" smooth="yes"/>
      <point x="260.0818181818182" y="-4.545454545454546"/>
      <point x="330.7545454545455" y="62.7"/>
      <point x="330.7545454545455" y="167.23636363636362" type="curve" smooth="yes"/>
      <point x="330.7545454545455" y="246.1"/>
      <point x="285.0636363636363" y="293.90909090909093"/>
      <point x="218.40909090909093" y="293.90909090909093" type="curve" smooth="yes"/>
      <point x="141.6818181818182" y="293.90909090909093"/>
      <point x="86.55454545454545" y="230.78181818181818"/>
      <point x="58.55454545454546" y="149.56363636363636" type="curve"/>
      <point x="75.00000000000001" y="121.81818181818181" type="line"/>
      <point x="102.7181818181818" y="197.52727272727273"/>
      <point x="141.83636363636364" y="246.0"/>
      <point x="198.6727272727273" y="246.0" type="curve" smooth="yes"/>
      <point x="244.35454545454544" y="246.0"/>
      <point x="269.6727272727273" y="214.5909090909091"/>
      <point x="269.6727272727273" y="157.55454545454543" type="curve" smooth="yes"/>
      <point x="269.6727272727273" y="88.06363636363636"/>
      <point x="228.86363636363635" y="36.27272727272727"/>
      <point x="172.62727272727273" y="36.27272727272727" type="curve" smooth="yes"/>
      <point x="113.17272727272727" y="36.27272727272727"/>
      <point x="76.2" y="91.6"/>
      <point x="76.2" y="194.56363636363636" type="curve" smooth="yes"/>
      <point x="76.2" y="360.3"/>
      <point x="226.5909090909091" y="515.0"/>
      <point x="409.7181818181818" y="515.0" type="curve" smooth="yes"/>
      <point x="563.1181818181819" y="515.0"/>
      <point x="677.1181818181818" y="417.6363636363636"/>
      <point x="677.1181818181818" y="255.6818181818182" type="curve" smooth="yes"/>
      <point x="677.1181818181818" y="144.75454545454545"/>
      <point x="625.6636363636364" y="36.27272727272727"/>
      <point x="539.6545454545455" y="36.27272727272727" type="curve" smooth="yes"/>
      <point x="456.0363636363636" y="36.27272727272727"/>
      <point x="473.19090909090914" y="154.46363636363634"/>
      <point x="534.7181818181817" y="250.16363636363639" type="curve"/>
      <point x="490.8363636363637" y="277.5727272727273" type="line"/>
      <point x="352.2545454545455" y="137.96363636363634"/>
      <point x="306.79090909090905" y="-47.654545454545456"/>
      <point x="447.73636363636365" y="-105.09090909090908" type="curve"/>
      <point x="447.05454545454546" y="-109.63636363636363" type="line"/>
      <point x="334.3818181818182" y="-130.5181818181818"/>
      <point x="286.8454545454546" y="-240.53636363636363"/>
      <point x="185.1727272727273" y="-240.53636363636363" type="curve" smooth="yes"/>
      <point x="139.0" y="-240.53636363636363"/>
      <point x="114.22727272727273" y="-210.44545454545454"/>
      <point x="114.22727272727273" y="-173.11818181818185" type="curve" smooth="yes"/>
      <point x="114.22727272727273" y="-133.5727272727273"/>
      <point x="135.2909090909091" y="-110.22727272727273"/>
      <point x="174.20000000000002" y="-79.72727272727273" type="curve"/>
      <point x="151.1727272727273" y="-50.309090909090905" type="line"/>
      <point x="103.32727272727273" y="-87.93636363636364"/>
      <point x="71.54545454545455" y="-121.76363636363638"/>
      <point x="71.54545454545455" y="-179.4727272727273" type="curve" smooth="yes"/>
      <point x="71.54545454545455" y="-239.10000000000002"/>
      <point x="115.49999999999999" y="-288.56363636363636"/>
    </contour>
  </outline>
</glyph>
<glyph name="oo-tamil" format="2">
  <advance width="797.4"/>
  <unicode hex="0B93"/>
  <note>
uni0B93
</note>
  <anchor x="338.7181818181818" y="0.0" name="bottom"/>
  <anchor x="279.74545454545455" y="-267.6090909090909" name="nukta"/>
  <anchor x="446.80000000000007" y="548.5454545454545" name="top"/>
  <anchor x="447.6454545454545" y="548.5454545454545" name="vedic"/>
  <outline>
    <contour>
      <point x="177.77272727272728" y="-295.8454545454545" type="curve" smooth="yes"/>
      <point x="321.73636363636365" y="-295.8454545454545"/>
      <point x="390.5636363636363" y="-128.75454545454545"/>
      <point x="531.4727272727273" y="-128.75454545454545" type="curve" smooth="yes"/>
      <point x="551.9" y="-128.75454545454545" type="line"/>
      <point x="560.5545454545455" y="-88.55454545454545" type="line"/>
      <point x="531.9454545454545" y="-88.55454545454545" type="line" smooth="yes"/>
      <point x="375.03636363636366" y="-88.55454545454545"/>
      <point x="361.7272727272727" y="71.25454545454545"/>
      <point x="471.62727272727267" y="206.5" type="curve"/>
      <point x="475.99090909090904" y="203.6818181818182" type="line"/>
      <point x="422.3727272727273" y="96.55454545454545"/>
      <point x="438.0545454545455" y="-5.0"/>
      <point x="540.8818181818183" y="-5.0" type="curve" smooth="yes"/>
      <point x="655.0" y="-5.0"/>
      <point x="737.9636363636364" y="108.73636363636363"/>
      <point x="737.9636363636364" y="255.4181818181818" type="curve" smooth="yes"/>
      <point x="737.9636363636364" y="448.2"/>
      <point x="598.109090909091" y="555.3636363636364"/>
      <point x="417.0818181818182" y="555.3636363636364" type="curve" smooth="yes"/>
      <point x="204.94545454545457" y="555.3636363636364"/>
      <point x="35.28181818181818" y="384.3636363636364"/>
      <point x="35.28181818181818" y="192.77272727272728" type="curve" smooth="yes"/>
      <point x="35.28181818181818" y="67.15454545454546"/>
      <point x="90.10000000000001" y="-4.545454545454546"/>
      <point x="178.1" y="-4.545454545454546" type="curve" smooth="yes"/>
      <point x="260.0818181818182" y="-4.545454545454546"/>
      <point x="330.7545454545455" y="62.7"/>
      <point x="330.7545454545455" y="167.23636363636362" type="curve" smooth="yes"/>
      <point x="330.7545454545455" y="246.1"/>
      <point x="285.0636363636363" y="293.90909090909093"/>
      <point x="218.40909090909093" y="293.90909090909093" type="curve" smooth="yes"/>
      <point x="141.6818181818182" y="293.90909090909093"/>
      <point x="86.55454545454545" y="230.78181818181818"/>
      <point x="58.55454545454546" y="149.56363636363636" type="curve"/>
      <point x="75.00000000000001" y="121.81818181818181" type="line"/>
      <point x="102.7181818181818" y="197.52727272727273"/>
      <point x="141.83636363636364" y="246.0"/>
      <point x="198.6727272727273" y="246.0" type="curve" smooth="yes"/>
      <point x="244.35454545454544" y="246.0"/>
      <point x="269.6727272727273" y="214.5909090909091"/>
      <point x="269.6727272727273" y="157.55454545454543" type="curve" smooth="yes"/>
      <point x="269.6727272727273" y="88.06363636363636"/>
      <point x="228.86363636363635" y="36.27272727272727"/>
      <point x="172.62727272727273" y="36.27272727272727" type="curve" smooth="yes"/>
      <point x="113.17272727272727" y="36.27272727272727"/>
      <point x="76.2" y="91.6"/>
      <point x="76.2" y="194.56363636363636" type="curve" smooth="yes"/>
      <point x="76.2" y="360.3"/>
      <point x="226.5909090909091" y="515.0"/>
      <point x="409.7181818181818" y="515.0" type="curve" smooth="yes"/>
      <point x="563.1181818181819" y="515.0"/>
      <point x="677.1181818181818" y="417.6363636363636"/>
      <point x="677.1181818181818" y="255.6818181818182" type="curve" smooth="yes"/>
      <point x="677.1181818181818" y="144.75454545454545"/>
      <point x="625.6636363636364" y="36.27272727272727"/>
      <point x="539.6545454545455" y="36.27272727272727" type="curve" smooth="yes"/>
      <point x="456.0363636363636" y="36.27272727272727"/>
      <point x="473.19090909090914" y="154.46363636363634"/>
      <point x="534.7181818181817" y="250.16363636363639" type="curve"/>
      <point x="490.8363636363637" y="277.5727272727273" type="line"/>
      <point x="351.7636363636364" y="137.96363636363634"/>
      <point x="306.6272727272727" y="-47.654545454545456"/>
      <point x="447.5727272727273" y="-105.09090909090908" type="curve"/>
      <point x="446.89090909090913" y="-109.63636363636363" type="line"/>
      <point x="334.21818181818185" y="-130.5181818181818"/>
      <point x="273.40000000000003" y="-249.34545454545457"/>
      <point x="173.0909090909091" y="-249.34545454545457" type="curve" smooth="yes"/>
      <point x="124.87272727272726" y="-249.34545454545457"/>
      <point x="101.78181818181818" y="-218.25454545454548"/>
      <point x="101.78181818181818" y="-180.3181818181818" type="curve" smooth="yes"/>
      <point x="101.78181818181818" y="-141.1090909090909"/>
      <point x="128.69090909090906" y="-112.38181818181819"/>
      <point x="165.5636363636364" y="-112.38181818181819" type="curve" smooth="yes"/>
      <point x="196.81818181818184" y="-112.38181818181819"/>
      <point x="216.0727272727273" y="-130.52727272727273"/>
      <point x="220.8181818181818" y="-158.5909090909091" type="curve"/>
      <point x="246.58181818181816" y="-149.45454545454547"/>
      <point x="265.0181818181818" y="-129.80909090909094"/>
      <point x="265.0181818181818" y="-105.17272727272729" type="curve" smooth="yes"/>
      <point x="265.0181818181818" y="-72.38181818181818"/>
      <point x="231.35454545454544" y="-54.0"/>
      <point x="192.17272727272726" y="-54.0" type="curve" smooth="yes"/>
      <point x="120.4" y="-54.0"/>
      <point x="63.10909090909091" y="-111.05454545454548"/>
      <point x="63.10909090909091" y="-185.21818181818185" type="curve" smooth="yes"/>
      <point x="63.10909090909091" y="-246.35454545454547"/>
      <point x="107.36363636363636" y="-295.8454545454545"/>
    </contour>
  </outline>
</glyph>
<glyph name="nga-tamil" format="2">
  <advance width="823.3454545454546"/>
  <unicode hex="0B99"/>
  <note>
uni0B99
</note>
  <anchor x="355.41818181818184" y="0.0" name="bottom"/>
  <anchor x="507.07272727272726" y="548.5454545454545" name="imatra"/>
  <anchor x="355.41818181818184" y="0.0" name="nukta"/>
  <anchor x="471.8818181818182" y="548.5454545454545" name="top"/>
  <anchor x="470.6272727272728" y="548.5454545454545" name="vedic"/>
  <outline>
    <contour>
      <point x="32.9909090909091" y="0.0" type="line"/>
      <point x="76.63636363636364" y="0.0" type="line"/>
      <point x="184.45454545454547" y="508.6363636363636" type="line"/>
      <point x="332.5454545454545" y="508.6363636363636" type="line"/>
      <point x="265.1363636363636" y="192.36363636363637" type="line"/>
      <point x="325.29090909090905" y="192.36363636363637" type="line"/>
      <point x="332.7909090909091" y="227.4" type="line" smooth="yes"/>
      <point x="342.92727272727274" y="275.7727272727273"/>
      <point x="376.25454545454545" y="322.12727272727267"/>
      <point x="425.00909090909096" y="322.12727272727267" type="curve" smooth="yes"/>
      <point x="464.4545454545455" y="322.12727272727267"/>
      <point x="487.67272727272723" y="294.43636363636364"/>
      <point x="487.67272727272723" y="243.5181818181818" type="curve" smooth="yes"/>
      <point x="487.67272727272723" y="137.28181818181818"/>
      <point x="402.1181818181818" y="39.90909090909091"/>
      <point x="307.50909090909096" y="39.90909090909091" type="curve" smooth="yes"/>
      <point x="232.8636363636364" y="39.90909090909091" type="line"/>
      <point x="224.04545454545453" y="0.0" type="line"/>
      <point x="673.7818181818182" y="0.0" type="line"/>
      <point x="790.2545454545456" y="548.5454545454545" type="line"/>
      <point x="728.6454545454545" y="548.5454545454545" type="line"/>
      <point x="620.8272727272728" y="39.90909090909091" type="line"/>
      <point x="400.7" y="39.90909090909091" type="line"/>
      <point x="483.2" y="74.86363636363637"/>
      <point x="550.590909090909" y="152.21818181818182"/>
      <point x="550.590909090909" y="254.26363636363638" type="curve" smooth="yes"/>
      <point x="550.590909090909" y="328.4909090909091"/>
      <point x="508.8090909090909" y="368.09090909090907"/>
      <point x="451.25454545454545" y="368.09090909090907" type="curve" smooth="yes"/>
      <point x="402.9909090909091" y="368.09090909090907"/>
      <point x="370.1181818181818" y="339.08181818181816"/>
      <point x="351.46363636363634" y="310.8363636363636" type="curve"/>
      <point x="393.32727272727277" y="508.6363636363636" type="line"/>
      <point x="524.1545454545455" y="508.6363636363636" type="line"/>
      <point x="532.2727272727274" y="548.5454545454545" type="line"/>
      <point x="149.56363636363636" y="548.5454545454545" type="line"/>
    </contour>
  </outline>
</glyph>
<glyph name="ja-tamil" format="2">
  <advance width="785.0454545454545"/>
  <unicode hex="0B9C"/>
  <note>
uni0B9C
</note>
  <anchor x="340.5909090909091" y="0.0" name="bottom"/>
  <anchor x="276.09090909090907" y="-287.8181818181818" name="nukta"/>
  <anchor x="460.8545454545454" y="548.5454545454545" name="top"/>
  <anchor x="458.8909090909091" y="548.5454545454545" name="vedic"/>
  <outline>
    <contour>
      <point x="103.80909090909091" y="-287.8181818181818" type="curve" smooth="yes"/>
      <point x="278.19090909090914" y="-287.8181818181818"/>
      <point x="361.40000000000003" y="-9.89090909090909"/>
      <point x="502.62727272727267" y="-9.89090909090909" type="curve" smooth="yes"/>
      <point x="560.2818181818183" y="-9.89090909090909"/>
      <point x="589.1545454545455" y="-49.309090909090905"/>
      <point x="589.1545454545455" y="-109.73636363636362" type="curve" smooth="yes"/>
      <point x="589.1545454545455" y="-187.4909090909091"/>
      <point x="542.9272727272727" y="-248.27272727272728"/>
      <point x="469.609090909091" y="-248.27272727272728" type="curve" smooth="yes"/>
      <point x="437.7454545454546" y="-248.27272727272728"/>
      <point x="410.6272727272727" y="-238.04545454545453"/>
      <point x="384.97272727272724" y="-219.6818181818182" type="curve"/>
      <point x="363.2" y="-252.4090909090909" type="line"/>
      <point x="393.3090909090909" y="-274.3909090909091"/>
      <point x="427.0818181818181" y="-287.8181818181818"/>
      <point x="475.9181818181819" y="-287.8181818181818" type="curve" smooth="yes"/>
      <point x="571.1181818181819" y="-287.8181818181818"/>
      <point x="651.9909090909091" y="-217.46363636363637"/>
      <point x="651.9909090909091" y="-109.08181818181819" type="curve" smooth="yes"/>
      <point x="651.9909090909091" y="-19.018181818181816"/>
      <point x="600.3545454545454" y="32.0"/>
      <point x="516.1818181818182" y="32.0" type="curve" smooth="yes"/>
      <point x="340.7" y="32.0"/>
      <point x="255.92727272727274" y="-246.0909090909091"/>
      <point x="117.35454545454546" y="-246.0909090909091" type="curve" smooth="yes"/>
      <point x="57.66363636363636" y="-246.0909090909091"/>
      <point x="32.37272727272727" y="-202.38181818181818"/>
      <point x="32.37272727272727" y="-134.4090909090909" type="curve" smooth="yes"/>
      <point x="32.37272727272727" y="21.618181818181817"/>
      <point x="148.25454545454548" y="59.50909090909091"/>
      <point x="367.77272727272725" y="86.08181818181819" type="curve" smooth="yes"/>
      <point x="601.5545454545455" y="114.81818181818181"/>
      <point x="751.3090909090909" y="195.5090909090909"/>
      <point x="751.3090909090909" y="392.9909090909091" type="curve" smooth="yes"/>
      <point x="751.3090909090909" y="500.1181818181818"/>
      <point x="686.2636363636364" y="555.3636363636364"/>
      <point x="603.9363636363638" y="555.3636363636364" type="curve" smooth="yes"/>
      <point x="526.8727272727273" y="555.3636363636364"/>
      <point x="473.16363636363633" y="507.56363636363636"/>
      <point x="438.6545454545454" y="436.2181818181818" type="curve"/>
      <point x="424.8818181818182" y="508.6363636363636"/>
      <point x="366.7090909090909" y="555.3636363636364"/>
      <point x="282.3818181818182" y="555.3636363636364" type="curve" smooth="yes"/>
      <point x="149.73636363636365" y="555.3636363636364"/>
      <point x="58.30909090909091" y="439.8454545454546"/>
      <point x="58.30909090909091" y="304.02727272727276" type="curve" smooth="yes"/>
      <point x="58.30909090909091" y="224.87272727272727"/>
      <point x="94.0909090909091" y="159.63636363636363"/>
      <point x="165.96363636363637" y="159.63636363636363" type="curve" smooth="yes"/>
      <point x="237.33636363636364" y="159.63636363636363"/>
      <point x="297.21818181818185" y="218.63636363636365"/>
      <point x="297.21818181818185" y="303.8363636363636" type="curve" smooth="yes"/>
      <point x="297.21818181818185" y="368.9636363636364"/>
      <point x="261.0181818181818" y="405.6363636363636"/>
      <point x="207.87272727272727" y="405.6363636363636" type="curve" smooth="yes"/>
      <point x="153.3818181818182" y="405.6363636363636"/>
      <point x="106.63636363636363" y="360.6272727272727"/>
      <point x="79.34545454545454" y="281.7909090909091" type="curve"/>
      <point x="89.72727272727273" y="254.3818181818182" type="line"/>
      <point x="119.67272727272727" y="330.24545454545455"/>
      <point x="151.2909090909091" y="360.47272727272724"/>
      <point x="187.93636363636367" y="360.47272727272724" type="curve" smooth="yes"/>
      <point x="220.75454545454545" y="360.47272727272724"/>
      <point x="241.49999999999997" y="338.5454545454545"/>
      <point x="241.49999999999997" y="295.41818181818184" type="curve" smooth="yes"/>
      <point x="241.49999999999997" y="245.35454545454544"/>
      <point x="211.37272727272727" y="200.9090909090909"/>
      <point x="164.18181818181816" y="200.9090909090909" type="curve" smooth="yes"/>
      <point x="120.18181818181819" y="200.9090909090909"/>
      <point x="98.58181818181819" y="242.06363636363633"/>
      <point x="98.58181818181819" y="302.08181818181816" type="curve" smooth="yes"/>
      <point x="98.58181818181819" y="408.0909090909091"/>
      <point x="164.25454545454548" y="514.5454545454545"/>
      <point x="274.4181818181819" y="514.5454545454545" type="curve" smooth="yes"/>
      <point x="368.19090909090914" y="514.5454545454545"/>
      <point x="414.1909090909091" y="451.3"/>
      <point x="392.4545454545455" y="351.0181818181818" type="curve" smooth="yes"/>
      <point x="362.49090909090916" y="211.8181818181818" type="line"/>
      <point x="423.7090909090909" y="211.8181818181818" type="line"/>
      <point x="454.66363636363633" y="361.5363636363636" type="line" smooth="yes"/>
      <point x="470.56363636363636" y="437.78181818181815"/>
      <point x="513.9" y="515.0"/>
      <point x="592.4" y="515.0" type="curve" smooth="yes"/>
      <point x="653.6181818181818" y="515.0"/>
      <point x="688.8181818181818" y="472.9909090909091"/>
      <point x="688.8181818181818" y="394.26363636363635" type="curve" smooth="yes"/>
      <point x="688.8181818181818" y="204.95454545454544"/>
      <point x="561.0545454545455" y="141.70909090909092"/>
      <point x="341.8818181818182" y="116.0" type="curve" smooth="yes"/>
      <point x="102.32727272727274" y="87.58181818181818"/>
      <point x="-29.3" y="34.12727272727273"/>
      <point x="-29.3" y="-134.99999999999997" type="curve" smooth="yes"/>
      <point x="-29.3" y="-228.0727272727273"/>
      <point x="16.772727272727273" y="-287.8181818181818"/>
    </contour>
  </outline>
</glyph>
<glyph name="nya-tamil" format="2">
  <advance width="1024.9636363636366"/>
  <unicode hex="0B9E"/>
  <note>
uni0B9E
</note>
  <anchor x="489.55454545454546" y="0.0" name="bottom"/>
  <anchor x="879.7727272727271" y="548.5454545454545" name="imatra"/>
  <anchor x="436.46363636363645" y="-295.5181818181818" name="nukta"/>
  <anchor x="620.6" y="548.5454545454545" name="top"/>
  <anchor x="586.7636363636364" y="548.5454545454545" name="vedic"/>
  <outline>
    <contour>
      <point x="434.5545454545455" y="-295.5181818181818" type="curve" smooth="yes"/>
      <point x="732.0727272727274" y="-295.5181818181818"/>
      <point x="955.8727272727273" y="-82.76363636363637"/>
      <point x="955.8727272727273" y="191.8090909090909" type="curve" smooth="yes"/>
      <point x="955.8727272727273" y="280.87272727272733"/>
      <point x="912.7181818181817" y="337.27272727272725"/>
      <point x="840.6181818181818" y="337.27272727272725" type="curve" smooth="yes"/>
      <point x="768.8727272727273" y="337.27272727272725"/>
      <point x="720.2545454545453" y="277.77272727272725"/>
      <point x="701.7818181818182" y="191.24545454545455" type="curve" smooth="yes"/>
      <point x="694.9636363636364" y="159.24545454545455" type="line"/>
      <point x="713.6727272727272" y="159.24545454545455" type="line"/>
      <point x="720.490909090909" y="190.65454545454543" type="line" smooth="yes"/>
      <point x="733.3818181818183" y="247.71818181818182"/>
      <point x="766.6636363636363" y="292.6545454545454"/>
      <point x="817.9454545454545" y="292.6545454545454" type="curve" smooth="yes"/>
      <point x="866.4181818181818" y="292.6545454545454"/>
      <point x="892.1" y="253.96363636363637"/>
      <point x="892.1" y="188.66363636363639" type="curve" smooth="yes"/>
      <point x="892.1" y="-54.8"/>
      <point x="702.2454545454547" y="-254.24545454545455"/>
      <point x="436.0181818181818" y="-254.24545454545455" type="curve" smooth="yes"/>
      <point x="222.48181818181823" y="-254.24545454545455"/>
      <point x="72.95454545454545" y="-99.3"/>
      <point x="72.95454545454545" y="127.87272727272727" type="curve" smooth="yes"/>
      <point x="72.95454545454545" y="322.0909090909091"/>
      <point x="156.95454545454544" y="475.32727272727277"/>
      <point x="306.9272727272727" y="622.6727272727272" type="curve"/>
      <point x="280.3545454545454" y="649.6272727272727" type="line"/>
      <point x="124.60909090909091" y="497.6181818181819"/>
      <point x="30.454545454545457" y="329.8909090909091"/>
      <point x="30.454545454545457" y="123.55454545454543" type="curve" smooth="yes"/>
      <point x="30.454545454545457" y="-115.45454545454547"/>
      <point x="191.9090909090909" y="-295.5181818181818"/>
    </contour>
    <component base="e-tamil" xOffset="174.71818181818182"/>
  </outline>
</glyph>
<glyph name="tta-tamil" format="2">
  <advance width="717.1909090909091"/>
  <unicode hex="0B9F"/>
  <note>
uni0B9F
</note>
  <anchor x="332.7818181818182" y="0.0" name="bottom"/>
  <anchor x="332.7818181818182" y="0.0" name="nukta"/>
  <anchor x="451.89090909090913" y="548.5454545454545" name="top"/>
  <anchor x="449.60909090909087" y="548.5454545454545" name="vedic"/>
  <outline>
    <contour>
      <point x="32.9909090909091" y="0.0" type="line"/>
      <point x="640.0" y="0.0" type="line"/>
      <point x="648.4363636363637" y="39.90909090909091" type="line"/>
      <point x="103.12727272727274" y="39.90909090909091" type="line"/>
      <point x="211.3272727272727" y="548.5454545454545" type="line"/>
      <point x="149.56363636363636" y="548.5454545454545" type="line"/>
    </contour>
  </outline>
</glyph>
<glyph name="nna-tamil" format="2">
  <advance width="1364.0363636363638"/>
  <unicode hex="0BA3"/>
  <note>
uni0BA3
</note>
  <anchor x="672.8545454545454" y="0.0" name="bottom"/>
  <anchor x="1305.0272727272727" y="548.5454545454545" name="imatra"/>
  <anchor x="672.090909090909" y="0.0" name="nukta"/>
  <anchor x="779.2181818181817" y="548.5454545454545" name="top"/>
  <anchor x="762.5" y="548.5454545454545" name="vedic"/>
  <outline>
    <contour>
      <point x="504.4181818181819" y="-5.0" type="curve" smooth="yes"/>
      <point x="604.4363636363637" y="-5.0"/>
      <point x="679.9272727272728" y="91.39999999999999"/>
      <point x="679.9272727272728" y="233.25454545454548" type="curve" smooth="yes"/>
      <point x="679.9272727272728" y="425.04545454545456"/>
      <point x="564.1818181818181" y="555.6818181818182"/>
      <point x="378.6454545454546" y="555.6818181818182" type="curve" smooth="yes"/>
      <point x="183.0818181818182" y="555.6818181818182"/>
      <point x="34.472727272727276" y="371.47272727272724"/>
      <point x="34.472727272727276" y="187.13636363636363" type="curve" smooth="yes"/>
      <point x="34.472727272727276" y="65.97272727272727"/>
      <point x="90.5181818181818" y="-4.545454545454546"/>
      <point x="179.28181818181815" y="-4.545454545454546" type="curve" smooth="yes"/>
      <point x="260.8818181818182" y="-4.545454545454546"/>
      <point x="332.23636363636365" y="62.7"/>
      <point x="332.23636363636365" y="167.23636363636362" type="curve" smooth="yes"/>
      <point x="332.23636363636365" y="246.1"/>
      <point x="285.40000000000003" y="293.90909090909093"/>
      <point x="218.74545454545452" y="293.90909090909093" type="curve" smooth="yes"/>
      <point x="142.01818181818183" y="293.90909090909093"/>
      <point x="85.74545454545455" y="230.78181818181818"/>
      <point x="57.74545454545455" y="149.56363636363636" type="curve"/>
      <point x="74.19090909090909" y="121.81818181818181" type="line"/>
      <point x="101.90909090909092" y="197.52727272727273"/>
      <point x="142.1727272727273" y="246.0"/>
      <point x="199.0090909090909" y="246.0" type="curve" smooth="yes"/>
      <point x="244.69090909090912" y="246.0"/>
      <point x="271.1545454545454" y="214.5909090909091"/>
      <point x="271.1545454545454" y="157.55454545454543" type="curve" smooth="yes"/>
      <point x="271.1545454545454" y="88.06363636363636"/>
      <point x="230.4272727272727" y="36.27272727272727"/>
      <point x="173.8090909090909" y="36.27272727272727" type="curve" smooth="yes"/>
      <point x="113.59090909090908" y="36.27272727272727"/>
      <point x="75.39090909090909" y="90.41818181818181"/>
      <point x="75.39090909090909" y="188.92727272727274" type="curve" smooth="yes"/>
      <point x="75.39090909090909" y="347.4090909090909"/>
      <point x="202.62727272727273" y="515.3181818181819"/>
      <point x="374.33636363636367" y="515.3181818181819" type="curve" smooth="yes"/>
      <point x="534.1363636363636" y="515.3181818181819"/>
      <point x="617.7636363636362" y="389.8181818181818"/>
      <point x="617.7636363636362" y="229.9181818181818" type="curve" smooth="yes"/>
      <point x="617.7636363636362" y="116.01818181818182"/>
      <point x="566.8363636363637" y="36.76363636363636"/>
      <point x="498.6636363636364" y="36.76363636363636" type="curve" smooth="yes"/>
      <point x="455.53636363636366" y="36.76363636363636"/>
      <point x="432.3545454545455" y="78.30909090909091"/>
      <point x="432.3545454545455" y="152.11818181818182" type="curve" smooth="yes"/>
      <point x="432.3545454545455" y="311.22727272727275"/>
      <point x="567.2454545454545" y="515.3181818181819"/>
      <point x="752.1727272727272" y="515.3181818181819" type="curve" smooth="yes"/>
      <point x="910.5181818181818" y="515.3181818181819"/>
      <point x="968.0909090909091" y="389.00909090909096"/>
      <point x="968.0909090909091" y="240.12727272727273" type="curve" smooth="yes"/>
      <point x="968.0909090909091" y="124.46363636363635"/>
      <point x="915.3" y="36.76363636363636"/>
      <point x="847.7272727272729" y="36.76363636363636" type="curve" smooth="yes"/>
      <point x="804.0272727272727" y="36.76363636363636"/>
      <point x="782.6818181818182" y="74.7909090909091"/>
      <point x="782.6818181818182" y="147.9727272727273" type="curve" smooth="yes"/>
      <point x="782.6818181818182" y="314.6636363636364"/>
      <point x="934.1090909090909" y="508.6363636363636"/>
      <point x="1124.8" y="508.6363636363636" type="curve" smooth="yes"/>
      <point x="1390.6" y="508.6363636363636" type="line"/>
      <point x="1399.0363636363636" y="548.5454545454545" type="line"/>
      <point x="1130.5363636363636" y="548.5454545454545" type="line" smooth="yes"/>
      <point x="911.0363636363637" y="548.5454545454545"/>
      <point x="741.6454545454545" y="338.7818181818182"/>
      <point x="741.6454545454545" y="140.85454545454544" type="curve" smooth="yes"/>
      <point x="741.6454545454545" y="49.8"/>
      <point x="779.1272727272727" y="-5.0"/>
      <point x="853.4818181818181" y="-5.0" type="curve" smooth="yes"/>
      <point x="954.1818181818181" y="-5.0"/>
      <point x="1030.2545454545455" y="99.46363636363635"/>
      <point x="1030.2545454545455" y="243.46363636363637" type="curve" smooth="yes"/>
      <point x="1030.2545454545455" y="416.73636363636365"/>
      <point x="945.2454545454544" y="555.6818181818182"/>
      <point x="756.9272727272728" y="555.6818181818182" type="curve" smooth="yes"/>
      <point x="547.4181818181819" y="555.6818181818182"/>
      <point x="391.3181818181818" y="335.0727272727273"/>
      <point x="391.3181818181818" y="145.0" type="curve" smooth="yes"/>
      <point x="391.3181818181818" y="52.99090909090909"/>
      <point x="430.4727272727273" y="-5.0"/>
    </contour>
    <contour>
      <point x="1090.2818181818182" y="0.0" type="line"/>
      <point x="1151.6272727272728" y="0.0" type="line"/>
      <point x="1263.9272727272728" y="528.5454545454545" type="line"/>
      <point x="1202.7636363636364" y="528.5454545454545" type="line"/>
    </contour>
  </outline>
</glyph>
<glyph name="na-tamil" format="2">
  <advance width="636.1272727272726"/>
  <unicode hex="0BA8"/>
  <note>
uni0BA8
</note>
  <anchor x="258.1363636363636" y="0.0" name="bottom"/>
  <anchor x="493.9454545454546" y="548.5454545454545" name="imatra"/>
  <anchor x="238.5181818181818" y="-170.0909090909091" name="nukta"/>
  <anchor x="384.6454545454546" y="548.5454545454545" name="top"/>
  <anchor x="387.1454545454545" y="548.5454545454545" name="vedic"/>
  <outline>
    <contour>
      <point x="38.45454545454545" y="-221.34545454545457" type="curve"/>
      <point x="49.89090909090909" y="-163.9090909090909"/>
      <point x="76.8" y="-129.66363636363639"/>
      <point x="141.1818181818182" y="-129.66363636363639" type="curve" smooth="yes"/>
      <point x="248.1818181818182" y="-129.66363636363639" type="line" smooth="yes"/>
      <point x="433.90000000000003" y="-129.66363636363639"/>
      <point x="570.5727272727274" y="1.0909090909090904"/>
      <point x="570.5727272727274" y="199.9" type="curve" smooth="yes"/>
      <point x="570.5727272727274" y="286.94545454545454"/>
      <point x="530.5636363636364" y="337.27272727272725"/>
      <point x="461.0545454545455" y="337.27272727272725" type="curve" smooth="yes"/>
      <point x="412.03636363636366" y="337.27272727272725"/>
      <point x="379.97272727272724" y="307.3454545454546"/>
      <point x="360.02727272727276" y="278.0909090909091" type="curve"/>
      <point x="409.29090909090905" y="508.6363636363636" type="line"/>
      <point x="529.8727272727273" y="508.6363636363636" type="line"/>
      <point x="538.6909090909091" y="548.5454545454545" type="line"/>
      <point x="149.97272727272724" y="548.5454545454545" type="line"/>
      <point x="33.88181818181818" y="0.0" type="line"/>
      <point x="76.0" y="0.0" type="line"/>
      <point x="183.81818181818184" y="508.6363636363636" type="line"/>
      <point x="348.2272727272727" y="508.6363636363636" type="line"/>
      <point x="239.57272727272726" y="0.0" type="line"/>
      <point x="301.09090909090907" y="0.0" type="line"/>
      <point x="341.9363636363637" y="192.5909090909091" type="line" smooth="yes"/>
      <point x="352.1727272727273" y="241.0090909090909"/>
      <point x="387.3909090909091" y="291.1272727272727"/>
      <point x="437.32727272727277" y="291.1272727272727" type="curve" smooth="yes"/>
      <point x="482.03636363636366" y="291.1272727272727"/>
      <point x="505.8272727272727" y="258.8454545454545"/>
      <point x="505.8272727272727" y="195.9909090909091" type="curve" smooth="yes"/>
      <point x="505.8272727272727" y="29.56363636363636"/>
      <point x="410.5090909090909" y="-92.29090909090908"/>
      <point x="245.83636363636364" y="-92.29090909090908" type="curve" smooth="yes"/>
      <point x="119.10000000000001" y="-92.29090909090908" type="line" smooth="yes"/>
      <point x="45.18181818181819" y="-92.29090909090908"/>
      <point x="-12.545454545454547" y="-118.3"/>
      <point x="-12.545454545454547" y="-173.10909090909092" type="curve" smooth="yes"/>
      <point x="-12.545454545454547" y="-204.3272727272727"/>
      <point x="6.581818181818182" y="-221.34545454545457"/>
    </contour>
  </outline>
</glyph>
<glyph name="nnna-tamil" format="2">
  <advance width="1033.490909090909"/>
  <unicode hex="0BA9"/>
  <note>
uni0BA9
</note>
  <anchor x="463.2636363636364" y="0.0" name="bottom"/>
  <anchor x="972.3818181818182" y="548.5454545454545" name="imatra"/>
  <anchor x="463.8545454545455" y="0.0" name="nukta"/>
  <anchor x="596.6545454545454" y="548.5454545454545" name="top"/>
  <anchor x="591.7545454545455" y="548.5454545454545" name="vedic"/>
  <outline>
    <contour>
      <point x="179.28181818181815" y="-4.545454545454546" type="curve" smooth="yes"/>
      <point x="260.8818181818182" y="-4.545454545454546"/>
      <point x="332.23636363636365" y="62.7"/>
      <point x="332.23636363636365" y="167.23636363636362" type="curve" smooth="yes"/>
      <point x="332.23636363636365" y="246.1"/>
      <point x="285.40000000000003" y="293.90909090909093"/>
      <point x="218.74545454545452" y="293.90909090909093" type="curve" smooth="yes"/>
      <point x="142.01818181818183" y="293.90909090909093"/>
      <point x="85.74545454545455" y="230.78181818181818"/>
      <point x="57.74545454545455" y="149.56363636363636" type="curve"/>
      <point x="74.19090909090909" y="121.81818181818181" type="line"/>
      <point x="101.90909090909092" y="197.52727272727273"/>
      <point x="142.1727272727273" y="246.0"/>
      <point x="199.0090909090909" y="246.0" type="curve" smooth="yes"/>
      <point x="244.69090909090912" y="246.0"/>
      <point x="271.1545454545454" y="214.5909090909091"/>
      <point x="271.1545454545454" y="157.55454545454543" type="curve" smooth="yes"/>
      <point x="271.1545454545454" y="88.06363636363636"/>
      <point x="230.4272727272727" y="36.27272727272727"/>
      <point x="173.8090909090909" y="36.27272727272727" type="curve" smooth="yes"/>
      <point x="113.59090909090908" y="36.27272727272727"/>
      <point x="75.39090909090909" y="90.41818181818181"/>
      <point x="75.39090909090909" y="188.92727272727274" type="curve" smooth="yes"/>
      <point x="75.39090909090909" y="347.4090909090909"/>
      <point x="200.6090909090909" y="515.3181818181819"/>
      <point x="371.9090909090909" y="515.3181818181819" type="curve" smooth="yes"/>
      <point x="533.9181818181819" y="515.3181818181819"/>
      <point x="618.7454545454547" y="390.3636363636364"/>
      <point x="618.7454545454547" y="230.46363636363637" type="curve" smooth="yes"/>
      <point x="618.7454545454547" y="116.56363636363638"/>
      <point x="567.0818181818182" y="36.76363636363636"/>
      <point x="499.01818181818186" y="36.76363636363636" type="curve" smooth="yes"/>
      <point x="455.1818181818182" y="36.76363636363636"/>
      <point x="433.33636363636367" y="74.7909090909091"/>
      <point x="433.33636363636367" y="147.9727272727273" type="curve" smooth="yes"/>
      <point x="433.33636363636367" y="314.6636363636364"/>
      <point x="591.6545454545455" y="508.6363636363636"/>
      <point x="782.3454545454546" y="508.6363636363636" type="curve" smooth="yes"/>
      <point x="1060.0545454545454" y="508.6363636363636" type="line"/>
      <point x="1068.490909090909" y="548.5454545454545" type="line"/>
      <point x="788.0818181818181" y="548.5454545454545" type="line" smooth="yes"/>
      <point x="567.6272727272727" y="548.5454545454545"/>
      <point x="392.3" y="338.7818181818182"/>
      <point x="392.3" y="140.85454545454544" type="curve" smooth="yes"/>
      <point x="392.3" y="49.8"/>
      <point x="430.2818181818182" y="-5.0"/>
      <point x="504.77272727272725" y="-5.0" type="curve" smooth="yes"/>
      <point x="604.8181818181819" y="-5.0"/>
      <point x="680.9090909090909" y="94.23636363636362"/>
      <point x="680.9090909090909" y="233.8" type="curve" smooth="yes"/>
      <point x="680.9090909090909" y="425.72727272727275"/>
      <point x="564.2363636363638" y="555.6818181818182"/>
      <point x="376.2181818181818" y="555.6818181818182" type="curve" smooth="yes"/>
      <point x="180.92727272727276" y="555.6818181818182"/>
      <point x="34.472727272727276" y="371.47272727272724"/>
      <point x="34.472727272727276" y="187.13636363636363" type="curve" smooth="yes"/>
      <point x="34.472727272727276" y="65.97272727272727"/>
      <point x="90.5181818181818" y="-4.545454545454546"/>
    </contour>
    <contour>
      <point x="759.7363636363636" y="0.0" type="line"/>
      <point x="821.0818181818181" y="0.0" type="line"/>
      <point x="933.3818181818183" y="528.5454545454545" type="line"/>
      <point x="872.2181818181818" y="528.5454545454545" type="line"/>
    </contour>
  </outline>
</glyph>
<glyph name="pa-tamil" format="2">
  <advance width="720.8090909090909"/>
  <unicode hex="0BAA"/>
  <note>
uni0BAA
</note>
  <anchor x="303.6363636363636" y="0.0" name="bottom"/>
  <anchor x="680.6090909090909" y="548.5454545454545" name="imatra"/>
  <anchor x="303.6363636363636" y="0.0" name="nukta"/>
  <anchor x="418.8727272727273" y="548.5454545454545" name="top"/>
  <anchor x="417.95454545454544" y="548.5454545454545" name="vedic"/>
  <outline>
    <contour>
      <point x="32.9909090909091" y="0.0" type="line"/>
      <point x="571.2454545454545" y="0.0" type="line"/>
      <point x="687.8818181818182" y="548.5454545454545" type="line"/>
      <point x="626.7181818181817" y="548.5454545454545" type="line"/>
      <point x="518.3818181818182" y="39.90909090909091" type="line"/>
      <point x="103.12727272727274" y="39.90909090909091" type="line"/>
      <point x="211.3272727272727" y="548.5454545454545" type="line"/>
      <point x="149.56363636363636" y="548.5454545454545" type="line"/>
    </contour>
  </outline>
</glyph>
<glyph name="ya-tamil" format="2">
  <advance width="772.9545454545454"/>
  <unicode hex="0BAF"/>
  <note>
uni0BAF
</note>
  <anchor x="337.95454545454544" y="0.0" name="bottom"/>
  <anchor x="735.8818181818182" y="548.5454545454545" name="imatra"/>
  <anchor x="339.1" y="0.0" name="nukta"/>
  <anchor x="456.7181818181818" y="548.5454545454545" name="top"/>
  <anchor x="447.74545454545455" y="548.5454545454545" name="vedic"/>
  <outline>
    <contour>
      <point x="150.84545454545454" y="-5.0" type="curve" smooth="yes"/>
      <point x="203.75454545454548" y="-5.0"/>
      <point x="238.80909090909094" y="26.27272727272727"/>
      <point x="258.19090909090914" y="54.77272727272727" type="curve"/>
      <point x="246.2909090909091" y="0.0" type="line"/>
      <point x="623.3909090909091" y="0.0" type="line"/>
      <point x="740.1818181818182" y="548.5454545454545" type="line"/>
      <point x="678.1181818181818" y="548.5454545454545" type="line"/>
      <point x="570.1636363636364" y="39.90909090909091" type="line"/>
      <point x="312.1454545454546" y="39.90909090909091" type="line"/>
      <point x="419.9636363636364" y="548.5454545454545" type="line"/>
      <point x="358.74545454545455" y="548.5454545454545" type="line"/>
      <point x="272.19090909090914" y="138.76363636363638" type="line" smooth="yes"/>
      <point x="259.89090909090913" y="80.34545454545454"/>
      <point x="222.83636363636361" y="40.09090909090909"/>
      <point x="175.20909090909092" y="40.09090909090909" type="curve" smooth="yes"/>
      <point x="129.63636363636363" y="40.09090909090909"/>
      <point x="106.77272727272728" y="79.00909090909092"/>
      <point x="121.0" y="145.70909090909092" type="curve" smooth="yes"/>
      <point x="207.23636363636365" y="548.5454545454545" type="line"/>
      <point x="145.95454545454547" y="548.5454545454545" type="line"/>
      <point x="61.67272727272727" y="153.56363636363633" type="line" smooth="yes"/>
      <point x="40.41818181818182" y="54.41818181818182"/>
      <point x="81.41818181818182" y="-5.0"/>
    </contour>
  </outline>
</glyph>
<glyph name="ra-tamil" format="2">
  <advance width="542.1454545454545"/>
  <unicode hex="0BB0"/>
  <note>
uni0BB0
</note>
  <anchor x="220.8909090909091" y="0.0" name="bottom"/>
  <anchor x="521.209090909091" y="548.5454545454545" name="imatra"/>
  <anchor x="180.86363636363635" y="-183.54545454545456" name="nukta"/>
  <anchor x="355.02727272727276" y="548.5454545454545" name="top"/>
  <anchor x="361.49090909090904" y="548.5454545454545" name="vedic"/>
  <outline>
    <contour>
      <point x="98.55454545454543" y="-207.4090909090909" type="line"/>
      <point x="319.1181818181818" y="11.272727272727273" type="line"/>
      <point x="424.6636363636364" y="508.6363636363636" type="line"/>
      <point x="568.709090909091" y="508.6363636363636" type="line"/>
      <point x="576.9818181818182" y="548.5454545454545" type="line"/>
      <point x="149.56363636363636" y="548.5454545454545" type="line"/>
      <point x="32.9909090909091" y="0.0" type="line"/>
      <point x="75.87272727272729" y="0.0" type="line"/>
      <point x="183.6909090909091" y="508.6363636363636" type="line"/>
      <point x="363.28181818181815" y="508.6363636363636" type="line"/>
      <point x="256.6" y="6.145454545454546" type="line"/>
      <point x="71.15454545454546" y="-178.70909090909092" type="line"/>
    </contour>
  </outline>
</glyph>
<glyph name="rra-tamil" format="2">
  <advance width="690.9181818181819"/>
  <unicode hex="0BB1"/>
  <note>
uni0BB1
</note>
  <anchor x="284.20909090909095" y="0.0" name="bottom"/>
  <anchor x="250.23636363636362" y="-168.0909090909091" name="nukta"/>
  <anchor x="388.8818181818182" y="548.5454545454545" name="top"/>
  <anchor x="408.3818181818181" y="548.5454545454545" name="vedic"/>
  <outline>
    <contour>
      <point x="41.118181818181824" y="-215.61818181818182" type="curve"/>
      <point x="52.554545454545455" y="-158.1818181818182"/>
      <point x="79.78181818181818" y="-124.08181818181819"/>
      <point x="144.16363636363639" y="-124.08181818181819" type="curve" smooth="yes"/>
      <point x="245.15454545454546" y="-124.08181818181819" type="line" smooth="yes"/>
      <point x="499.2363636363637" y="-124.08181818181819"/>
      <point x="642.8181818181818" y="81.75454545454545"/>
      <point x="642.8181818181818" y="350.57272727272726" type="curve" smooth="yes"/>
      <point x="642.8181818181818" y="481.3363636363636"/>
      <point x="580.9272727272728" y="555.3636363636364"/>
      <point x="487.9363636363636" y="555.3636363636364" type="curve" smooth="yes"/>
      <point x="417.3545454545454" y="555.3636363636364"/>
      <point x="375.3181818181818" y="510.30909090909086"/>
      <point x="352.32727272727277" y="473.3818181818182" type="curve"/>
      <point x="343.37272727272733" y="510.4727272727273"/>
      <point x="314.25454545454545" y="554.8181818181819"/>
      <point x="249.39090909090908" y="554.8181818181819" type="curve" smooth="yes"/>
      <point x="183.84545454545457" y="554.8181818181819"/>
      <point x="133.76363636363638" y="506.4818181818182"/>
      <point x="115.91818181818182" y="421.6" type="curve" smooth="yes"/>
      <point x="26.390909090909087" y="0.0" type="line"/>
      <point x="68.50909090909092" y="0.0" type="line"/>
      <point x="157.30909090909094" y="419.2636363636363" type="line" smooth="yes"/>
      <point x="170.0" y="480.12727272727267"/>
      <point x="198.88181818181818" y="514.4545454545455"/>
      <point x="247.04545454545456" y="514.4545454545455" type="curve" smooth="yes"/>
      <point x="300.71818181818185" y="514.4545454545455"/>
      <point x="320.3818181818182" y="466.3363636363636"/>
      <point x="307.3545454545454" y="404.93636363636364" type="curve" smooth="yes"/>
      <point x="221.26363636363635" y="0.0" type="line"/>
      <point x="282.80909090909097" y="0.0" type="line"/>
      <point x="370.0454545454545" y="408.9" type="line" smooth="yes"/>
      <point x="384.6545454545455" y="475.70909090909095"/>
      <point x="428.59090909090907" y="515.0"/>
      <point x="482.1181818181818" y="515.0" type="curve" smooth="yes"/>
      <point x="540.8363636363638" y="515.0"/>
      <point x="581.7818181818183" y="468.9909090909091"/>
      <point x="581.7818181818183" y="359.6909090909091" type="curve" smooth="yes"/>
      <point x="581.7818181818183" y="110.1"/>
      <point x="461.20909090909095" y="-85.79999999999998"/>
      <point x="246.79090909090908" y="-85.79999999999998" type="curve" smooth="yes"/>
      <point x="121.76363636363638" y="-85.79999999999998" type="line" smooth="yes"/>
      <point x="47.845454545454544" y="-85.79999999999998"/>
      <point x="-9.881818181818181" y="-112.57272727272726"/>
      <point x="-9.881818181818181" y="-167.38181818181818" type="curve" smooth="yes"/>
      <point x="-9.881818181818181" y="-198.6"/>
      <point x="9.245454545454546" y="-215.61818181818182"/>
    </contour>
  </outline>
</glyph>
<glyph name="la-tamil" format="2">
  <advance width="834.2363636363636"/>
  <unicode hex="0BB2"/>
  <note>
uni0BB2
</note>
  <anchor x="362.1727272727273" y="0.0" name="bottom"/>
  <anchor x="362.1727272727273" y="0.0" name="nukta"/>
  <anchor x="493.80000000000007" y="548.5454545454545" name="top"/>
  <anchor x="475.04545454545456" y="548.5454545454545" name="vedic"/>
  <outline>
    <contour>
      <point x="180.44545454545457" y="-4.545454545454546" type="curve" smooth="yes"/>
      <point x="262.0454545454545" y="-4.545454545454546"/>
      <point x="333.4" y="62.7"/>
      <point x="333.4" y="167.23636363636362" type="curve" smooth="yes"/>
      <point x="333.4" y="246.1"/>
      <point x="286.56363636363636" y="293.90909090909093"/>
      <point x="219.9090909090909" y="293.90909090909093" type="curve" smooth="yes"/>
      <point x="143.1818181818182" y="293.90909090909093"/>
      <point x="86.90909090909092" y="230.78181818181818"/>
      <point x="58.90909090909091" y="149.56363636363636" type="curve"/>
      <point x="75.35454545454546" y="121.81818181818181" type="line"/>
      <point x="103.07272727272728" y="197.52727272727273"/>
      <point x="143.33636363636364" y="246.0"/>
      <point x="200.1727272727273" y="246.0" type="curve" smooth="yes"/>
      <point x="245.85454545454547" y="246.0"/>
      <point x="272.3181818181818" y="214.5909090909091"/>
      <point x="272.3181818181818" y="157.55454545454543" type="curve" smooth="yes"/>
      <point x="272.3181818181818" y="88.06363636363636"/>
      <point x="231.5909090909091" y="36.27272727272727"/>
      <point x="174.9727272727273" y="36.27272727272727" type="curve" smooth="yes"/>
      <point x="114.75454545454548" y="36.27272727272727"/>
      <point x="76.55454545454545" y="90.41818181818181"/>
      <point x="76.55454545454545" y="188.92727272727274" type="curve" smooth="yes"/>
      <point x="76.55454545454545" y="343.59090909090907"/>
      <point x="179.16363636363636" y="515.0"/>
      <point x="341.6545454545455" y="515.0" type="curve" smooth="yes"/>
      <point x="452.06363636363636" y="515.0"/>
      <point x="494.59999999999997" y="435.22727272727275"/>
      <point x="468.7363636363637" y="320.87272727272733" type="curve" smooth="yes"/>
      <point x="433.05454545454546" y="163.29090909090908" type="line" smooth="yes"/>
      <point x="412.58181818181816" y="72.58181818181819"/>
      <point x="441.63636363636357" y="-1.8181818181818181"/>
      <point x="536.1727272727273" y="-1.8181818181818181" type="curve" smooth="yes"/>
      <point x="677.7727272727273" y="-1.8181818181818181"/>
      <point x="793.190909090909" y="156.44545454545457"/>
      <point x="793.190909090909" y="361.8272727272727" type="curve" smooth="yes"/>
      <point x="793.190909090909" y="437.8181818181818"/>
      <point x="775.2909090909092" y="496.2363636363637"/>
      <point x="746.4181818181819" y="553.709090909091" type="curve"/>
      <point x="706.590909090909" y="533.0727272727272" type="line"/>
      <point x="730.8818181818183" y="484.20909090909095"/>
      <point x="751.2" y="425.83636363636367"/>
      <point x="751.2" y="357.1363636363636" type="curve" smooth="yes"/>
      <point x="751.2" y="184.96363636363634"/>
      <point x="654.8545454545455" y="41.27272727272727"/>
      <point x="550.7272727272727" y="41.27272727272727" type="curve" smooth="yes"/>
      <point x="489.41818181818184" y="41.27272727272727"/>
      <point x="479.59090909090907" y="92.44545454545455"/>
      <point x="494.91818181818184" y="161.83636363636364" type="curve" smooth="yes"/>
      <point x="529.8000000000001" y="319.3818181818182" type="line" smooth="yes"/>
      <point x="561.3272727272728" y="462.0181818181818"/>
      <point x="493.0727272727272" y="555.3636363636364"/>
      <point x="349.40000000000003" y="555.3636363636364" type="curve" smooth="yes"/>
      <point x="159.4818181818182" y="555.3636363636364"/>
      <point x="35.63636363636363" y="367.6545454545454"/>
      <point x="35.63636363636363" y="187.13636363636363" type="curve" smooth="yes"/>
      <point x="35.63636363636363" y="65.97272727272727"/>
      <point x="91.68181818181819" y="-4.545454545454546"/>
    </contour>
  </outline>
</glyph>
<glyph name="lla-tamil" format="2">
  <advance width="985.6999999999999"/>
  <unicode hex="0BB3"/>
  <note>
uni0BB3
</note>
  <anchor x="448.8" y="0.0" name="bottom"/>
  <anchor x="960.9363636363637" y="548.5454545454545" name="imatra"/>
  <anchor x="450.57272727272726" y="0.0" name="nukta"/>
  <anchor x="595.490909090909" y="548.5454545454545" name="top"/>
  <anchor x="568.3272727272728" y="548.5454545454545" name="vedic"/>
  <outline>
    <contour>
      <point x="181.52727272727273" y="-4.545454545454546" type="curve" smooth="yes"/>
      <point x="263.12727272727267" y="-4.545454545454546"/>
      <point x="334.4818181818182" y="62.7"/>
      <point x="334.4818181818182" y="167.23636363636362" type="curve" smooth="yes"/>
      <point x="334.4818181818182" y="246.1"/>
      <point x="287.6454545454546" y="293.90909090909093"/>
      <point x="220.9909090909091" y="293.90909090909093" type="curve" smooth="yes"/>
      <point x="144.26363636363638" y="293.90909090909093"/>
      <point x="87.9909090909091" y="230.78181818181818"/>
      <point x="59.9909090909091" y="149.56363636363636" type="curve"/>
      <point x="76.43636363636364" y="121.81818181818181" type="line"/>
      <point x="104.15454545454546" y="197.52727272727273"/>
      <point x="144.41818181818184" y="246.0"/>
      <point x="201.25454545454548" y="246.0" type="curve" smooth="yes"/>
      <point x="246.93636363636367" y="246.0"/>
      <point x="273.40000000000003" y="214.5909090909091"/>
      <point x="273.40000000000003" y="157.55454545454543" type="curve" smooth="yes"/>
      <point x="273.40000000000003" y="88.06363636363636"/>
      <point x="232.6727272727273" y="36.27272727272727"/>
      <point x="176.05454545454546" y="36.27272727272727" type="curve" smooth="yes"/>
      <point x="115.83636363636364" y="36.27272727272727"/>
      <point x="77.63636363636363" y="90.41818181818181"/>
      <point x="77.63636363636363" y="188.92727272727274" type="curve" smooth="yes"/>
      <point x="77.63636363636363" y="345.52727272727276"/>
      <point x="175.3272727272727" y="515.0"/>
      <point x="338.9818181818182" y="515.0" type="curve" smooth="yes"/>
      <point x="460.9090909090909" y="515.0"/>
      <point x="537.6727272727272" y="429.77272727272725"/>
      <point x="507.44545454545454" y="283.4818181818182" type="curve"/>
      <point x="547.3" y="286.5" type="line"/>
      <point x="579.2181818181818" y="453.74545454545455"/>
      <point x="488.5636363636363" y="555.3636363636364"/>
      <point x="341.82727272727277" y="555.3636363636364" type="curve" smooth="yes"/>
      <point x="152.54545454545456" y="555.3636363636364"/>
      <point x="36.71818181818182" y="369.59090909090907"/>
      <point x="36.71818181818182" y="187.13636363636363" type="curve" smooth="yes"/>
      <point x="36.71818181818182" y="65.97272727272727"/>
      <point x="92.76363636363637" y="-4.545454545454546"/>
    </contour>
    <contour>
      <point x="446.77272727272725" y="0.0" type="line"/>
      <point x="507.93636363636364" y="0.0" type="line"/>
      <point x="616.2363636363636" y="508.6363636363636" type="line"/>
      <point x="807.8545454545455" y="508.6363636363636" type="line"/>
      <point x="699.5818181818182" y="0.0" type="line"/>
      <point x="761.0363636363636" y="0.0" type="line"/>
      <point x="869.2363636363636" y="508.6363636363636" type="line"/>
      <point x="1012.2636363636365" y="508.6363636363636" type="line"/>
      <point x="1020.9181818181819" y="548.5454545454545" type="line"/>
      <point x="571.0363636363636" y="548.5454545454545" type="line"/>
      <point x="535.8636363636364" y="382.6454545454546" type="line"/>
      <point x="525.0363636363636" y="368.1" type="line"/>
    </contour>
  </outline>
</glyph>
<glyph name="va-tamil" format="2">
  <advance width="919.2454545454545"/>
  <unicode hex="0BB5"/>
  <note>
uni0BB5
</note>
  <anchor x="423.16363636363633" y="0.0" name="bottom"/>
  <anchor x="836.6272727272727" y="548.5454545454545" name="imatra"/>
  <anchor x="423.16363636363633" y="0.0" name="nukta"/>
  <anchor x="516.6090909090909" y="548.5454545454545" name="top"/>
  <anchor x="504.71818181818173" y="548.5454545454545" name="vedic"/>
  <outline>
    <contour>
      <point x="179.46363636363637" y="-4.545454545454546" type="curve" smooth="yes"/>
      <point x="261.0636363636363" y="-4.545454545454546"/>
      <point x="332.41818181818184" y="62.7"/>
      <point x="332.41818181818184" y="167.23636363636362" type="curve" smooth="yes"/>
      <point x="332.41818181818184" y="246.1"/>
      <point x="285.58181818181816" y="293.90909090909093"/>
      <point x="218.9272727272727" y="293.90909090909093" type="curve" smooth="yes"/>
      <point x="142.20000000000002" y="293.90909090909093"/>
      <point x="85.92727272727274" y="230.78181818181818"/>
      <point x="57.92727272727273" y="149.56363636363636" type="curve"/>
      <point x="74.37272727272726" y="121.81818181818181" type="line"/>
      <point x="102.0909090909091" y="197.52727272727273"/>
      <point x="142.35454545454547" y="246.0"/>
      <point x="199.1909090909091" y="246.0" type="curve" smooth="yes"/>
      <point x="244.8727272727273" y="246.0"/>
      <point x="271.3363636363636" y="214.5909090909091"/>
      <point x="271.3363636363636" y="157.55454545454543" type="curve" smooth="yes"/>
      <point x="271.3363636363636" y="88.06363636363636"/>
      <point x="230.6090909090909" y="36.27272727272727"/>
      <point x="173.9909090909091" y="36.27272727272727" type="curve" smooth="yes"/>
      <point x="113.77272727272728" y="36.27272727272727"/>
      <point x="75.57272727272726" y="90.41818181818181"/>
      <point x="75.57272727272726" y="188.92727272727274" type="curve" smooth="yes"/>
      <point x="75.57272727272726" y="341.95454545454544"/>
      <point x="194.78181818181815" y="515.3181818181819"/>
      <point x="356.1909090909091" y="515.3181818181819" type="curve" smooth="yes"/>
      <point x="474.06363636363636" y="515.3181818181819"/>
      <point x="535.1727272727272" y="438.77272727272725"/>
      <point x="535.1727272727272" y="321.6" type="curve" smooth="yes"/>
      <point x="535.1727272727272" y="212.4181818181818"/>
      <point x="482.99090909090904" y="115.81818181818183"/>
      <point x="408.44545454545454" y="30.945454545454545" type="curve"/>
      <point x="417.44545454545454" y="0.0" type="line"/>
      <point x="769.6818181818181" y="0.0" type="line"/>
      <point x="886.6363636363636" y="548.5454545454545" type="line"/>
      <point x="824.7727272727273" y="548.5454545454545" type="line"/>
      <point x="716.6545454545454" y="39.90909090909091" type="line"/>
      <point x="466.7181818181818" y="39.90909090909091" type="line"/>
      <point x="540.8909090909091" y="118.45454545454545"/>
      <point x="597.4636363636364" y="211.9181818181818"/>
      <point x="597.4636363636364" y="330.1818181818182" type="curve" smooth="yes"/>
      <point x="597.4636363636364" y="473.2181818181818"/>
      <point x="505.20909090909095" y="555.6818181818182"/>
      <point x="363.8272727272727" y="555.6818181818182" type="curve" smooth="yes"/>
      <point x="173.6818181818182" y="555.6818181818182"/>
      <point x="34.654545454545456" y="365.2"/>
      <point x="34.654545454545456" y="187.13636363636363" type="curve" smooth="yes"/>
      <point x="34.654545454545456" y="65.97272727272727"/>
      <point x="90.7" y="-4.545454545454546"/>
    </contour>
  </outline>
</glyph>
<glyph name="sha-tamil" format="2">
  <advance width="902.0000000000001"/>
  <unicode hex="0BB6"/>
  <note>
uni0BB6
</note>
  <anchor x="405.9272727272727" y="0.0" name="bottom"/>
  <anchor x="760.0909090909091" y="548.5454545454545" name="imatra"/>
  <anchor x="405.9272727272727" y="0.0" name="nukta"/>
  <anchor x="523.9363636363637" y="548.5454545454545" name="top"/>
  <anchor x="527.9" y="548.5454545454545" name="vedic"/>
  <outline>
    <contour>
      <point x="198.61818181818182" y="-6.818181818181818" type="curve" smooth="yes"/>
      <point x="283.46363636363634" y="-6.818181818181818"/>
      <point x="353.08181818181816" y="37.08181818181818"/>
      <point x="380.82727272727277" y="167.85454545454544" type="curve" smooth="yes"/>
      <point x="453.31818181818187" y="508.6363636363636" type="line"/>
      <point x="576.1" y="508.6363636363636" type="line"/>
      <point x="500.8909090909091" y="157.75454545454548" type="line" smooth="yes"/>
      <point x="480.2454545454545" y="61.599999999999994"/>
      <point x="511.8272727272727" y="-6.818181818181818"/>
      <point x="599.4727272727273" y="-6.818181818181818" type="curve" smooth="yes"/>
      <point x="760.0454545454546" y="-6.818181818181818"/>
      <point x="874.2272727272727" y="244.44545454545457"/>
      <point x="874.2272727272727" y="426.8181818181818" type="curve" smooth="yes"/>
      <point x="874.2272727272727" y="510.4545454545454"/>
      <point x="836.3090909090909" y="548.5454545454545"/>
      <point x="763.6727272727272" y="548.5454545454545" type="curve" smooth="yes"/>
      <point x="419.4454545454546" y="548.5454545454545" type="line"/>
      <point x="338.6636363636364" y="170.11818181818182" type="line" smooth="yes"/>
      <point x="317.08181818181816" y="68.32727272727271"/>
      <point x="266.3818181818182" y="36.27272727272727"/>
      <point x="209.63636363636363" y="36.27272727272727" type="curve" smooth="yes"/>
      <point x="134.36363636363635" y="36.27272727272727"/>
      <point x="112.58181818181818" y="99.88181818181818"/>
      <point x="130.65454545454548" y="185.16363636363636" type="curve" smooth="yes"/>
      <point x="208.5818181818182" y="548.5454545454545" type="line"/>
      <point x="146.27272727272728" y="548.5454545454545" type="line"/>
      <point x="68.9" y="186.30909090909094" type="line" smooth="yes"/>
      <point x="45.30909090909091" y="78.4090909090909"/>
      <point x="89.15454545454546" y="-6.818181818181818"/>
    </contour>
    <contour>
      <point x="612.1454545454546" y="36.27272727272727" type="curve" smooth="yes"/>
      <point x="554.5454545454546" y="36.27272727272727"/>
      <point x="547.9181818181819" y="89.14545454545454"/>
      <point x="562.6818181818181" y="157.1090909090909" type="curve" smooth="yes"/>
      <point x="637.6727272727272" y="508.6363636363636" type="line"/>
      <point x="753.4545454545454" y="508.6363636363636" type="line" smooth="yes"/>
      <point x="808.2363636363636" y="508.6363636363636"/>
      <point x="831.8363636363637" y="483.3272727272727"/>
      <point x="831.8363636363637" y="424.0909090909091" type="curve" smooth="yes"/>
      <point x="831.8363636363637" y="278.1363636363637"/>
      <point x="731.7727272727273" y="36.27272727272727"/>
    </contour>
  </outline>
</glyph>
<glyph name="ssa-tamil" format="2">
  <advance width="1135.3"/>
  <unicode hex="0BB7"/>
  <note>
uni0BB7
</note>
  <anchor x="523.4454545454545" y="0.0" name="bottom"/>
  <anchor x="467.5363636363636" y="0.0" name="nukta"/>
  <anchor x="651.8636363636363" y="548.5454545454545" name="top"/>
  <anchor x="632.3181818181819" y="548.5454545454545" name="vedic"/>
  <outline>
    <contour>
      <point x="179.6" y="-4.545454545454546" type="curve" smooth="yes"/>
      <point x="261.2" y="-4.545454545454546"/>
      <point x="332.55454545454546" y="62.7"/>
      <point x="332.55454545454546" y="167.23636363636362" type="curve" smooth="yes"/>
      <point x="332.55454545454546" y="246.1"/>
      <point x="285.71818181818185" y="293.90909090909093"/>
      <point x="219.06363636363633" y="293.90909090909093" type="curve" smooth="yes"/>
      <point x="142.33636363636364" y="293.90909090909093"/>
      <point x="86.06363636363638" y="230.78181818181818"/>
      <point x="58.06363636363636" y="149.56363636363636" type="curve"/>
      <point x="74.50909090909092" y="121.81818181818181" type="line"/>
      <point x="102.22727272727273" y="197.52727272727273"/>
      <point x="142.4909090909091" y="246.0"/>
      <point x="199.3272727272727" y="246.0" type="curve" smooth="yes"/>
      <point x="245.00909090909093" y="246.0"/>
      <point x="271.47272727272724" y="214.5909090909091"/>
      <point x="271.47272727272724" y="157.55454545454543" type="curve" smooth="yes"/>
      <point x="271.47272727272724" y="88.06363636363636"/>
      <point x="230.74545454545452" y="36.27272727272727"/>
      <point x="174.12727272727273" y="36.27272727272727" type="curve" smooth="yes"/>
      <point x="113.9090909090909" y="36.27272727272727"/>
      <point x="75.70909090909092" y="90.41818181818181"/>
      <point x="75.70909090909092" y="188.92727272727274" type="curve" smooth="yes"/>
      <point x="75.70909090909092" y="341.95454545454544"/>
      <point x="193.55454545454546" y="515.3181818181819"/>
      <point x="354.9636363636364" y="515.3181818181819" type="curve" smooth="yes"/>
      <point x="471.20000000000005" y="515.3181818181819"/>
      <point x="535.3090909090909" y="437.1636363636364"/>
      <point x="535.3090909090909" y="319.99090909090904" type="curve" smooth="yes"/>
      <point x="535.3090909090909" y="210.8090909090909"/>
      <point x="483.12727272727267" y="115.81818181818183"/>
      <point x="408.5818181818182" y="30.945454545454545" type="curve"/>
      <point x="417.5818181818181" y="0.0" type="line"/>
      <point x="1019.9909090909091" y="0.0" type="line"/>
      <point x="1087.4545454545453" y="315.56363636363636" type="line"/>
      <point x="1018.1363636363636" y="284.1090909090909" type="line"/>
      <point x="966.5545454545456" y="39.90909090909091" type="line"/>
      <point x="466.8545454545455" y="39.90909090909091" type="line"/>
      <point x="541.0272727272727" y="118.45454545454545"/>
      <point x="597.6" y="210.3090909090909"/>
      <point x="597.6" y="328.5727272727273" type="curve" smooth="yes"/>
      <point x="597.6" y="471.6090909090909"/>
      <point x="505.1272727272728" y="555.6818181818182"/>
      <point x="361.94545454545454" y="555.6818181818182" type="curve" smooth="yes"/>
      <point x="171.8" y="555.6818181818182"/>
      <point x="34.790909090909096" y="365.69090909090914"/>
      <point x="34.790909090909096" y="187.13636363636363" type="curve" smooth="yes"/>
      <point x="34.790909090909096" y="65.97272727272727"/>
      <point x="90.83636363636363" y="-4.545454545454546"/>
    </contour>
    <contour>
      <point x="712.7090909090911" y="-252.3727272727273" type="line"/>
      <point x="773.8727272727273" y="-252.3727272727273" type="line"/>
      <point x="918.2272727272726" y="426.6454545454545" type="line" smooth="yes"/>
      <point x="934.7272727272727" y="503.7181818181818"/>
      <point x="905.7545454545455" y="555.3636363636364"/>
      <point x="834.4909090909091" y="555.3636363636364" type="curve" smooth="yes"/>
      <point x="750.5454545454546" y="555.3636363636364"/>
      <point x="687.509090909091" y="467.25454545454545"/>
      <point x="687.509090909091" y="372.5" type="curve" smooth="yes"/>
      <point x="687.509090909091" y="278.03636363636366"/>
      <point x="747.6181818181819" y="220.12727272727275"/>
      <point x="843.4181818181818" y="220.12727272727275" type="curve" smooth="yes"/>
      <point x="922.9454545454546" y="220.12727272727275"/>
      <point x="995.3272727272727" y="245.5727272727273"/>
      <point x="1086.4545454545453" y="310.5" type="curve"/>
      <point x="1088.4545454545453" y="320.8636363636364" type="line"/>
      <point x="1069.909090909091" y="343.17272727272723" type="line"/>
      <point x="989.9636363636364" y="285.8181818181818"/>
      <point x="921.7363636363636" y="259.56363636363636"/>
      <point x="848.2818181818182" y="259.56363636363636" type="curve" smooth="yes"/>
      <point x="768.7272727272727" y="259.56363636363636"/>
      <point x="727.2090909090908" y="298.42727272727274"/>
      <point x="727.2090909090908" y="376.03636363636366" type="curve" smooth="yes"/>
      <point x="727.2090909090908" y="439.73636363636365"/>
      <point x="763.6636363636363" y="512.709090909091"/>
      <point x="818.6909090909091" y="512.709090909091" type="curve" smooth="yes"/>
      <point x="856.509090909091" y="512.709090909091"/>
      <point x="868.7818181818183" y="482.5727272727273"/>
      <point x="858.3909090909091" y="433.93636363636364" type="curve" smooth="yes"/>
    </contour>
  </outline>
</glyph>
<glyph name="sa-tamil" format="2">
  <advance width="1063.7454545454545"/>
  <unicode hex="0BB8"/>
  <note>
uni0BB8
</note>
  <anchor x="480.4545454545455" y="0.0" name="bottom"/>
  <anchor x="480.4545454545455" y="0.0" name="nukta"/>
  <anchor x="586.5272727272727" y="548.5454545454545" name="top"/>
  <anchor x="588.8363636363637" y="548.5454545454545" name="vedic"/>
  <outline>
    <contour>
      <point x="414.70909090909095" y="0.0" type="line"/>
      <point x="476.1181818181819" y="0.0" type="line"/>
      <point x="566.6545454545455" y="426.07272727272726" type="line" smooth="yes"/>
      <point x="578.8181818181819" y="482.04545454545456"/>
      <point x="608.1363636363636" y="514.4545454545455"/>
      <point x="656.0272727272726" y="514.4545454545455" type="curve" smooth="yes"/>
      <point x="705.2818181818183" y="514.4545454545455"/>
      <point x="729.7636363636364" y="475.4090909090909"/>
      <point x="716.7454545454545" y="414.75454545454545" type="curve" smooth="yes"/>
      <point x="662.5636363636364" y="162.97272727272727" type="line" smooth="yes"/>
      <point x="642.5727272727272" y="72.26363636363638"/>
      <point x="671.1454545454545" y="-1.8181818181818181"/>
      <point x="765.6818181818181" y="-1.8181818181818181" type="curve" smooth="yes"/>
      <point x="907.2818181818182" y="-1.8181818181818181"/>
      <point x="1022.6999999999999" y="156.44545454545457"/>
      <point x="1022.6999999999999" y="361.8272727272727" type="curve" smooth="yes"/>
      <point x="1022.6999999999999" y="437.8181818181818"/>
      <point x="1005.6181818181818" y="495.9090909090909"/>
      <point x="977.0727272727273" y="553.5454545454545" type="curve"/>
      <point x="936.9181818181819" y="533.2363636363636" type="line"/>
      <point x="961.0454545454545" y="484.20909090909095"/>
      <point x="980.7090909090908" y="425.83636363636367"/>
      <point x="980.7090909090908" y="357.1363636363636" type="curve" smooth="yes"/>
      <point x="980.7090909090908" y="184.96363636363634"/>
      <point x="884.3636363636364" y="41.27272727272727"/>
      <point x="780.2363636363636" y="41.27272727272727" type="curve" smooth="yes"/>
      <point x="718.9272727272728" y="41.27272727272727"/>
      <point x="709.1" y="92.28181818181817"/>
      <point x="724.4272727272728" y="161.83636363636364" type="curve" smooth="yes"/>
      <point x="776.1363636363636" y="404.77272727272725" type="line" smooth="yes"/>
      <point x="794.1000000000001" y="489.56363636363636"/>
      <point x="754.0272727272727" y="555.3636363636364"/>
      <point x="668.7272727272727" y="555.3636363636364" type="curve" smooth="yes"/>
      <point x="595.4363636363637" y="555.3636363636364"/>
      <point x="544.5636363636364" y="501.5454545454545"/>
      <point x="529.5181818181818" y="432.45454545454544" type="curve" smooth="yes"/>
      <point x="514.4909090909091" y="363.30909090909086" type="line"/>
      <point x="491.4636363636364" y="363.30909090909086" type="line"/>
    </contour>
    <contour>
      <point x="179.97272727272727" y="-4.545454545454546" type="curve" smooth="yes"/>
      <point x="261.57272727272726" y="-4.545454545454546"/>
      <point x="333.56363636363636" y="62.7"/>
      <point x="333.56363636363636" y="167.23636363636362" type="curve" smooth="yes"/>
      <point x="333.56363636363636" y="246.1"/>
      <point x="286.7272727272727" y="293.90909090909093"/>
      <point x="220.0727272727273" y="293.90909090909093" type="curve" smooth="yes"/>
      <point x="143.34545454545454" y="293.90909090909093"/>
      <point x="87.07272727272728" y="230.78181818181818"/>
      <point x="59.07272727272728" y="149.56363636363636" type="curve"/>
      <point x="75.51818181818183" y="121.81818181818181" type="line"/>
      <point x="103.23636363636362" y="197.52727272727273"/>
      <point x="143.5" y="246.0"/>
      <point x="200.33636363636361" y="246.0" type="curve" smooth="yes"/>
      <point x="246.01818181818177" y="246.0"/>
      <point x="272.48181818181814" y="214.5909090909091"/>
      <point x="272.48181818181814" y="157.55454545454543" type="curve" smooth="yes"/>
      <point x="272.48181818181814" y="88.06363636363636"/>
      <point x="231.11818181818185" y="36.27272727272727"/>
      <point x="174.5" y="36.27272727272727" type="curve" smooth="yes"/>
      <point x="114.28181818181817" y="36.27272727272727"/>
      <point x="76.71818181818182" y="90.41818181818181"/>
      <point x="76.71818181818182" y="188.92727272727274" type="curve" smooth="yes"/>
      <point x="76.71818181818182" y="343.1818181818182"/>
      <point x="177.28181818181818" y="515.0"/>
      <point x="340.04545454545456" y="515.0" type="curve" smooth="yes"/>
      <point x="445.45454545454544" y="515.0"/>
      <point x="509.57272727272726" y="448.7454545454545"/>
      <point x="483.24545454545455" y="323.07272727272726" type="curve"/>
      <point x="524.4818181818181" y="325.2090909090909" type="line"/>
      <point x="553.8818181818183" y="469.6545454545454"/>
      <point x="475.5727272727273" y="555.3636363636364"/>
      <point x="347.7909090909091" y="555.3636363636364" type="curve" smooth="yes"/>
      <point x="157.6" y="555.3636363636364"/>
      <point x="35.8" y="367.24545454545455"/>
      <point x="35.8" y="187.13636363636363" type="curve" smooth="yes"/>
      <point x="35.8" y="65.97272727272727"/>
      <point x="91.2090909090909" y="-4.545454545454546"/>
    </contour>
  </outline>
</glyph>
<glyph name="ha-tamil" format="2">
  <advance width="1302.609090909091"/>
  <unicode hex="0BB9"/>
  <note>
uni0BB9
</note>
  <anchor x="608.8909090909091" y="0.0" name="bottom"/>
  <anchor x="577.9545454545455" y="-146.0909090909091" name="nukta"/>
  <anchor x="727.1727272727272" y="548.5454545454545" name="top"/>
  <anchor x="715.8818181818183" y="548.5454545454545" name="vedic"/>
  <outline>
    <contour>
      <point x="66.58181818181818" y="-220.11818181818182" type="curve"/>
      <point x="78.01818181818183" y="-162.6818181818182"/>
      <point x="105.24545454545455" y="-129.34545454545454"/>
      <point x="169.62727272727273" y="-129.34545454545454" type="curve" smooth="yes"/>
      <point x="806.3909090909092" y="-129.34545454545454" type="line" smooth="yes"/>
      <point x="1098.9818181818182" y="-129.34545454545454"/>
      <point x="1255.4727272727273" y="80.11818181818181"/>
      <point x="1255.4727272727273" y="350.57272727272726" type="curve" smooth="yes"/>
      <point x="1255.4727272727273" y="481.3363636363636"/>
      <point x="1193.5818181818183" y="555.3636363636364"/>
      <point x="1100.5909090909092" y="555.3636363636364" type="curve" smooth="yes"/>
      <point x="1030.0090909090911" y="555.3636363636364"/>
      <point x="987.9727272727274" y="510.30909090909086"/>
      <point x="964.9818181818181" y="473.3818181818182" type="curve"/>
      <point x="956.0272727272727" y="510.4727272727273"/>
      <point x="925.9545454545454" y="554.8181818181819"/>
      <point x="862.0454545454546" y="554.8181818181819" type="curve" smooth="yes"/>
      <point x="796.5" y="554.8181818181819"/>
      <point x="746.5818181818182" y="506.4818181818182"/>
      <point x="728.5727272727273" y="421.6" type="curve" smooth="yes"/>
      <point x="647.1545454545455" y="39.90909090909091" type="line"/>
      <point x="466.8545454545455" y="39.90909090909091" type="line"/>
      <point x="541.0272727272727" y="118.45454545454545"/>
      <point x="597.6" y="210.3090909090909"/>
      <point x="597.6" y="328.5727272727273" type="curve" smooth="yes"/>
      <point x="597.6" y="471.6090909090909"/>
      <point x="505.1272727272728" y="555.6818181818182"/>
      <point x="361.94545454545454" y="555.6818181818182" type="curve" smooth="yes"/>
      <point x="171.8" y="555.6818181818182"/>
      <point x="34.790909090909096" y="365.69090909090914"/>
      <point x="34.790909090909096" y="187.13636363636363" type="curve" smooth="yes"/>
      <point x="34.790909090909096" y="65.97272727272727"/>
      <point x="90.83636363636363" y="-4.545454545454546"/>
      <point x="179.6" y="-4.545454545454546" type="curve" smooth="yes"/>
      <point x="261.2" y="-4.545454545454546"/>
      <point x="332.55454545454546" y="62.7"/>
      <point x="332.55454545454546" y="167.23636363636362" type="curve" smooth="yes"/>
      <point x="332.55454545454546" y="246.1"/>
      <point x="285.71818181818185" y="293.90909090909093"/>
      <point x="219.06363636363633" y="293.90909090909093" type="curve" smooth="yes"/>
      <point x="142.33636363636364" y="293.90909090909093"/>
      <point x="86.06363636363638" y="230.78181818181818"/>
      <point x="58.06363636363636" y="149.56363636363636" type="curve"/>
      <point x="74.50909090909092" y="121.81818181818181" type="line"/>
      <point x="102.22727272727273" y="197.52727272727273"/>
      <point x="142.4909090909091" y="246.0"/>
      <point x="199.3272727272727" y="246.0" type="curve" smooth="yes"/>
      <point x="245.00909090909093" y="246.0"/>
      <point x="271.47272727272724" y="214.5909090909091"/>
      <point x="271.47272727272724" y="157.55454545454543" type="curve" smooth="yes"/>
      <point x="271.47272727272724" y="88.06363636363636"/>
      <point x="230.74545454545452" y="36.27272727272727"/>
      <point x="174.12727272727273" y="36.27272727272727" type="curve" smooth="yes"/>
      <point x="113.9090909090909" y="36.27272727272727"/>
      <point x="75.70909090909092" y="90.41818181818181"/>
      <point x="75.70909090909092" y="188.92727272727274" type="curve" smooth="yes"/>
      <point x="75.70909090909092" y="341.95454545454544"/>
      <point x="193.55454545454546" y="515.3181818181819"/>
      <point x="354.9636363636364" y="515.3181818181819" type="curve" smooth="yes"/>
      <point x="471.20000000000005" y="515.3181818181819"/>
      <point x="535.3090909090909" y="437.1636363636364"/>
      <point x="535.3090909090909" y="319.99090909090904" type="curve" smooth="yes"/>
      <point x="535.3090909090909" y="210.8090909090909"/>
      <point x="483.12727272727267" y="115.81818181818183"/>
      <point x="408.5818181818182" y="30.945454545454545" type="curve"/>
      <point x="417.5818181818181" y="0.0" type="line"/>
      <point x="681.0272727272728" y="0.0" type="line"/>
      <point x="769.9636363636364" y="419.2636363636363" type="line" smooth="yes"/>
      <point x="782.6545454545455" y="480.12727272727267"/>
      <point x="811.5363636363636" y="514.4545454545455"/>
      <point x="859.7" y="514.4545454545455" type="curve" smooth="yes"/>
      <point x="913.3727272727272" y="514.4545454545455"/>
      <point x="933.0363636363636" y="466.3363636363636"/>
      <point x="920.009090909091" y="404.93636363636364" type="curve" smooth="yes"/>
      <point x="833.9181818181819" y="0.0" type="line"/>
      <point x="895.4636363636364" y="0.0" type="line"/>
      <point x="982.6999999999999" y="408.9" type="line" smooth="yes"/>
      <point x="997.3090909090909" y="475.70909090909095"/>
      <point x="1041.2454545454545" y="515.0"/>
      <point x="1094.7727272727275" y="515.0" type="curve" smooth="yes"/>
      <point x="1153.490909090909" y="515.0"/>
      <point x="1194.4363636363637" y="468.9909090909091"/>
      <point x="1194.4363636363637" y="359.6909090909091" type="curve" smooth="yes"/>
      <point x="1194.4363636363637" y="108.46363636363637"/>
      <point x="1060.9545454545455" y="-89.53636363636363"/>
      <point x="808.0272727272728" y="-89.53636363636363" type="curve" smooth="yes"/>
      <point x="147.22727272727272" y="-89.53636363636363" type="line" smooth="yes"/>
      <point x="73.30909090909091" y="-89.53636363636363"/>
      <point x="15.581818181818184" y="-117.07272727272728"/>
      <point x="15.581818181818184" y="-171.88181818181818" type="curve" smooth="yes"/>
      <point x="15.581818181818184" y="-203.1"/>
      <point x="34.70909090909092" y="-220.11818181818182"/>
    </contour>
  </outline>
</glyph>
<glyph name="aaMatra-tamil" format="2">
  <advance width="555.790909090909"/>
  <unicode hex="0BBE"/>
  <note>
uni0BBE
</note>
  <anchor x="240.4090909090909" y="0.0" name="bottom"/>
  <anchor x="239.72727272727272" y="0.0" name="nukta"/>
  <anchor x="350.3636363636364" y="548.5454545454545" name="top"/>
  <anchor x="350.3636363636364" y="548.5454545454545" name="vedic"/>
  <outline>
    <contour>
      <point x="32.9909090909091" y="0.0" type="line"/>
      <point x="75.87272727272729" y="0.0" type="line"/>
      <point x="183.6909090909091" y="508.6363636363636" type="line"/>
      <point x="375.29090909090905" y="508.6363636363636" type="line"/>
      <point x="267.1727272727273" y="0.0" type="line"/>
      <point x="328.8545454545455" y="0.0" type="line"/>
      <point x="436.99090909090904" y="508.6363636363636" type="line"/>
      <point x="582.3545454545455" y="508.6363636363636" type="line"/>
      <point x="590.7909090909092" y="548.5454545454545" type="line"/>
      <point x="149.56363636363636" y="548.5454545454545" type="line"/>
    </contour>
  </outline>
</glyph>
<glyph name="iMatra-tamil" format="2">
  <advance width="190.1727272727273"/>
  <unicode hex="0BBF"/>
  <note>
uni0BBF
</note>
  <anchor x="-14.20909090909091" y="805.2454545454545" name="top"/>
  <outline>
    <contour>
      <point x="6.28181818181818" y="0.0" type="line"/>
      <point x="48.945454545454545" y="0.0" type="line"/>
      <point x="168.86363636363637" y="561.6363636363636" type="line" smooth="yes"/>
      <point x="199.3909090909091" y="705.9"/>
      <point x="126.53636363636365" y="805.2454545454545"/>
      <point x="-14.20909090909091" y="805.2454545454545" type="curve" smooth="yes"/>
      <point x="-130.85454545454547" y="805.2454545454545"/>
      <point x="-207.7909090909091" y="723.409090909091"/>
      <point x="-207.7909090909091" y="627.7090909090908" type="curve" smooth="yes"/>
      <point x="-207.7909090909091" y="558.4090909090909"/>
      <point x="-158.07272727272726" y="508.6363636363636"/>
      <point x="-100.3" y="508.6363636363636" type="curve" smooth="yes"/>
      <point x="-94.57272727272726" y="508.6363636363636" type="line"/>
      <point x="-86.05454545454545" y="548.5454545454545" type="line"/>
      <point x="-90.60000000000001" y="548.5454545454545" type="line" smooth="yes"/>
      <point x="-131.52727272727273" y="548.5454545454545"/>
      <point x="-163.06363636363633" y="579.2454545454547"/>
      <point x="-163.06363636363633" y="625.2818181818182" type="curve" smooth="yes"/>
      <point x="-163.06363636363633" y="689.0181818181818"/>
      <point x="-107.82727272727273" y="743.6727272727272"/>
      <point x="-19.872727272727275" y="743.6727272727272" type="curve" smooth="yes"/>
      <point x="92.97272727272727" y="743.6727272727272"/>
      <point x="148.01818181818183" y="666.2272727272726"/>
      <point x="122.32727272727273" y="546.1363636363636" type="curve" smooth="yes"/>
    </contour>
  </outline>
</glyph>
